<?xml version="1.0" encoding="utf-8"?>
<!-- Generator: Adobe Illustrator 18.1.0, SVG Export Plug-In . SVG Version: 6.00 Build 0)  -->
<!DOCTYPE svg PUBLIC "-//W3C//DTD SVG 1.1//EN" "http://www.w3.org/Graphics/SVG/1.1/DTD/svg11.dtd">
<svg version="1.1" xmlns="http://www.w3.org/2000/svg" xmlns:xlink="http://www.w3.org/1999/xlink" x="0px" y="0px"
	 viewBox="0 0 1410 559" enable-background="new 0 0 1410 559" xml:space="preserve">
<g id="Layer_1">
	<path fill="#A90D15" d="M108.9,262H16.8c-3.4,0-6.2-2.8-6.2-6.2v-14c0-3.4,2.8-6.2,6.2-6.2h92.1c3.4,0,6.2,2.8,6.2,6.2v14
		C115.1,259.2,112.3,262,108.9,262z"/>
	<path fill="#A90D15" d="M108.9,190.2H16.8c-3.4,0-6.2-2.8-6.2-6.2v-14c0-3.4,2.8-6.2,6.2-6.2h92.1c3.4,0,6.2,2.8,6.2,6.2v14
		C115.1,187.4,112.3,190.2,108.9,190.2z"/>
	<path fill="#A90D15" d="M108.9,226.1H16.8c-3.4,0-6.2-2.8-6.2-6.2v-14c0-3.4,2.8-6.2,6.2-6.2h92.1c3.4,0,6.2,2.8,6.2,6.2v14
		C115.1,223.3,112.3,226.1,108.9,226.1z"/>
	<path fill="#A90D15" d="M108.9,154.3H16.8c-3.4,0-6.2-2.8-6.2-6.2v-14c0-3.4,2.8-6.2,6.2-6.2h92.1c3.4,0,6.2,2.8,6.2,6.2v14
		C115.1,151.5,112.3,154.3,108.9,154.3z"/>
	<path fill="#A90D15" d="M278.4,150.3h-92.1c-3.4,0-6.2-2.8-6.2-6.2v-14c0-3.4,2.8-6.2,6.2-6.2h92.1c3.4,0,6.2,2.8,6.2,6.2v14
		C284.6,147.5,281.8,150.3,278.4,150.3z"/>
	<path fill="#A90D15" d="M278.4,186.4h-92.1c-3.4,0-6.2-2.8-6.2-6.2v-14c0-3.4,2.8-6.2,6.2-6.2h92.1c3.4,0,6.2,2.8,6.2,6.2v14
		C284.6,183.6,281.8,186.4,278.4,186.4z"/>
	<path fill="#A90D15" d="M278.4,366.6h-92.1c-3.4,0-6.2-2.8-6.2-6.2v-14c0-3.4,2.8-6.2,6.2-6.2h92.1c3.4,0,6.2,2.8,6.2,6.2v14
		C284.6,363.8,281.8,366.6,278.4,366.6z"/>
	<path fill="#A90D15" d="M278.4,330.6h-92.1c-3.4,0-6.2-2.8-6.2-6.2v-14c0-3.4,2.8-6.2,6.2-6.2h92.1c3.4,0,6.2,2.8,6.2,6.2v14
		C284.6,327.8,281.8,330.6,278.4,330.6z"/>
	<path fill="#A90D15" d="M278.4,222.4h-92.1c-3.4,0-6.2-2.8-6.2-6.2v-14c0-3.4,2.8-6.2,6.2-6.2h92.1c3.4,0,6.2,2.8,6.2,6.2v14
		C284.6,219.6,281.8,222.4,278.4,222.4z"/>
	<path fill="#A90D15" d="M278.4,258.5h-92.1c-3.4,0-6.2-2.8-6.2-6.2v-14c0-3.4,2.8-6.2,6.2-6.2h92.1c3.4,0,6.2,2.8,6.2,6.2v14
		C284.6,255.7,281.8,258.5,278.4,258.5z"/>
	<path fill="#A90D15" d="M278.4,402.7h-92.1c-3.4,0-6.2-2.8-6.2-6.2v-14c0-3.4,2.8-6.2,6.2-6.2h92.1c3.4,0,6.2,2.8,6.2,6.2v14
		C284.6,399.9,281.8,402.7,278.4,402.7z"/>
	<path fill="#A90D15" d="M278.4,294.5h-92.1c-3.4,0-6.2-2.8-6.2-6.2v-14c0-3.4,2.8-6.2,6.2-6.2h92.1c3.4,0,6.2,2.8,6.2,6.2v14
		C284.6,291.7,281.8,294.5,278.4,294.5z"/>
	<path fill="#A90D15" d="M453.8,152.3h-92.1c-3.4,0-6.2-2.8-6.2-6.2v-14c0-3.4,2.8-6.2,6.2-6.2h92.1c3.4,0,6.2,2.8,6.2,6.2v14
		C460,149.5,457.2,152.3,453.8,152.3z"/>
	<path fill="#A90D15" d="M453.8,184.5h-92.1c-3.4,0-6.2-2.8-6.2-6.2v-14c0-3.4,2.8-6.2,6.2-6.2h92.1c3.4,0,6.2,2.8,6.2,6.2v14
		C460,181.7,457.2,184.5,453.8,184.5z"/>
	<path fill="#A90D15" d="M453.8,248.9h-92.1c-3.4,0-6.2-2.8-6.2-6.2v-14c0-3.4,2.8-6.2,6.2-6.2h92.1c3.4,0,6.2,2.8,6.2,6.2v14
		C460,246.1,457.2,248.9,453.8,248.9z"/>
	<path fill="#A90D15" d="M453.8,216.7h-92.1c-3.4,0-6.2-2.8-6.2-6.2v-14c0-3.4,2.8-6.2,6.2-6.2h92.1c3.4,0,6.2,2.8,6.2,6.2v14
		C460,213.9,457.2,216.7,453.8,216.7z"/>
	<path fill="#A90D15" d="M453.8,281.1h-92.1c-3.4,0-6.2-2.8-6.2-6.2v-14c0-3.4,2.8-6.2,6.2-6.2h92.1c3.4,0,6.2,2.8,6.2,6.2v14
		C460,278.3,457.2,281.1,453.8,281.1z"/>
	<path fill="#A90D15" d="M453.8,313.2h-92.1c-3.4,0-6.2-2.8-6.2-6.2v-14c0-3.4,2.8-6.2,6.2-6.2h92.1c3.4,0,6.2,2.8,6.2,6.2v14
		C460,310.4,457.2,313.2,453.8,313.2z"/>
	<path fill="#A90D15" d="M453.8,345.4h-92.1c-3.4,0-6.2-2.8-6.2-6.2v-14c0-3.4,2.8-6.2,6.2-6.2h92.1c3.4,0,6.2,2.8,6.2,6.2v14
		C460,342.6,457.2,345.4,453.8,345.4z"/>
	<path fill="#A90D15" d="M1002.1,39.7h-92.1c-3.4,0-6.2-2.8-6.2-6.2v-14c0-3.4,2.8-6.2,6.2-6.2h92.1c3.4,0,6.2,2.8,6.2,6.2v14
		C1008.4,36.9,1005.6,39.7,1002.1,39.7z"/>
	<path fill="#A90D15" d="M1115.9,39.7h-92.1c-3.4,0-6.2-2.8-6.2-6.2v-14c0-3.4,2.8-6.2,6.2-6.2h92.1c3.4,0,6.2,2.8,6.2,6.2v14
		C1122.2,36.9,1119.4,39.7,1115.9,39.7z"/>
	<path fill="#A90D15" d="M1343.5,39.7h-92.1c-3.4,0-6.2-2.8-6.2-6.2v-14c0-3.4,2.8-6.2,6.2-6.2h92.1c3.4,0,6.2,2.8,6.2,6.2v14
		C1349.7,36.9,1346.9,39.7,1343.5,39.7z"/>
	<path fill="#A90D15" d="M1052.8,75.7h-92.1c-3.4,0-6.2-2.8-6.2-6.2v-14c0-3.4,2.8-6.2,6.2-6.2h92.1c3.4,0,6.2,2.8,6.2,6.2v14
		C1059,72.9,1056.2,75.7,1052.8,75.7z"/>
	<path fill="#A90D15" d="M1229.7,39.7h-92.1c-3.4,0-6.2-2.8-6.2-6.2v-14c0-3.4,2.8-6.2,6.2-6.2h92.1c3.4,0,6.2,2.8,6.2,6.2v14
		C1235.9,36.9,1233.1,39.7,1229.7,39.7z"/>
	<path fill="#A90D15" d="M1169,74.3H1077c-3.4,0-6.2-2.8-6.2-6.2v-14c0-3.4,2.8-6.2,6.2-6.2h92.1c3.4,0,6.2,2.8,6.2,6.2v14
		C1175.3,71.5,1172.5,74.3,1169,74.3z"/>
	<path fill="#A90D15" d="M1290.8,74h-92.1c-3.4,0-6.2-2.8-6.2-6.2v-14c0-3.4,2.8-6.2,6.2-6.2h92.1c3.4,0,6.2,2.8,6.2,6.2v14
		C1297,71.2,1294.2,74,1290.8,74z"/>
	<path fill="#A90D15" d="M965.1,427.6h-92.1c-3.4,0-6.2-2.8-6.2-6.2v-14c0-3.4,2.8-6.2,6.2-6.2h92.1c3.4,0,6.2,2.8,6.2,6.2v14
		C971.4,424.8,968.6,427.6,965.1,427.6z"/>
	<path fill="#A90D15" d="M1070.3,427.6h-92.1c-3.4,0-6.2-2.8-6.2-6.2v-14c0-3.4,2.8-6.2,6.2-6.2h92.1c3.4,0,6.2,2.8,6.2,6.2v14
		C1076.5,424.8,1073.7,427.6,1070.3,427.6z"/>
	<path fill="#A90D15" d="M1175.5,427.6h-92.1c-3.4,0-6.2-2.8-6.2-6.2v-14c0-3.4,2.8-6.2,6.2-6.2h92.1c3.4,0,6.2,2.8,6.2,6.2v14
		C1181.7,424.8,1178.9,427.6,1175.5,427.6z"/>
	<path fill="#A90D15" d="M1069.3,469.6h-92.1c-3.4,0-6.2-2.8-6.2-6.2v-14c0-3.4,2.8-6.2,6.2-6.2h92.1c3.4,0,6.2,2.8,6.2,6.2v14
		C1075.5,466.8,1072.7,469.6,1069.3,469.6z"/>
	<path fill="#A90D15" d="M963.8,469.6h-92.1c-3.4,0-6.2-2.8-6.2-6.2v-14c0-3.4,2.8-6.2,6.2-6.2h92.1c3.4,0,6.2,2.8,6.2,6.2v14
		C970,466.8,967.2,469.6,963.8,469.6z"/>
	<path fill="#A90D15" d="M1174.8,469.6h-92.1c-3.4,0-6.2-2.8-6.2-6.2v-14c0-3.4,2.8-6.2,6.2-6.2h92.1c3.4,0,6.2,2.8,6.2,6.2v14
		C1181,466.8,1178.2,469.6,1174.8,469.6z"/>
	<path fill="#A90D15" d="M1280.6,427.6h-92.1c-3.4,0-6.2-2.8-6.2-6.2v-14c0-3.4,2.8-6.2,6.2-6.2h92.1c3.4,0,6.2,2.8,6.2,6.2v14
		C1286.9,424.8,1284.1,427.6,1280.6,427.6z"/>
	<path fill="#A90D15" d="M1280.3,469.6h-92.1c-3.4,0-6.2-2.8-6.2-6.2v-14c0-3.4,2.8-6.2,6.2-6.2h92.1c3.4,0,6.2,2.8,6.2,6.2v14
		C1286.5,466.8,1283.7,469.6,1280.3,469.6z"/>
	<path fill="#A90D15" d="M1385.8,469.6h-92.1c-3.4,0-6.2-2.8-6.2-6.2v-14c0-3.4,2.8-6.2,6.2-6.2h92.1c3.4,0,6.2,2.8,6.2,6.2v14
		C1392,466.8,1389.2,469.6,1385.8,469.6z"/>
	<path fill="#A90D15" d="M1385.8,427.6h-92.1c-3.4,0-6.2-2.8-6.2-6.2v-14c0-3.4,2.8-6.2,6.2-6.2h92.1c3.4,0,6.2,2.8,6.2,6.2v14
		C1392,424.8,1389.2,427.6,1385.8,427.6z"/>
	<text transform="matrix(1 0 0 1 11.0943 112.6668)" fill="#FFFFFF" font-family="'Venera900'" font-size="18">health</text>
	<text transform="matrix(1 0 0 1 173.0008 112.5803)" fill="#FFFFFF" font-family="'Venera900'" font-size="18">planner</text>
	<text transform="matrix(1 0 0 1 359.6667 112.6668)" fill="#FFFFFF" font-family="'Venera900'" font-size="18">money</text>
	<text transform="matrix(1 0 0 1 1070 141.0002)" fill="#FFFFFF" font-family="'Venera900'" font-size="18">target</text>
	<text transform="matrix(1 0 0 1 1077.5508 384.5889)" fill="#FFFFFF" font-family="'Venera900'" font-size="14">connect</text>
	
		<image overflow="visible" width="512" height="512" xlink:href="../../../../Downloads/phonendoscope copy.png"  transform="matrix(0.1516 0 0 0.1516 22.7228 11.7874)">
	</image>
	
		<image overflow="visible" width="512" height="512" xlink:href="../../../../Downloads/time16 copy.png"  transform="matrix(0.196 0 0 0.196 186.1488 5.6672)">
	</image>
	
		<image overflow="visible" width="512" height="357" xlink:href="../../../../Downloads/career copy.png"  transform="matrix(0.4276 0 0 0.4276 991 174)">
	</image>
	
		<image overflow="visible" width="512" height="512" xlink:href="../../../../Downloads/dollar182 copy.png"  transform="matrix(0.1342 0 0 0.1342 370.3333 24.6667)">
	</image>
	<text transform="matrix(1 0 0 1 658.3333 356.3335)" fill="#FFFFFF" font-family="'Venera900'" font-size="18">user</text>
	
		<image overflow="visible" width="512" height="512" xlink:href="../../../../Downloads/dollar182 copy.png"  transform="matrix(0.1342 0 0 0.1342 769.6667 159)">
	</image>
	
		<image overflow="visible" width="512" height="512" xlink:href="../../../../Downloads/time16 copy.png"  transform="matrix(0.196 0 0 0.196 637.6486 98.3338)">
	</image>
	
		<image overflow="visible" width="512" height="512" xlink:href="../../../../Downloads/phonendoscope copy.png"  transform="matrix(0.1516 0 0 0.1516 538.7228 159)">
	</image>
	<line fill="#A90D15" stroke="#A90D15" stroke-miterlimit="10" x1="595.3" y1="236.7" x2="648.7" y2="278"/>
	<line fill="#A90D15" stroke="#A90D15" stroke-miterlimit="10" x1="689" y1="178.7" x2="689.6" y2="218.1"/>
	<line fill="#A90D15" stroke="#A90D15" stroke-miterlimit="10" x1="787.7" y1="233.7" x2="734.3" y2="275"/>
	<g>
		<g>
			
				<line fill="none" stroke="#A90D15" stroke-width="6" stroke-linecap="round" stroke-miterlimit="10" x1="749" y1="295" x2="753" y2="295"/>
			
				<line fill="none" stroke="#A90D15" stroke-width="6" stroke-linecap="round" stroke-miterlimit="10" stroke-dasharray="8,20" x1="773" y1="295" x2="961" y2="295"/>
			
				<line fill="none" stroke="#A90D15" stroke-width="6" stroke-linecap="round" stroke-miterlimit="10" x1="971" y1="295" x2="975" y2="295"/>
		</g>
	</g>
	<text transform="matrix(1 0 0 1 34.6667 147.3332)" fill="#FFFFFF" font-family="'Venera900'" font-size="18">diet</text>
	<text transform="matrix(1 0 0 1 16.6667 180.6665)" fill="#FFFFFF" font-family="'Venera900'" font-size="13">workout</text>
	<text transform="matrix(1 0 0 1 16.3333 215.6665)" fill="#FFFFFF" font-family="'Venera900'" font-size="9">maintenance</text>
	<text transform="matrix(1 0 0 1 15.3335 249.3332)" fill="#FFFFFF" font-family="'Venera900'" font-size="9">supplements</text>
	<text transform="matrix(1 0 0 1 185.6667 139.6665)" fill="#FFFFFF" font-family="'Venera900'" font-size="12">calendar</text>
	<text transform="matrix(1 0 0 1 190.6667 177.9998)" fill="#FFFFFF" font-family="'Venera900'" font-size="18">tasks</text>
	<text transform="matrix(1 0 0 1 189.3329 213.8154)" fill="#FFFFFF" font-family="'Venera900'" font-size="14.9472">events</text>
	<text transform="matrix(1 0 0 1 204 250.6665)" fill="#FFFFFF" font-family="'Venera900'" font-size="18">diet</text>
	<text transform="matrix(1 0 0 1 186.3333 284.9998)" fill="#FFFFFF" font-family="'Venera900'" font-size="13">workout</text>
	<text transform="matrix(1 0 0 1 191.3333 319.9997)" fill="#FFFFFF" font-family="'Venera900'" font-size="12">payment</text>
	<text transform="matrix(1 0 0 1 192.0002 354.667)" fill="#FFFFFF" font-family="'Venera900'" font-size="12">connect</text>
	<text transform="matrix(1 0 0 1 200.9264 386.0003)"><tspan x="0" y="0" fill="#FFFFFF" font-family="'Venera900'" font-size="12">direct</tspan><tspan x="-9.9" y="14.4" fill="#FFFFFF" font-family="'Venera900'" font-size="12">contact</tspan></text>
	<text transform="matrix(1 0 0 1 364.0392 141.2765)" fill="#FFFFFF" font-family="'Venera900'" font-size="14.5041">budget</text>
	<text transform="matrix(1 0 0 1 358.9053 173.9432)" fill="#FFFFFF" font-family="'Venera900'" font-size="13">shopping</text>
	<text transform="matrix(1 0 0 1 360.1927 206.0002)" fill="#FFFFFF" font-family="'Venera900'" font-size="13">finances</text>
	<text transform="matrix(1 0 0 1 372.2009 238.97)" fill="#FFFFFF" font-family="'Venera900'" font-size="13">wants</text>
	<text transform="matrix(1 0 0 1 362.3324 270)" fill="#FFFFFF" font-family="'Venera900'" font-size="13">analysis</text>
	<text transform="matrix(1 0 0 1 363.3333 304.3332)" fill="#FFFFFF" font-family="'Venera900'" font-size="18">syncs</text>
	<text transform="matrix(1 0 0 1 358.4468 335.0002)" fill="#FFFFFF" font-family="'Venera900'" font-size="12">inventory</text>
	<text transform="matrix(1 0 0 1 918.1089 29.9432)" fill="#FFFFFF" font-family="'Venera900'" font-size="14.5041">retail</text>
	<text transform="matrix(1 0 0 1 1021.6816 28.6098)" fill="#FFFFFF" font-family="'Venera900'" font-size="8">entertainment</text>
	<text transform="matrix(1 0 0 1 1145.0068 29.3335)" fill="#FFFFFF" font-family="'Venera900'" font-size="12">utilities</text>
	<text transform="matrix(1 0 0 1 1248.1644 29.3332)" fill="#FFFFFF" font-family="'Venera900'" font-size="12">groceries</text>
	<text transform="matrix(1 0 0 1 969.3821 65.3333)" fill="#FFFFFF" font-family="'Venera900'" font-size="12">brands</text>
	<text transform="matrix(1 0 0 1 1078.3524 64.9049)" fill="#FFFFFF" font-family="'Venera900'" font-size="12">services</text>
	<text transform="matrix(1 0 0 1 1206.9752 62.6668)" fill="#FFFFFF" font-family="'Venera900'" font-size="12">pharma</text>
	<text transform="matrix(1 0 0 1 871.5189 416.667)" fill="#FFFFFF" font-family="'Venera900'" font-size="12">dieticians</text>
	<text transform="matrix(1 0 0 1 975.5039 418)" fill="#FFFFFF" font-family="'Venera900'" font-size="9">restaurants</text>
	<text transform="matrix(1 0 0 1 1085.5306 418)" fill="#FFFFFF" font-family="'Venera900'" font-size="13">schools</text>
	<text transform="matrix(1 0 0 1 1186.9274 418.6664)" fill="#FFFFFF" font-family="'Venera900'" font-size="13">trainers</text>
	<text transform="matrix(1 0 0 1 1287.9795 417.9997)" fill="#FFFFFF" font-family="'Venera900'" font-size="11">nonprofits</text>
	<text transform="matrix(1 0 0 1 880.4323 461.3333)" fill="#FFFFFF" font-family="'Venera900'" font-size="15">banks</text>
	<text transform="matrix(1 0 0 1 974.723 458.6667)" fill="#FFFFFF" font-family="'Venera900'" font-size="12">creditors</text>
	<text transform="matrix(1 0 0 1 1077.8203 459.3333)" fill="#FFFFFF" font-family="'Venera900'" font-size="11.5">transport</text>
	<text transform="matrix(1 0 0 1 1181.3129 459.3333)" fill="#FFFFFF" font-family="'Venera900'" font-size="11.5">hospitality</text>
	<text transform="matrix(1 0 0 1 993.2828 333.0882)" fill="#FFFFFF" font-family="'Venera900'" font-size="25">businesses</text>
	<line fill="#A90D15" stroke="#A90D15" stroke-miterlimit="10" x1="114.7" y1="140.7" x2="182.7" y2="241.3"/>
	<line fill="none" stroke="#A90D15" stroke-miterlimit="10" x1="114.7" y1="177.3" x2="180.1" y2="274.3"/>
	<line fill="none" stroke="#A90D15" stroke-miterlimit="10" x1="114.7" y1="214" x2="179.3" y2="174.7"/>
	<line fill="none" stroke="#A90D15" stroke-miterlimit="10" x1="115" y1="246.5" x2="182" y2="246.5"/>
	<line fill="none" stroke="#A90D15" stroke-miterlimit="10" x1="284" y1="173.3" x2="357.3" y2="140"/>
	<line fill="none" stroke="#A90D15" stroke-miterlimit="10" x1="284" y1="246" x2="354.7" y2="142"/>
	<line fill="none" stroke="#A90D15" stroke-miterlimit="10" x1="284" y1="173.3" x2="358.7" y2="172"/>
	<line fill="none" stroke="#A90D15" stroke-miterlimit="10" x1="283.3" y1="248.7" x2="356" y2="173.3"/>
	<line fill="none" stroke="#A90D15" stroke-miterlimit="10" x1="283.3" y1="315.3" x2="354.7" y2="140"/>
	<line fill="none" stroke="#A90D15" stroke-miterlimit="10" x1="283.3" y1="315.3" x2="356" y2="173.3"/>
	<line fill="none" stroke="#A90D15" stroke-miterlimit="10" x1="284.6" y1="324.3" x2="358" y2="201.3"/>
</g>
<g id="Layer_2">
	<rect x="502.7" y="17.6" fill="none" stroke="#A90D15" stroke-miterlimit="10" width="371.4" height="56"/>
	<text transform="matrix(1 0 0 1 559.8024 59.3409)" fill="#FFFFFF" font-family="'Venera900'" font-size="31">syncform</text>
	
		<image overflow="visible" width="512" height="512" xlink:href="../../../../Downloads/user82.png"  transform="matrix(0.251 0 0 0.251 628.834 210)">
	</image>
</g>
</svg>
