<?xml version="1.0" encoding="utf-8"?>
<!-- Generator: Adobe Illustrator 18.1.0, SVG Export Plug-In . SVG Version: 6.00 Build 0)  -->
<!DOCTYPE svg PUBLIC "-//W3C//DTD SVG 1.1//EN" "http://www.w3.org/Graphics/SVG/1.1/DTD/svg11.dtd">
<svg version="1.1" id="Layer_1" xmlns="http://www.w3.org/2000/svg" xmlns:xlink="http://www.w3.org/1999/xlink" x="0px" y="0px"
	 viewBox="0 0 100 100" enable-background="new 0 0 100 100" xml:space="preserve">
<!--CLOUD-->
<g>
	<path fill="#A90D15" d="M25.2,55.8c0.1-0.4,0.2-0.8,0.3-1.2c1.3-5.2,5.8-8.7,11.2-8.6c0.1,0,0.2,0,0.4,0c0.8-2,2-3.8,3.7-5.1
		c2.4-1.9,5.2-2.7,8.3-2.3c0.4,0.1,0.7,0,0.9-0.4c2.7-4.2,6.5-6.6,11.4-7.2c7.5-0.8,14.9,4.8,16.1,12.3c0.2,1.1,0.2,2.2,0.3,3.2
		c1.1,0.7,2.3,1.2,3.3,2c3.7,3.1,4.9,7,3.8,11.7c-1.1,4.4-4.9,7.6-9.3,8.2c-0.5,0.1-1,0.1-1.5,0.1c-12.5,0-25.1,0-37.6,0
		c-5.5,0-10.2-4-11.1-9.4c0-0.1-0.1-0.3-0.1-0.4C25.2,57.7,25.2,56.8,25.2,55.8z M55.2,64.7C55.2,64.7,55.2,64.7,55.2,64.7
		c6.3,0,12.6,0,18.9,0c3.6,0,6.7-2.8,7.2-6.2c0.6-3.7-1.5-7.1-5-8.3c-0.7-0.2-1.4-0.5-2.1-0.7c-0.3-0.1-0.4-0.2-0.4-0.6
		c0-1.4,0.2-2.8,0-4.2C73.1,37,64.4,32.4,57.6,36c-2.4,1.3-4,3.2-5.2,5.5c-0.7,1.3-0.7,1.3-2.2,1.1c-0.2,0-0.3-0.1-0.5-0.1
		c-4.4-0.9-7.7,1-9.2,5.2c-0.2,0.6-0.4,1.1-0.6,1.7c-0.1,0.4-0.3,0.6-0.7,0.5c-1.1-0.1-2.2-0.3-3.3-0.2c-5.1,0.3-8.4,5.7-6.3,10.4
		c1.4,3.1,3.9,4.5,7.3,4.5C43,64.7,49.1,64.7,55.2,64.7z"/>
</g>
<!--END CLOUD-->
<!--PATH-->
<path fill="none" id="iliketospoonafterforking" d="M57.4,49.3c-43,0.8-14.6-14.4-14.6-14.4l10.4-3.3l10-3.2c0,0-11.5-5.5-0.8,3.7s20.4-2.6,7.2,12
	S78.1,79.2,55.1,72C32,64.8,32.4,55,35.5,49.4C38.6,43.9,57.4,49.3,57.4,49.3z"/>
<!--END PATH-->
<!--MAGNIFYING GLASS-->
<g>

	<path fill="#A90D15" d="M26.3,29.8c-0.5-0.5-1.1-1.1-1.6-1.6c-1.5-1.5-3-3-4.5-4.5c-0.5-0.5-0.5-0.9-0.1-1.4c-0.7-0.7-1.4-1.4-2.2-2.2
		c-0.1,0.1-0.3,0.2-0.4,0.3c-5.1,3.5-11.9,1.1-13.8-4.8c-0.2-0.5-0.2-1.1-0.3-1.6c0-0.1,0-0.2-0.1-0.2c0-0.5,0-1.1,0-1.6
		c0-0.1,0-0.3,0.1-0.4c0.5-3.8,3.3-6.8,7.1-7.6C10.8,4,11.1,4,11.5,3.9c0.5,0,1.1,0,1.6,0C13.5,4,13.9,4,14.2,4.1
		c3.8,0.8,6.5,3.8,7,7.6c0.3,2.4-0.3,4.6-1.7,6.6c-0.1,0.1-0.1,0.2-0.2,0.3c0.7,0.7,1.4,1.4,2.2,2.2c0.1-0.1,0.2-0.1,0.3-0.2
		c0.4-0.2,0.8,0,1.1,0.3c1,1,1.9,1.9,2.9,2.9c1.1,1.1,2.1,2.1,3.2,3.2c0.1,0.1,0.1,0.1,0.2,0.2c0,0.1,0,0.2,0,0.3
		c-0.2,0.2-0.4,0.4-0.7,0.6c-0.6,0.6-1.1,1.1-1.7,1.7C26.7,29.8,26.5,29.8,26.3,29.8z M12.4,5.8c-3.9,0-7.1,3.2-7.1,7.1
		c0,4,3.2,7.2,7.1,7.2c3.9,0,7.1-3.2,7.1-7.1C19.5,9,16.3,5.8,12.4,5.8z"/>

	<animateMotion  fill="remove" dur="7s" calcMode="paced" additive="replace" accumulate="none" repeatCount="indefinite" restart="always">
		<mpath  xlink:href="#iliketospoonafterforking"></mpath>
	</animateMotion>
</g>
<!--MAGNIFYING GLASS-->
</svg>
