<?xml version="1.0" encoding="utf-8"?>
<!-- Generator: Adobe Illustrator 18.1.0, SVG Export Plug-In . SVG Version: 6.00 Build 0)  -->
<!DOCTYPE svg PUBLIC "-//W3C//DTD SVG 1.1//EN" "http://www.w3.org/Graphics/SVG/1.1/DTD/svg11.dtd">
<svg version="1.1" xmlns="http://www.w3.org/2000/svg" xmlns:xlink="http://www.w3.org/1999/xlink" x="0px" y="0px"
	 viewBox="0 0 1410 559" enable-background="new 0 0 1410 559" xml:space="preserve">
<g id="Layer_2">
	<rect x="10.6" y="8.8" fill="none" stroke="#A80D15" stroke-miterlimit="10" width="230.8" height="53.8"/>
	<text transform="matrix(1 0 0 1 32.1093 36.2637)" fill="#A80D15" font-family="'Venera700'" font-size="16">question mark</text>
	<rect x="8.6" y="486.9" fill="none" stroke="#A80D15" stroke-miterlimit="10" width="230.8" height="53.8"/>
	<text transform="matrix(1 0 0 1 99.2072 518.7252)" fill="#A80D15" font-family="'Venera700'" font-size="16">Dog</text>
	<rect x="1166.5" y="494.6" fill="none" stroke="#A80D15" stroke-miterlimit="10" width="230.8" height="53.8"/>
	<text transform="matrix(1 0 0 1 1219.8905 526.4835)" fill="#A80D15" font-family="'Venera700'" font-size="16">cash cow</text>
	<rect x="1169.7" y="9.8" fill="none" stroke="#A80D15" stroke-miterlimit="10" width="230.8" height="53.8"/>
	<text transform="matrix(1 0 0 1 1195.9346 32.8351)"><tspan x="0" y="0" fill="#A80D15" font-family="'Venera700'" font-size="16">portfolio mix </tspan><tspan x="6.1" y="19.2" fill="#A80D15" font-family="'Venera700'" font-size="16">management</tspan></text>
	<text transform="matrix(1 0 0 1 560.8339 14.2855)" fill="#A80D15" font-family="'Venera900'" font-size="16">high growth potential</text>
	<text transform="matrix(1 0 0 1 560.8338 554.6151)" fill="#A80D15" font-family="'Venera900'" font-size="16">high growth potential</text>
	<text transform="matrix(1 0 0 1 5.4945 241.7581)"><tspan x="0" y="0" fill="#A80D15" font-family="'Venera900'" font-size="16">low relative</tspan><tspan x="0" y="19.2" fill="#A80D15" font-family="'Venera900'" font-size="16">market share</tspan></text>
	<text transform="matrix(1 0 0 1 1229.443 241.7911)"><tspan x="0" y="0" fill="#A80D15" font-family="'Venera900'" font-size="16">high relative</tspan><tspan x="-9.7" y="19.2" fill="#A80D15" font-family="'Venera900'" font-size="16">market share</tspan></text>
	<g>
		<g>
			<line fill="none" stroke="#A80D15" stroke-width="2" stroke-miterlimit="10" x1="704" y1="29" x2="704" y2="35"/>
			
				<line fill="none" stroke="#A80D15" stroke-width="2" stroke-miterlimit="10" stroke-dasharray="12,12" x1="704" y1="47" x2="704" y2="518"/>
			<line fill="none" stroke="#A80D15" stroke-width="2" stroke-miterlimit="10" x1="704" y1="524" x2="704" y2="530"/>
		</g>
	</g>
	<g>
		<g>
			<line fill="none" stroke="#A80D15" stroke-width="2" stroke-miterlimit="10" x1="203" y1="245" x2="209" y2="245"/>
			
				<line fill="none" stroke="#A80D15" stroke-width="2" stroke-miterlimit="10" stroke-dasharray="12,12" x1="221" y1="245" x2="1190" y2="245"/>
			<line fill="none" stroke="#A80D15" stroke-width="2" stroke-miterlimit="10" x1="1196" y1="245" x2="1202" y2="245"/>
		</g>
	</g>
	<circle fill="none" stroke="#A71E23" stroke-width="2" stroke-miterlimit="10" cx="369.8" cy="171.4" r="41.8"/>
	<g>
		<g>
			<polyline fill="none" stroke="#A80D15" stroke-miterlimit="10" points="342.6,151.5 342.6,144 350.2,144 			"/>
			
				<line fill="none" stroke="#A80D15" stroke-miterlimit="10" stroke-dasharray="10.4,10.4" x1="363.1" y1="144" x2="382.7" y2="144"/>
			<polyline fill="none" stroke="#A80D15" stroke-miterlimit="10" points="389.2,144 396.6,144 396.6,151.5 			"/>
			
				<line fill="none" stroke="#A80D15" stroke-miterlimit="10" stroke-dasharray="10.4,10.4" x1="396.6" y1="164.5" x2="396.6" y2="184"/>
			<polyline fill="none" stroke="#A80D15" stroke-miterlimit="10" points="396.6,190.6 396.6,197.9 389.2,197.9 			"/>
			
				<line fill="none" stroke="#A80D15" stroke-miterlimit="10" stroke-dasharray="10.4,10.4" x1="376.3" y1="197.9" x2="356.6" y2="197.9"/>
			<polyline fill="none" stroke="#A80D15" stroke-miterlimit="10" points="350.2,197.9 342.6,197.9 342.6,190.6 			"/>
			
				<line fill="none" stroke="#A80D15" stroke-miterlimit="10" stroke-dasharray="10.4,10.4" x1="342.6" y1="177.6" x2="342.6" y2="158"/>
		<animateTransform  type="rotate" fill="remove" attributeName="transform" accumulate="none" calcMode="linear" dur="5s" additive="replace" to="360 369.8 171.4" from="0 369.8 171.4" restart="always" attributeType="xml" repeatCount="indefinite">
		</animateTransform>
		</g>
		
	</g>
	<circle fill="#A71E23" cx="370.6" cy="170.9" r="20.1"/>
	<rect x="342.2" y="164.5" fill="none" width="63" height="13.9"/>
	<text transform="matrix(1 0 0 1 343.3091 175.4037)" fill="#CBCBCA" font-family="'Venera900'" font-size="15.8548">ebid</text>
	<circle fill="none" stroke="#A71E23" stroke-width="2" stroke-miterlimit="10" cx="833.3" cy="59.2" r="44.3"/>
	<g>
		<polyline fill="none" stroke="#A80D15" stroke-miterlimit="10" points="804.5,38.2 804.5,30.2 812.5,30.2 		"/>
		
			<line fill="none" stroke="#A80D15" stroke-miterlimit="10" stroke-dasharray="10.4,10.4" x1="826.2" y1="30.2" x2="846.9" y2="30.2"/>
		<polyline fill="none" stroke="#A80D15" stroke-miterlimit="10" points="853.8,30.2 861.7,30.2 861.7,38.2 		"/>
		
			<line fill="none" stroke="#A80D15" stroke-miterlimit="10" stroke-dasharray="10.4,10.4" x1="861.7" y1="52" x2="861.7" y2="72.5"/>
		<polyline fill="none" stroke="#A80D15" stroke-miterlimit="10" points="861.7,79.6 861.7,87.3 853.8,87.3 		"/>
		
			<line fill="none" stroke="#A80D15" stroke-miterlimit="10" stroke-dasharray="10.4,10.4" x1="840.2" y1="87.3" x2="819.3" y2="87.3"/>
		<polyline fill="none" stroke="#A80D15" stroke-miterlimit="10" points="812.5,87.3 804.5,87.3 804.5,79.6 		"/>
		
			<line fill="none" stroke="#A80D15" stroke-miterlimit="10" stroke-dasharray="10.4,10.4" x1="804.5" y1="65.8" x2="804.5" y2="45.1"/>
		<animateTransform  type="rotate" fill="remove" attributeName="transform" accumulate="none" calcMode="linear" dur="5s" additive="replace" to="360 833.3 59.2" from="0 833.3 59.2" restart="always" attributeType="xml" repeatCount="indefinite">
		</animateTransform>
	</g>
	
	<circle fill="#A71E23" cx="834.1" cy="58.7" r="21.3"/>
	<rect x="638.1" y="173" fill="none" width="81.8" height="18"/>
	<text transform="matrix(1 0 0 1 809.6149 63.4782)" fill="#CBCBCA" font-family="'Venera900'" font-size="16.803">cep</text>
	<circle fill="none" stroke="#A71E23" stroke-width="2" stroke-miterlimit="10" cx="642.1" cy="152.7" r="79.3"/>
	<g>
	<polyline fill="none" stroke="#A80D15" stroke-miterlimit="10" points="590.6,115 590.6,100.8 605,100.8 	"/>
	<polyline fill="none" stroke="#A80D15" stroke-miterlimit="10" points="678.9,100.8 693.1,100.8 693.1,115 	"/>
	
		<line fill="none" stroke="#A80D15" stroke-miterlimit="10" stroke-dasharray="10.4,10.4" x1="693.1" y1="139.7" x2="693.1" y2="176.5"/>
	<polyline fill="none" stroke="#A80D15" stroke-miterlimit="10" points="693.1,189.1 693.1,203.1 678.9,203.1 	"/>
	
		<line fill="none" stroke="#A80D15" stroke-miterlimit="10" stroke-dasharray="10.4,10.4" x1="654.4" y1="203.1" x2="617.1" y2="203.1"/>
	<polyline fill="none" stroke="#A80D15" stroke-miterlimit="10" points="605,203.1 590.6,203.1 590.6,189.1 	"/>
	
		<line fill="none" stroke="#A80D15" stroke-miterlimit="10" stroke-dasharray="10.4,10.4" x1="590.6" y1="164.4" x2="590.6" y2="127.3"/>
		<animateTransform  type="rotate" fill="remove" attributeName="transform" accumulate="none" calcMode="linear" dur="5s" additive="replace" to="360 642.1 152.7" from="0 642.1 152.7" restart="always" attributeType="xml" repeatCount="indefinite">
		</animateTransform>
	</g>
	<circle fill="#A71E23" cx="643.7" cy="151.8" r="38.2"/>
	<rect x="589.7" y="139.7" fill="none" width="119.5" height="26.3"/>
	<text transform="matrix(1 0 0 1 590.7327 160.1142)" fill="#CBCBCA" font-family="'Venera900'" font-size="25.2749">ebay</text>
	<circle fill="none" stroke="#A71E23" stroke-width="2" stroke-miterlimit="10" cx="991.6" cy="243.6" r="115.5"/>
	<g>
	<polyline fill="none" stroke="#A80D15" stroke-miterlimit="10" points="916.7,188.7 916.7,168.1 937.7,168.1 	"/>
	
		<line fill="none" stroke="#A80D15" stroke-miterlimit="10" stroke-dasharray="10.4,10.4" x1="973.3" y1="168.1" x2="1027.3" y2="168.1"/>
	<polyline fill="none" stroke="#A80D15" stroke-miterlimit="10" points="1045.3,168.1 1065.9,168.1 1065.9,188.7 	"/>
	<polyline fill="none" stroke="#A80D15" stroke-miterlimit="10" points="1065.9,296.6 1065.9,316.9 1045.3,316.9 	"/>
	
		<line fill="none" stroke="#A80D15" stroke-miterlimit="10" stroke-dasharray="10.4,10.4" x1="1009.6" y1="316.9" x2="955.3" y2="316.9"/>
	<polyline fill="none" stroke="#A80D15" stroke-miterlimit="10" points="937.7,316.9 916.7,316.9 916.7,296.6 	"/>
		<animateTransform  type="rotate" fill="remove" attributeName="transform" accumulate="none" calcMode="linear" dur="5s" additive="replace" to="360 991.6 243.6" from="0 991.6 243.6" restart="always" attributeType="xml" repeatCount="indefinite">
		</animateTransform>
	</g>
	<circle fill="#A71E23" cx="993.9" cy="242.3" r="55.6"/>
	<rect x="915.4" y="224.7" fill="none" width="174" height="38.3"/>
		<circle fill="none" stroke="#A71E23" stroke-width="2" stroke-miterlimit="10" cx="1069.3" cy="117.8" r="117.8"/>
	<g>
		<g>
		<polyline fill="none" stroke="#A80D15" stroke-miterlimit="10" points="992.9,61.7 992.9,40.7 1014.3,40.7 		"/>
		
			<line fill="none" stroke="#A80D15" stroke-miterlimit="10" stroke-dasharray="10.4,10.4" x1="1050.6" y1="40.7" x2="1105.7" y2="40.7"/>
		<polyline fill="none" stroke="#A80D15" stroke-miterlimit="10" points="1124,40.7 1145.1,40.7 1145.1,61.7 		"/>
		<polyline fill="none" stroke="#A80D15" stroke-miterlimit="10" points="1145.1,171.8 1145.1,192.5 1124,192.5 		"/>
		
			<line fill="none" stroke="#A80D15" stroke-miterlimit="10" stroke-dasharray="10.4,10.4" x1="1087.7" y1="192.5" x2="1032.3" y2="192.5"/>
		<polyline fill="none" stroke="#A80D15" stroke-miterlimit="10" points="1014.3,192.5 992.9,192.5 992.9,171.8 		"/>
		<animateTransform  type="rotate" fill="remove" attributeName="transform" accumulate="none" calcMode="linear" dur="5s" additive="replace" to="360 1069.3 117.8" from="0 1069.3 117.8" restart="always" attributeType="xml" repeatCount="indefinite">
		</animateTransform>
		</g>
		<circle fill="#A71E23" cx="1071.6" cy="116.5" r="56.7"/>
		<rect x="991.6" y="98.4" fill="none" width="177.5" height="39"/>
		<text transform="matrix(1 0 0 1 961.1635 111.9558)" fill="#CBCBCA" font-family="'Venera900'" font-size="34.4131">amazon</text>
	</g>
	<circle fill="none" stroke="#A71E23" stroke-width="2" stroke-miterlimit="10" cx="409.8" cy="313.7" r="41.8"/>
	<g>
		<g>
			<polyline fill="none" stroke="#A80D15" stroke-miterlimit="10" points="382.6,293.8 382.6,286.4 390.2,286.4 			"/>
			
				<line fill="none" stroke="#A80D15" stroke-miterlimit="10" stroke-dasharray="10.4,10.4" x1="403.1" y1="286.4" x2="422.7" y2="286.4"/>
			<polyline fill="none" stroke="#A80D15" stroke-miterlimit="10" points="429.2,286.4 436.6,286.4 436.6,293.8 			"/>
			
				<line fill="none" stroke="#A80D15" stroke-miterlimit="10" stroke-dasharray="10.4,10.4" x1="436.6" y1="306.9" x2="436.6" y2="326.3"/>
			<polyline fill="none" stroke="#A80D15" stroke-miterlimit="10" points="436.6,332.9 436.6,340.3 429.2,340.3 			"/>
			
				<line fill="none" stroke="#A80D15" stroke-miterlimit="10" stroke-dasharray="10.4,10.4" x1="416.3" y1="340.3" x2="396.6" y2="340.3"/>
			<polyline fill="none" stroke="#A80D15" stroke-miterlimit="10" points="390.2,340.3 382.6,340.3 382.6,332.9 			"/>
			
				<line fill="none" stroke="#A80D15" stroke-miterlimit="10" stroke-dasharray="10.4,10.4" x1="382.6" y1="319.9" x2="382.6" y2="300.4"/>
		<animateTransform  type="rotate" fill="remove" attributeName="transform" accumulate="none" calcMode="linear" dur="5s" additive="replace" to="360 409.8 313.7" from="0 409.8 313.7" restart="always" attributeType="xml" repeatCount="indefinite">
		</animateTransform>
		</g>
	</g>
	<circle fill="#A71E23" cx="410.6" cy="313.3" r="20.1"/>
	<rect x="382.2" y="306.9" fill="none" width="63" height="13.9"/>
	<text transform="matrix(1 0 0 1 378.3543 307.0704)" enable-background="new    "><tspan x="0" y="0" fill="#CBCBCA" font-family="'Venera900'" font-size="15.8548">over</tspan><tspan x="-5.8" y="19" fill="#CBCBCA" font-family="'Venera900'" font-size="15.8548">stock</tspan></text>
	<text transform="matrix(1 0 0 1 909.6879 233.9929)" fill="#CBCBCA" font-family="'Venera900'" font-size="36.7979">apple</text>
</g>
</svg>
