<?xml version="1.0" encoding="utf-8"?>
<!-- Generator: Adobe Illustrator 18.1.1, SVG Export Plug-In . SVG Version: 6.00 Build 0)  -->
<svg version="1.1" id="Layer_1" xmlns="http://www.w3.org/2000/svg" xmlns:xlink="http://www.w3.org/1999/xlink" x="0px" y="0px"
	 viewBox="0 0 960 560" enable-background="new 0 0 960 560" xml:space="preserve">
<g id="Layer_2">
	<text transform="matrix(1 0 0 1 381.8446 99.4283)" fill="#A80D15" font-family="'ArialMT'" font-size="21">     New Markets</text>
	<text transform="matrix(1 0 0 1 381.8446 467.3125)" fill="#A80D15" font-family="'ArialMT'" font-size="21">    Existing Markets</text>
	<text transform="matrix(1 0 0 1 3.7408 279.5033)" fill="#A80D15" font-family="'ArialMT'" font-size="21">Existing Products</text>
	<text transform="matrix(1 0 0 1 810.2128 279.9996)" fill="#A80D15" font-family="'ArialMT'" font-size="21">New Products</text>
	<g>
		<g>
			<line fill="none" stroke="#A80D15" stroke-width="2" stroke-miterlimit="10" x1="479.3" y1="109.4" x2="479.3" y2="113.5"/>
			
				<line fill="none" stroke="#A80D15" stroke-width="2" stroke-miterlimit="10" stroke-dasharray="12,12" x1="479.3" y1="121.7" x2="479.3" y2="442.4"/>
			<line fill="none" stroke="#A80D15" stroke-width="2" stroke-miterlimit="10" x1="479.3" y1="446.5" x2="479.3" y2="450.6"/>
		</g>
	</g>
	<g>
		<g>
			<line fill="none" stroke="#A80D15" stroke-width="2" stroke-miterlimit="10" x1="138.2" y1="256.5" x2="142.3" y2="256.5"/>
			
				<line fill="none" stroke="#A80D15" stroke-width="2" stroke-miterlimit="10" stroke-dasharray="12,12" x1="150.5" y1="256.5" x2="810.2" y2="256.5"/>
			<line fill="none" stroke="#A80D15" stroke-width="2" stroke-miterlimit="10" x1="814.3" y1="256.5" x2="818.4" y2="256.5"/>
		</g>
	</g>
	<circle fill="none" stroke="#A71E23" stroke-width="2" stroke-miterlimit="10" cx="700" cy="150" r="75"/>
	<g>
		<g>
			<polyline fill="none" stroke="#A80D15" stroke-miterlimit="10" points="651.2,114.3 651.2,100.8 664.8,100.8 			"/>
			
				<line fill="none" stroke="#A80D15" stroke-miterlimit="10" stroke-dasharray="10.4,10.4" x1="688" y1="100.8" x2="723.1" y2="100.8"/>
			<polyline fill="none" stroke="#A80D15" stroke-miterlimit="10" points="734.8,100.8 748.1,100.8 748.1,114.3 			"/>
			
				<line fill="none" stroke="#A80D15" stroke-miterlimit="10" stroke-dasharray="10.4,10.4" x1="748.1" y1="137.6" x2="748.1" y2="172.6"/>
			<polyline fill="none" stroke="#A80D15" stroke-miterlimit="10" points="748.1,184.4 748.1,197.5 734.8,197.5 			"/>
			
				<line fill="none" stroke="#A80D15" stroke-miterlimit="10" stroke-dasharray="10.4,10.4" x1="711.7" y1="197.5" x2="676.3" y2="197.5"/>
			<polyline fill="none" stroke="#A80D15" stroke-miterlimit="10" points="664.8,197.5 651.2,197.5 651.2,184.4 			"/>
			
				<line fill="none" stroke="#A80D15" stroke-miterlimit="10" stroke-dasharray="10.4,10.4" x1="651.2" y1="161.1" x2="651.2" y2="126"/>
			
				<animateTransform  type="rotate" fill="remove" calcMode="linear" accumulate="none" repeatCount="indefinite" attributeType="xml" restart="always" attributeName="transform" to="360 700 150" dur="5s" from="0 700 150" additive="replace">
				</animateTransform>
		</g>
	</g>
	<circle fill="#A71E23" cx="701.4" cy="149.1" r="36.1"/>
	<rect x="650.5" y="137.6" fill="none" width="113" height="24.9"/>
	<text transform="matrix(1 0 0 1 658.0145 157.1835)" enable-background="new    "><tspan x="0" y="0" fill="#CBCBCA" font-family="'ArialMT'" font-size="28.4476">   </tspan><tspan x="23.7" y="0" fill="#CBCBCA" font-family="'ArialMT'" font-size="21">RIM</tspan></text>
	<circle fill="none" stroke="#A71E23" stroke-width="2" stroke-miterlimit="10" cx="800" cy="400" r="75"/>
	<g>
		<polyline fill="none" stroke="#A80D15" stroke-miterlimit="10" points="751.2,364.4 751.2,350.9 764.8,350.9 		"/>
		
			<line fill="none" stroke="#A80D15" stroke-miterlimit="10" stroke-dasharray="10.4,10.4" x1="788" y1="350.9" x2="823" y2="350.9"/>
		<polyline fill="none" stroke="#A80D15" stroke-miterlimit="10" points="834.7,350.9 848.1,350.9 848.1,364.4 		"/>
		
			<line fill="none" stroke="#A80D15" stroke-miterlimit="10" stroke-dasharray="10.4,10.4" x1="848.1" y1="387.8" x2="848.1" y2="422.5"/>
		<polyline fill="none" stroke="#A80D15" stroke-miterlimit="10" points="848.1,434.5 848.1,447.6 834.7,447.6 		"/>
		
			<line fill="none" stroke="#A80D15" stroke-miterlimit="10" stroke-dasharray="10.4,10.4" x1="811.7" y1="447.6" x2="776.3" y2="447.6"/>
		<polyline fill="none" stroke="#A80D15" stroke-miterlimit="10" points="764.8,447.6 751.2,447.6 751.2,434.5 		"/>
		
			<line fill="none" stroke="#A80D15" stroke-miterlimit="10" stroke-dasharray="10.4,10.4" x1="751.2" y1="411.2" x2="751.2" y2="376.1"/>
		
			<animateTransform  type="rotate" fill="remove" calcMode="linear" accumulate="none" repeatCount="indefinite" attributeType="xml" restart="always" attributeName="transform" to="360 800 400" dur="5s" from="0 800 400" additive="replace">
			</animateTransform>
	</g>
	<circle fill="#A71E23" cx="801.4" cy="399.2" r="36.1"/>
	<rect x="296.2" y="212.9" fill="none" width="77.4" height="17"/>
	<text transform="matrix(1 0 0 1 759.8991 407.2421)" fill="#CBCBCA" font-family="'ArialMT'" font-size="18">   Cuore</text>
	<circle fill="none" stroke="#A71E23" stroke-width="2" stroke-miterlimit="10" cx="300" cy="193.7" r="75"/>
	<g>
		<polyline fill="none" stroke="#A80D15" stroke-miterlimit="10" points="251.3,158 251.3,144.6 264.9,144.6 		"/>
		<polyline fill="none" stroke="#A80D15" stroke-miterlimit="10" points="334.8,144.6 348.2,144.6 348.2,158 		"/>
		
			<line fill="none" stroke="#A80D15" stroke-miterlimit="10" stroke-dasharray="10.4,10.4" x1="348.2" y1="181.4" x2="348.2" y2="216.2"/>
		<polyline fill="none" stroke="#A80D15" stroke-miterlimit="10" points="348.2,228.1 348.2,241.3 334.8,241.3 		"/>
		
			<line fill="none" stroke="#A80D15" stroke-miterlimit="10" stroke-dasharray="10.4,10.4" x1="311.6" y1="241.3" x2="276.4" y2="241.3"/>
		<polyline fill="none" stroke="#A80D15" stroke-miterlimit="10" points="264.9,241.3 251.3,241.3 251.3,228.1 		"/>
		
			<line fill="none" stroke="#A80D15" stroke-miterlimit="10" stroke-dasharray="10.4,10.4" x1="251.3" y1="204.7" x2="251.3" y2="169.6"/>
		
			<animateTransform  type="rotate" fill="remove" calcMode="linear" accumulate="none" repeatCount="indefinite" attributeType="xml" restart="always" attributeName="transform" to="360 300 193.7" dur="5s" from="0 300 193.7" additive="replace">
			</animateTransform>
	</g>
	<circle fill="#A71E23" cx="301.5" cy="192.8" r="36.1"/>
	<rect x="250.4" y="181.4" fill="none" width="113" height="24.9"/>
	<text transform="matrix(1 0 0 1 251.4179 200.6803)" enable-background="new    "><tspan x="0" y="0" fill="#CBCBCA" font-family="'ArialMT'" font-size="23.9044">  </tspan><tspan x="13.3" y="0" fill="#CBCBCA" font-family="'ArialMT'" font-size="14">  Microsoft</tspan></text>
	<circle fill="none" stroke="#A71E23" stroke-width="2" stroke-miterlimit="10" cx="500" cy="280" r="75"/>
	<g>
		<polyline fill="none" stroke="#A80D15" stroke-miterlimit="10" points="451.4,244.4 451.4,231 465,231 		"/>
		
			<line fill="none" stroke="#A80D15" stroke-miterlimit="10" stroke-dasharray="10.4,10.4" x1="488.1" y1="231" x2="523.2" y2="231"/>
		<polyline fill="none" stroke="#A80D15" stroke-miterlimit="10" points="534.9,231 548.2,231 548.2,244.4 		"/>
		<polyline fill="none" stroke="#A80D15" stroke-miterlimit="10" points="548.2,314.4 548.2,327.6 534.9,327.6 		"/>
		
			<line fill="none" stroke="#A80D15" stroke-miterlimit="10" stroke-dasharray="10.4,10.4" x1="511.7" y1="327.6" x2="476.4" y2="327.6"/>
		<polyline fill="none" stroke="#A80D15" stroke-miterlimit="10" points="465,327.6 451.4,327.6 451.4,314.4 		"/>
		
			<animateTransform  type="rotate" fill="remove" calcMode="linear" accumulate="none" repeatCount="indefinite" attributeType="xml" restart="always" attributeName="transform" to="360 500 280" dur="5s" from="0 500 280" additive="replace">
			</animateTransform>
	</g>
	<circle fill="#A71E23" cx="501.5" cy="279.2" r="36.1"/>
	<rect x="450.5" y="267.7" fill="none" width="113" height="24.9"/>
	<circle fill="none" stroke="#A71E23" stroke-width="2" stroke-miterlimit="10" cx="550" cy="350" r="75"/>
	<g>
		<g>
			<polyline fill="none" stroke="#A80D15" stroke-miterlimit="10" points="501.4,314.3 501.4,300.9 515,300.9 			"/>
			
				<line fill="none" stroke="#A80D15" stroke-miterlimit="10" stroke-dasharray="10.4,10.4" x1="538.1" y1="300.9" x2="573.2" y2="300.9"/>
			<polyline fill="none" stroke="#A80D15" stroke-miterlimit="10" points="584.8,300.9 598.3,300.9 598.3,314.3 			"/>
			<polyline fill="none" stroke="#A80D15" stroke-miterlimit="10" points="598.3,384.4 598.3,397.6 584.8,397.6 			"/>
			
				<line fill="none" stroke="#A80D15" stroke-miterlimit="10" stroke-dasharray="10.4,10.4" x1="561.7" y1="397.6" x2="526.4" y2="397.6"/>
			<g>
				<polyline fill="none" stroke="#A80D15" stroke-miterlimit="10" points="514.4,396.6 501.4,396.6 501.4,384 				"/>
			</g>
			
				<animateTransform  type="rotate" fill="remove" calcMode="linear" accumulate="none" repeatCount="indefinite" attributeType="xml" restart="always" attributeName="transform" to="360 550 350" dur="5s" from="0 550 350" additive="replace">
				</animateTransform>
		</g>
		<circle fill="#A71E23" cx="551.5" cy="349.2" r="36.1"/>
		<rect x="500.5" y="337.6" fill="none" width="113" height="24.8"/>
		<text transform="matrix(1 0 0 1 519.4922 350.0635)" fill="#CBCBCA" font-family="'ArialMT'" font-size="19.6374">Google</text>
	</g>
	<circle fill="none" stroke="#A71E23" stroke-width="2" stroke-miterlimit="10" cx="600" cy="130" r="75"/>
	<g>
		<g>
			<polyline fill="none" stroke="#A80D15" stroke-miterlimit="10" points="551.2,94.3 551.2,81 564.8,81 			"/>
			<line fill="none" stroke="#A80D15" stroke-miterlimit="10" stroke-dasharray="10.4,10.4" x1="588" y1="81" x2="623.1" y2="81"/>
			<polyline fill="none" stroke="#A80D15" stroke-miterlimit="10" points="634.8,81 648.1,81 648.1,94.3 			"/>
			
				<line fill="none" stroke="#A80D15" stroke-miterlimit="10" stroke-dasharray="10.4,10.4" x1="648.1" y1="117.8" x2="648.1" y2="152.6"/>
			<polyline fill="none" stroke="#A80D15" stroke-miterlimit="10" points="648.1,164.4 648.1,177.7 634.8,177.7 			"/>
			
				<line fill="none" stroke="#A80D15" stroke-miterlimit="10" stroke-dasharray="10.4,10.4" x1="611.7" y1="177.7" x2="576.3" y2="177.7"/>
			<polyline fill="none" stroke="#A80D15" stroke-miterlimit="10" points="564.8,177.7 551.2,177.7 551.2,164.4 			"/>
			
				<line fill="none" stroke="#A80D15" stroke-miterlimit="10" stroke-dasharray="10.4,10.4" x1="551.2" y1="141.1" x2="551.2" y2="106.1"/>
			
				<animateTransform  type="rotate" fill="remove" calcMode="linear" accumulate="none" repeatCount="indefinite" attributeType="xml" restart="always" attributeName="transform" to="360 600 130" dur="5s" from="0 600 130" additive="replace">
				</animateTransform>
		</g>
	</g>
	<circle fill="#A71E23" cx="601.4" cy="129.3" r="36.1"/>
	<rect x="550.5" y="117.8" fill="none" width="113" height="24.9"/>
	<text transform="matrix(1 0 0 1 508.1708 113.5322)" enable-background="new    "><tspan x="0" y="0" fill="#CBCBCA" font-family="'ArialMT'" font-size="28.4476">    </tspan><tspan x="0" y="16.8" fill="#CBCBCA" font-family="'ArialMT'" font-size="14" letter-spacing="60">	</tspan><tspan x="64.6" y="16.8" fill="#CBCBCA" font-family="'ArialMT'" font-size="14">Samsung</tspan></text>
	<text transform="matrix(1 0 0 1 445.4475 282.0421)" fill="#CBCBCA" font-family="'ArialMT'" font-size="23.8947">    Apple</text>
</g>
<line fill="none" stroke="#A80D15" stroke-miterlimit="10" stroke-dasharray="10.4,10.4" x1="279" y1="143.5" x2="314.1" y2="143.5"/>
</svg>
