<?xml version="1.0" encoding="utf-8"?>
<!-- Generator: Adobe Illustrator 18.1.0, SVG Export Plug-In . SVG Version: 6.00 Build 0)  -->
<!DOCTYPE svg PUBLIC "-//W3C//DTD SVG 1.1//EN" "http://www.w3.org/Graphics/SVG/1.1/DTD/svg11.dtd">
<svg version="1.1" id="Layer_1" xmlns="http://www.w3.org/2000/svg" xmlns:xlink="http://www.w3.org/1999/xlink" x="0px" y="0px"
	 viewBox="0 0 100 100" enable-background="new 0 0 100 100" xml:space="preserve">
<path fill="#A90D15" d="M56.2,39.4c0-1.9-0.2-3.8,0-5.7c0.3-3,2.9-5.3,5.9-5.4c3.1-0.1,5.8,1.9,6.5,4.8c0.1,0.6,0.2,1.2,0.2,1.7
	c0,1.5,0,3,0,4.6H72c0-0.8,0-1.6,0-2.4c0-1.3,0-2.6-0.2-3.9c-0.7-4.1-4-7.2-8-7.8c-0.1,0-0.2-0.1-0.4-0.1c-0.7,0-1.3,0-2,0
	c-0.4,0.1-0.8,0.2-1.3,0.3c-4.4,1.1-7.3,4.8-7.3,9.3c0,1.4,0,2.8,0,4.2c0,0.2,0,0.4,0,0.6h8.3C59.6,39.4,57.9,39.4,56.2,39.4z">
	<animate id="1" attributeName="opacity"
            from="1" to="0" dur="2s"
            repeatcount="indefinite" fill="freeze" begin="0; 2.end+2s"/>
    <animate id="2" attributeName="opacity"
            from="0" to="1" dur="2s" 
            repeatcount="indefinite" fill="freeze" begin="3.end+2s"/>
</path>
<path d="M53.9,39.3h3.2c0,0,0,0,0-0.1L53.9,39.3L53.9,39.3z"/>
<path fill="#A90D15" d="M57.1,39.4C57.1,39.4,57.1,39.3,57.1,39.4h-3.2l0,0c-1.6,0-3.2,0-4.8,0l-11.3,0.1l11.3-0.1
	c-0.9,0-1.9,0-2.8,0H38l0,0c-1.3,0.1-2.3,0.7-2.9,1.8c-0.1,0.3-0.2,0.6-0.3,0.9c0,5.7,0,11.3,0,17c0.3,1,0.7,1.9,1.7,2.3
	c0.5,0.2,1.1,0.4,1.6,0.4c6.3,0,12.7,0,19,0c1.9,0,3.3-1.4,3.3-3.3c0-5.3,0-10.6,0-15.8C60.3,40.8,59.2,39.7,57.1,39.4z M57.1,58.6
	c-6.4,0-12.8,0-19.1,0c0-5.3,0-10.6,0-15.9c6.4,0,12.7,0,19.1,0C57.1,47.9,57.1,53.2,57.1,58.6z"/>
<path fill="#FFFFFF" d="M60.4,39.2h-3.3c0,0,0,0,0,0.1L60.4,39.2C60.4,39.3,60.4,39.3,60.4,39.2z"/>
<path fill="#FFFFFF" d="M57.1,39.3C57.1,39.3,57.1,39.4,57.1,39.3c2.1,0.4,3.2,1.5,3.2,3.3c0,5.3,0,10.6,0,15.8
	c0,1.9-1.4,3.3-3.3,3.3c-6.3,0-12.7,0-19,0c-0.5,0-1.1-0.2-1.6-0.4c-1-0.4-1.5-1.3-1.7-2.3c0,0.9,0,1.9,0,2.8c8.6,0,17.1,0,25.7,0
	c0-7.5,0-15,0-22.6L57.1,39.3z"/>
<path fill="#FFFFFF" d="M34.7,39.4c0,0.9,0,1.8,0,2.7c0.1-0.3,0.2-0.6,0.3-0.9c0.6-1.2,1.6-1.7,2.9-1.8l0,0H34.7z"/>
<path fill="#FFFFFF" d="M57.1,58.6c-6.4,0-12.8,0-19.1,0c0-5.3,0-10.6,0-15.9c6.4,0,12.7,0,19.1,0C57.1,47.9,57.1,53.2,57.1,58.6z
	 M45.9,53L45.9,53c0,0.3,0,0.6,0,0.8c0,0.9,0.7,1.6,1.6,1.6c0.9,0,1.6-0.7,1.6-1.6c0-0.4,0-0.9,0-1.3c0-0.5,0.1-0.8,0.5-1.2
	c1.4-1.1,1.4-3.2,0.2-4.5s-3.3-1.3-4.6-0.1s-1.3,3.4,0,4.5c0.5,0.5,0.7,0.9,0.6,1.6C45.9,52.9,45.9,52.9,45.9,53z"/>
<path fill="#FFFFFF" d="M50,39.4h3.9l0,0"/>
<path fill="#FFFFFF" d="M50,39.4h-0.9c1.6,0,3.2,0,4.8,0l0,0H50z"/>
<path fill="#FFFFFF" d="M50,39.4h-3.7c0.9,0,1.9,0,2.8,0H50z"/>
<path fill="#A90D15" d="M45.9,53L45.9,53c0.1-0.7-0.1-1.2-0.6-1.7c-1.3-1.2-1.3-3.3,0-4.5c1.3-1.3,3.4-1.2,4.6,0.1
	c1.2,1.3,1.2,3.4-0.2,4.5c-0.4,0.3-0.6,0.7-0.5,1.2c0,0.4,0,0.9,0,1.3c0,0.9-0.7,1.6-1.6,1.6c-0.9,0-1.6-0.7-1.6-1.6
	C45.9,53.5,45.9,53.2,45.9,53L45.9,53z"/>
<path fill="#A90D15" d="M40.6,39.4c0-1.9-0.2-3.8,0-5.7c0.3-3,2.9-5.3,5.9-5.4c3.1-0.1,5.8,1.9,6.5,4.8c0.1,0.6,0.2,1.2,0.2,1.7
	c0,1.5,0,3,0,4.6h3.2c0-0.8,0-1.6,0-2.4c0-1.3,0-2.6-0.2-3.9c-0.7-4.1-4-7.2-8-7.8c-0.1,0-0.2-0.1-0.4-0.1c-0.7,0-1.3,0-2,0
	c-0.4,0.1-0.8,0.2-1.3,0.3c-4.4,1.1-7.3,4.8-7.3,9.3c0,1.4,0,2.8,0,4.2c0,0.2,0,0.4,0,0.6h8.3C44,39.4,42.3,39.4,40.6,39.4z">
<animate id="3" attributeName="opacity"
            from="0" to="1" dur="2s"
            repeatcount="indefinite" fill="freeze" begin="0;4.end+2s"/>
<animate id="4" attributeName="opacity"
            from="1" to="0" dur="2s"
            repeatcount="indefinite" fill="freeze" begin="3.end+2s"/>
</path>
</svg>
