<?xml version="1.0" encoding="utf-8"?>
<!-- Generator: Adobe Illustrator 18.0.0, SVG Export Plug-In . SVG Version: 6.00 Build 0)  -->
<!DOCTYPE svg PUBLIC "-//W3C//DTD SVG 1.1//EN" "http://www.w3.org/Graphics/SVG/1.1/DTD/svg11.dtd">
<svg version="1.1" id="Layer_1" xmlns="http://www.w3.org/2000/svg" xmlns:xlink="http://www.w3.org/1999/xlink" x="0px" y="0px"
	 viewBox="0 0 500 170" enable-background="new 0 0 500 170" xml:space="preserve">
<g>
	<g>
		
			<text transform="matrix(1 0 0 1 103.2978 87.9263)" fill="#CDCCCC" font-family="'Venera900'" font-size="79.7593" letter-spacing="-3">CUO</text>
		<g>
			<path fill="#CDCCCC" d="M387.8,61l-48.2,0v28.1h11.4V71.1h35.7c7.3,0,8.9,3.9,8.9,6.9v11h11.8V78.3C407.7,70,402,61.8,387.8,61z"
				/>
			<path fill="#CDCCCC" d="M405.6,61c3.2,1.2,5,2.9,6.8,5h0.6c7.1-2.1,11.2-6.8,11.2-14.4c0-10.9-8.3-17-21.7-17h-36.1l0.1,10h36.8
				c7,0,9.2,4.6,9.2,8.2c0,3.2-1.7,7.1-6.9,8C405.6,60.9,405.6,60.9,405.6,61"/>
		</g>
		<g>
			<path fill="#CDCCCC" d="M440.7,57.3l-11.3,0c-0.2,1.6-0.2,3.2-0.2,5c0,17.7,6.7,26.9,25.9,26.9h42.6V78.4h-42.6
				c-10.5,0-13.7-3.9-14.5-11.1h56.1V57.3H440.7z"/>
			<path fill="#CDCCCC" d="M442.2,51.3h-11.8c2.6-10.5,10-15.8,24.7-15.8h42.6v10.7h-42.6C447.8,46.2,444.1,47.7,442.2,51.3z"/>
		</g>
	</g>
	<g>
		<path fill="#A81F23" d="M57.7,33.5l5.9,8.4l9.9-26.2L46.4,15l5.2,8.5L50,24.4c0,0-16.8-14.9-33.3-7.2C1,23.3,1,46.1,1,46.1
			l17.1,5.2c0,0-0.7-13.9,9.8-18.9c10.3-4.3,21.9,5.6,21.9,5.6L57.7,33.5z"/>
		<path fill="#A81F23" d="M60.4,67l8.9,8.3c0,0,12.5-13.4,12.5-24.8c0-13.4-12.8-17.3-12.8-17.3l6.5-17c0,0,23.4,6.5,24.1,26.6
			c0.8,18.3-20.8,40.5-20.8,40.5l8.8,8.4l-27.2,3.9V67z"/>
		<path fill="#A81F23" d="M31.5,57.5L4.5,49l1,28.5l8.1-6.3c0,0,6.7,7.7,14,14.7c7.6,7.2,15.8,13.6,15.8,13.6l15.3-3.4
			c0,0-11-8.5-20.5-17.2c-8.1-7.3-14.9-15-14.9-15L31.5,57.5z"/>
	</g>
</g>
</svg>
