<?xml version="1.0" encoding="utf-8"?>
<!-- Generator: Adobe Illustrator 18.1.0, SVG Export Plug-In . SVG Version: 6.00 Build 0)  -->
<!DOCTYPE svg PUBLIC "-//W3C//DTD SVG 1.1//EN" "http://www.w3.org/Graphics/SVG/1.1/DTD/svg11.dtd">
<svg version="1.1" id="Layer_1" xmlns="http://www.w3.org/2000/svg" xmlns:xlink="http://www.w3.org/1999/xlink" x="0px" y="0px"
	 viewBox="0 0 1410 559" enable-background="new 0 0 1410 559" xml:space="preserve">
<path fill="#A90D15" d="M335.5,257.3c0.6,0,1.1,0,1.9,0c0.2-1.2,0.4-2.4,0.6-3.6c0.9-0.2,1.5-0.7,1.6-1.7c0.1-0.8,0-2,1.4-2
	c0.1-1.5,2.2-1.6,2.4-3c0-0.2,0.4-0.5,0.6-0.6c0.9-0.1,0.9-1,1.3-1.2c1.4-0.6,1.9-2.5,3.6-2.6c0.8-0.1,1.7,0,1.8-1.2
	c0-0.2,0.4-0.4,0.7-0.6c0.1,0,0.2,0,0.2,0c1.3-0.9,2.6-2.2,4.4-2.1c0.4-1.7,1.8-1.4,3-1.7c0.2,0,0.6-0.1,0.6-0.3
	c0.3-1.6,1.6-1.2,2.7-1.5c0.4-0.1,1.1-0.2,1.1-0.5c0.4-1.3,1.4-1.1,2.4-1.2c1.2-0.2,2.4-0.2,3.2-1.4c0.3-0.5,1.3-0.4,2.1-0.6
	s1.6,0,2-1.1c0.1-0.4,0.8-0.7,1.2-0.8c0.9-0.2,1.6-0.2,2.5-0.3c0.5,0,1.1,0.1,1.3-0.2c1.3-1.9,3.3-1.4,5.1-1.6c1-0.1,2.1,0,2.7-1.2
	c0.1-0.3,0.8-0.4,1.2-0.4c1.1-0.1,2.3-0.1,3.4-0.3c0.6-0.1,1.4-0.1,1.7-0.5c0.9-1.2,2.3-1,3.5-1.1c1.3-0.1,2.6-0.1,3.9-0.2
	c1-0.1,2,0,2.8-1c0.4-0.5,1.4-0.5,2.1-0.6c1.7-0.1,3.3-0.1,5-0.2c1.5-0.1,2.9,0,4.3-1c0.7-0.6,2-0.5,3-0.6c3.5-0.1,7-0.2,10.4-0.3
	c1,0,2.1,0.1,2.9-0.8c0.4-0.4,1.2-0.4,1.9-0.5c2-0.1,4-0.3,5.9-0.3c10.5,0,21.1,0,31.7,0c1.7,0,3.5,0.2,5.2,0.3c0.6,0,1.2,0,1.5,0.3
	c1.3,1.1,2.9,0.9,4.6,1c3.2,0.1,6.4,0.1,9.6,0.3c1.3,0.1,2.8,0,3.8,1.1c0.3,0.4,1.1,0.3,1.7,0.4c2.1,0.1,4.3,0.1,6.4,0.3
	c1,0.1,2.1,0,2.8,1c0.3,0.4,1,0.5,1.6,0.5c1.6,0.1,3.2,0.1,4.7,0.2c1.1,0.1,2.2,0,3.1,1c0.4,0.4,1.2,0.5,1.9,0.6
	c1.1,0.1,2.3,0.1,3.4,0.3c0.5,0,1.1,0.1,1.2,0.3c0.9,1.5,2.3,1.2,3.6,1.3c1.5,0.1,2.9,0.1,4.1,1.4c0.4,0.5,1.5,0.3,2.4,0.5
	c1.2,0.2,2.7-0.1,3.1,1.5c0,0.1,0.2,0.3,0.3,0.3c2.7-0.4,4.2,2.5,6.8,2.2c0.7-0.1,1.7-0.2,2,1c0.1,0.3,0.7,0.5,1,0.6
	c0.8,0.2,1.5,0.2,2,0.3c0.6,0.6,0.9,1.3,1.5,1.4c1.1,0.4,2.6,0.1,3,1.7c0.1,0.2,0.7,0.2,1,0.3c0.9,0.3,2.1,0,2.2,1.4
	c0,0.2,0.5,0.4,0.7,0.5c0.7,0.1,1.1,0.2,1.2,1c0,0.3,0.5,0.7,0.8,0.7c1.2,0.2,2.5,0.3,2.8,1.8c1.7-0.2,1.5,2.4,3.2,2.2
	c-0.1,1.6,2.2,1.4,2.2,2.9c1.5,0.9,2.3,2.2,2.6,3.8c0.1,0.3,0.8,0.4,1.2,0.6c0.1,0.8,0.2,1.5,0.3,2.3c0.1,0.4,0,0.9,0.2,1
	c1.9,1,1.3,2.9,1.4,4.5c0.1,8.2,0.1,16.4,0.1,24.6c0,0.9,0,1.6,0,2.5c1.9,0.5,92,0.6,94.6,0.1c0-0.7,0-1.4,0-2.2c0-3.5,0-7,0-10.4
	c0-0.6,0-1,0-1.6c0.3-3.3,2.3-5.3,5.6-5.3c12,0,24.1,0,36.2,0c3.5,0,5.4,2,5.5,5.6c0.1,2.8,0,5.6,0,8.4c0,0.8,0.1,1.5,0.1,2.3
	c32.5,0,65,0,97.4,0c3.2-11.5,10.7-17.7,22.8-18.6c1.4-9,5.9-15.9,13.7-20.7s16.1-5.1,24.8-2.5c6-16.5,17.2-27.2,34.2-30.7
	c17.1-3.4,31.5,2.3,43.3,15.1c31-23,62-45.8,93-68.7c0.8,1,1.4,2,2.3,3c-31,22.9-61.9,45.7-93.1,68.8c4.6,6.9,7.3,14.4,8.1,22.7
	c6,1.8,11.3,4.6,15.3,9.5c4.1,4.7,6.4,10.2,7.2,16.6c33.2,0,66.2,0,99.5,0c0,1.3,0,2.4,0,3.8c-6.5,0.1-13.1,0-19.7,0
	c-6.6,0-13.2,0-19.8,0c-6.6,0-13.4,0-20,0c-6.6,0-13.2,0-19.8,0c-6.5,0-13.2,0-20,0c-0.7,9.9-4.9,17.6-13,23.7
	c24.2,29,48.4,57.9,72.7,87c-1,0.9-1.9,1.6-2.9,2.5c-24.5-29.2-48.8-58.3-73.1-87.5c-8.8,4-17.6,4.1-26.4,0.1
	c-0.5,0.7-0.9,1.2-1.3,1.9c-4.4,6.4-10.2,10.7-17.7,12c-9,1.6-17.4-0.1-24.5-6.3c-0.5-0.4-0.9-0.8-1.3-1.1
	c-17.6,17.2-44.5,13.5-57.5-3.9c-6.2,1-12-0.1-17.3-3.8s-8.3-8.6-9.5-15c-32.4,0-64.8,0-97.4,0c0,0.9-0.1,1.6-0.1,2.5
	c0,4.8,0,9.7,0,14.6c0,4.2-1.9,6.1-6.2,6.1c-11.6,0-23.2-0.1-34.8,0.1c-3.9,0-6.5-2.4-6.4-6.3c0.1-3.7,0-7.4,0-11.2
	c0-0.8,0-1.5,0-2.4c-0.9-0.1-1.5-0.1-2.2-0.1c-30.2,0-60.2,0-90.4,0c-1.5,0-2.5,0.8-3.5,1.6c-0.1,0.9-0.3,1.9-0.4,3
	c-0.8,0.3-1.6,0.5-1.7,1.7c-0.1,0.8-1.1,1.4-1.7,2.2c-0.6,0.8-0.4,2.2-1.9,2.1c0,1.7-2.6,1.5-2.4,3.3c-1.3,0.3-2.3,1-3.3,1.7
	c-1.2,0.8-2,2.4-3.8,2.6c-1.2,0.1-2,1.7-3.3,2c-0.2,0-0.3,0.7-0.4,1.1c-0.8,0.1-1.4,0.2-2.2,0.4c-0.3,0.1-0.8,0.1-0.9,0.2
	c-0.6,1.5-1.9,1.5-3.1,1.6c-0.2,0-0.6,0.1-0.6,0.2c-0.6,1.7-2.1,1.3-3.4,1.5c-0.5,0.1-1.2,0.2-1.5,0.5c-1.1,1.3-2.6,1.2-4.1,1.4
	c-0.5,0-1.2,0.2-1.5,0.5c-0.9,1.3-2.4,1.1-3.6,1.3c-0.4,0-0.9,0.2-0.9,0.4c-0.8,1.3-2,1.2-3.2,1.2c-0.9,0.1-1.7,0.1-2.5,0.3
	c-0.5,0.1-1.1,0.2-1.2,0.5c-0.6,1.6-2,1.3-3.2,1.4c-1,0.1-2.1,0-3.1,0.2c-0.6,0.1-1.1,0.5-1.7,0.8c-0.9,0.3-1.7,0.7-2.6,0.8
	c-1.3,0.2-2.8,0.1-4.1,0.3c-0.9,0.1-1.7,0.1-2.5,0.9c-0.5,0.5-1.5,0.6-2.3,0.7c-2.1,0.2-4.1,0.2-6.2,0.3c-0.9,0.1-1.7,0.2-2.5,0.9
	c-0.7,0.6-1.8,0.7-2.8,0.7c-3.7,0.2-7.4,0.2-11.2,0.3c-1.1,0-2.2,0-3.2,0.9c-0.5,0.4-1.4,0.5-2.2,0.5c-8.8,0.2-17.6,0.4-26.4,0.4
	c-5.2,0-10.4-0.2-15.7-0.4c-0.9,0-1.8-0.6-2.8-0.8c-0.8-0.2-1.4-0.4-2.2-0.5c-3.5-0.1-7-0.1-10.4-0.3c-1.5-0.1-3.2,0.1-4.4-1.3
	c-0.3-0.3-0.9-0.3-1.5-0.3c-1.7-0.1-3.5-0.1-5.2-0.2c-1.5-0.1-3.2,0.2-4.4-1.3c-0.3-0.4-1.1-0.3-1.7-0.4c-1.4-0.1-2.9,0-4.3-0.3
	c-0.9-0.2-1.8-0.7-2.7-1c-0.5-0.2-0.9-0.5-1.4-0.5c-1.1-0.1-2.3-0.1-3.4-0.2c-1.1-0.1-2.4,0.1-3.1-1.3c-0.3-0.5-1.3-0.6-2.1-0.8
	c-0.9-0.2-1.8-0.1-2.8-0.2c-0.5-0.1-1.1-0.1-1.2-0.4c-0.8-1.5-2.1-1.2-3.3-1.4c-0.5-0.1-0.9-0.4-1.4-0.6c-0.3-0.2-0.6-0.6-0.9-0.7
	c-1.3-0.3-2.8-0.1-4-0.7c-1.1-0.7-2-1.6-3.5-1.6c-1,0-2.2,0.1-2.7-1.3c-0.1-0.2-0.7-0.3-0.9-0.4c-1-0.3-2.2-0.1-2.8-1.4
	c-0.3-0.6-1.8-0.5-3-0.8c-0.4-0.5-0.8-1.1-1.7-1.6c-1.2-0.7-2.4-1.7-3.9-1.9c-0.2-1.1-1.5-1.2-1.9-1.8c-0.9-1.5-2.4-1.4-3.7-2
	c-0.2-0.8-0.3-1.5-1.4-1.7c-0.4,0-0.6-1.3-0.9-1.3c-1.7-0.1-1.5-2-2.8-2.7c-0.7-0.4-0.8-1.8-1.2-2.9c-0.3-0.1-0.8-0.3-1.2-0.5
	c-0.2-1-0.3-2-0.5-3.3c-0.7,0-1.3,0-1.9,0C335.5,284.3,335.5,270.7,335.5,257.3z M698.2,295.6c-1.8,0.2-3.5,0.4-5.2,0.6
	c-1.1,0.1-1.5,0.8-1.6,1.8c-0.1,1.7,0.4,2.4,2.1,2.5c1.6,0.1,3.1,0.2,4.6,0.3c0.3,1.3,0.5,2.4,0.7,3.3c0.4,0.1,0.5,0.1,0.6,0.1
	c2.6-1,4.4-3.2,6.2-5.2c0.6-0.6,0.3-1.3-0.3-1.8c-1.6-1.5-3.2-2.9-4.8-4.5c-0.3-0.3-0.8-0.3-1.5-0.6
	C698.6,293.3,698.4,294.3,698.2,295.6z M698.2,279.2c-1.7,0.1-3.3,0.2-5,0.4c-1.5,0.2-1.9,0.6-1.9,2c-0.1,1.6,0.3,2.2,2,2.4
	c1.6,0.2,3.3,0.3,4.8,0.4c0.3,1.2,0.5,2.3,0.7,3.3c0.5,0,0.6,0.1,0.8,0c2.4-1.2,4.2-3.2,5.9-5.2c0.6-0.7,0.3-1.3-0.2-1.8
	c-1.6-1.5-3.3-3-5-4.6c-0.3-0.3-0.8-0.2-1.4-0.4C698.6,276.9,698.4,277.8,698.2,279.2z M680.5,289.9c1.9-0.2,3.6-0.4,5.3-0.5
	c1.2-0.1,1.7-0.9,1.7-2c0-1.6-0.4-2.2-2.1-2.4s-3.4,0-5-0.7c-0.2-1.1-0.3-2-0.4-3.1c-0.6,0.1-1,0-1.2,0.3c-1.8,1.6-3.6,3.2-5.3,4.8
	c-0.7,0.7-0.4,1.4,0.2,2c1.5,1.4,3,2.9,4.6,4.3c0.4,0.4,1,0.4,1.7,0.7C680.2,292.1,680.4,291.1,680.5,289.9z M680.5,306.2
	c1.7-0.1,3.3-0.1,4.8-0.3c1.6-0.1,2.1-0.6,2.2-2c0.1-1.6-0.3-2.2-2-2.4c-1.1-0.2-2.3-0.2-3.4-0.3c-0.6-0.1-1.1-0.2-1.7-0.3
	c-0.2-1.2-0.3-2.2-0.5-3.2c-0.5,0-0.8-0.1-0.9,0c-1.9,1.7-3.9,3.3-5.8,5.1c-0.6,0.6-0.4,1.3,0.2,1.8c1.7,1.5,3.3,3,5,4.6
	c0.3,0.3,0.9,0.2,1.4,0.4C680.2,308.6,680.3,307.6,680.5,306.2z"/>
<path fill="#A90D15" d="M553.6,583.1c0-0.9-0.1-2-0.1-2.9c0-21.9,0-43.8,0-65.7c0-0.9,0-1.8,0-2.9c-36.2,0-72.3,0-108.4,0
	c-0.1-2.3-0.3-4.4-0.3-6.4c0-38.9,0-77.9,0-116.8c0-0.9,0-1.9,0-3.1c-1-0.1-1.8-0.1-2.7-0.1c-4.6-0.1-9.3-0.1-13.9-0.2
	c-1.1,0-2.3-0.6-3.5-0.8c-1-0.2-2.1-0.6-3.1-0.6c-3.7-0.2-7.4-0.2-11.1-0.4c-1,0-2,0-2.9-0.9c-0.5-0.5-1.5-0.6-2.4-0.6
	c-2-0.1-4-0.1-5.9-0.3c-1-0.1-2.2,0.2-2.7-1.2c-0.1-0.3-0.9-0.5-1.4-0.5c-1.3-0.1-2.8-0.2-4.1-0.3c-1.2-0.1-2.6,0-3.5-1.2
	c-0.2-0.3-0.9-0.3-1.2-0.4c-1.3-0.1-2.6-0.1-3.9-0.2c-0.9-0.1-1.8,0.1-2.4-1c-0.1-0.3-0.8-0.5-1.1-0.5c-0.9-0.1-1.8-0.2-2.8-0.3
	c-0.6-0.1-1.3,0-1.8-0.3c-1.4-1-2.8-1.7-4.6-1.6c-1.4-2-3.6-1.6-5.5-1.8c-0.2,0-0.4-0.1-0.4-0.2c-0.7-1.7-2.3-1.3-3.6-1.7
	c-1-0.3-1.8-1.2-2.8-1.6c-0.9-0.4-2.3-0.1-2.9-1.3c-0.2-0.4-1.1-0.5-1.8-0.6c-0.8-0.2-1.7,0-1.9-1.2c0-0.1-0.2-0.4-0.3-0.4
	c-1.5-0.1-2.5-1.2-3.7-2c-0.8-0.5-1.4-0.6-1.8-1.6c-0.3-0.6-1.7-0.2-1.8-1.3c0-0.2-0.5-0.5-0.9-0.6c-0.8-0.2-1.4-0.4-2.3-0.6
	c-0.4-0.6-0.3-1.7-1.4-1.7c-0.2,0-0.5-0.5-0.7-0.8c-0.3-0.4-0.7-0.7-0.9-1c-0.3-0.3-0.8-0.6-0.8-0.9c-0.1-0.8-0.5-1.1-1-1.5
	c-0.5-0.4-0.9-1.2-0.9-2c-0.1-0.9-0.7-1.3-1.6-1.3c-0.2-1.1-0.4-2.3-0.6-3.5c-0.7-0.1-1.3-0.1-1.9-0.2c0-12.1,0-24.3,0-36.4
	c0.6,0,1.2,0.1,1.9,0.1c0.1,0.8,0.5,1.4,0.4,2.1c-0.4,1.5,1.6,1.1,1.7,2.3c0.1,0.9,0,2.1,1.1,2.5l2.7,3.2c0.1,0.2,0.2,0.5,0.4,0.5
	c1.6,0.5,2.5,1.9,3.6,2.9c0.5,0.4,1,0.7,1.6,0.9c0.8,0.3,1.6,0.2,2,1.4c0.3,0.8,2,0.7,2.6,1.8c2.3,0.1,3.6,2.8,6,2.5
	c0.2,0.6,0.4,1.1,0.6,1.6c0.4,0.1,0.7,0.1,0.9,0.2c1.1,0.2,2.4,0,3.1,1.3c0.2,0.4,1.2,0.5,1.9,0.6c1,0.2,2,0.3,2.8,1.2
	c0.5,0.5,1.4,0.5,2.3,0.7c0.8,0.1,1.7-0.1,2,1c0.1,0.3,0.7,0.5,1.1,0.6c0.9,0.1,2,0.1,2.9,0.3c0.7,0.1,1.5,0.1,1.9,0.5
	c1.1,1.2,2.5,1.1,3.9,1.3c1,0.1,2.1,0.1,2.8,1.2c0.1,0.3,0.8,0.3,1.2,0.4c0.9,0.1,2,0.1,2.9,0.2c0.8,0.1,1.7,0.1,2.2,0.6
	c1,1.1,2.3,1,3.5,1.1c1.1,0.1,2.3,0.1,3.4,0.2c0.7,0.1,1.5,0,2,0.4c2,1.6,4.3,1.1,6.5,1.3c0.9,0.1,2,0,2.9,0.1c0.7,0.1,1.5,0,2,0.4
	c1.6,1.5,3.5,1.1,5.3,1.2c3.2,0.2,6.4,0.2,9.6,0.4c0.9,0.1,1.8,0.7,2.8,0.9c0.8,0.2,1.6,0.4,2.4,0.5c11.3,0.1,22.6,0.1,34,0.2
	c2.7,0,5.3-0.1,8-0.1c1.4,0,2.8,0,4.1-0.9c0.9-0.7,2.5-0.6,3.8-0.6c3.3-0.1,6.6-0.2,10.1-0.3c0.9,0,1.9,0,2.8-0.8
	c0.6-0.5,1.5-0.6,2.4-0.7c2.1-0.2,4.3-0.2,6.4-0.4c0.5,0,1.2,0,1.5-0.3c1.4-1.4,3.3-1.3,5.1-1.4c0.9,0,1.8-0.1,2.8-0.2
	c0.4,0,0.9,0.1,1.1-0.2c1.6-1.8,3.7-1.3,5.7-1.5c0.9-0.1,2,0.1,2.6-1c0.2-0.3,0.8-0.4,1.2-0.5c1.8-0.4,3.6-0.2,5.2-1.6
	c0.7-0.6,2-0.4,3-0.5c1-0.1,2.1-0.1,2.8-1.1c0.3-0.4,1.1-0.5,1.8-0.6c0.9-0.2,1.7,0.1,2.4-1c0.3-0.5,1.3-0.7,2-0.8
	c1.2-0.2,2.5-0.1,3.1-1.4c0.1-0.2,0.7-0.3,0.9-0.4c0.8-0.1,1.5-0.2,2.4-0.3c0.2-0.5,0.4-0.9,0.6-1.4c1.2-0.5,2.9-0.1,3.6-1.8
	c0.1-0.2,0.7-0.2,1-0.3c0.9-0.3,2-0.2,2.4-1.4c1.6-0.1,1.8-2.2,3.4-2.2c0.9-1.6,3-1.6,3.9-3.1c0.2-0.3,0.6-0.4,0.9-0.6
	s0.8-0.3,0.9-0.6c0.8-1.4,2-2.4,3-3.5c0.8-0.8,1-1.9,1.8-3.1c0.1,0,0.5-0.2,0.9-0.4c0.2-1,0.3-2.1,0.6-3.5c0.6,0.5,1,0.7,1.1,0.9
	c0.2,0.8,0.3,1.6,0.3,2.5c0,9.5,0,19,0,28.5c0,0.9-0.1,2-0.2,2.9c0,0.5-0.1,1.1-0.3,1.3c-1.6,0.9-1,2.6-1.5,3.9
	c-0.5,0.5-1.6,0.2-1.6,1.4c0,0.4-0.6,0.8-0.9,1.1c-0.5,0.6-1.1,1.1-1.2,1.8c-0.2,0.9-0.4,1.6-1.4,1.6c-0.2,1.4-1.9,1.5-2.4,2.8
	c-0.1,0.4-0.8,0.6-1.2,0.8c-0.9,0.3-1.8,0.3-2.1,1.4c-0.1,0.2-0.5,0.6-0.7,0.5c-1.2-0.1-1.1,0.9-1.5,1.7c-1.3,0.1-2.8,0.2-3.4,1.7
	c-1.8,0.2-2.6,2.8-4.7,2.1c-1.1,1.3-3.1,1.3-4.3,2.3c-1,0.9-2,1.1-3.1,1.3c-1,0.1-2.2,0-2.6,1.3c-0.1,0.2-0.4,0.4-0.6,0.4
	c-2.9-0.4-4.9,2.6-7.9,2.1c-0.2,0-0.5,0.1-0.6,0.2c-1.1,1.7-2.9,1.3-4.6,1.5c-1.1,0.1-2.5-0.2-3.1,1.2c-0.2,0.3-0.9,0.4-1.4,0.4
	c-1.2,0.1-2.5,0.1-3.6,0.2c-0.9,0.1-1.9,0-2.7,0.9c-0.5,0.5-1.5,0.6-2.3,0.7c-1.2,0.2-2.6,0.1-3.9,0.2c-1,0.1-2.1-0.1-2.7,1.2
	c-0.1,0.3-0.9,0.5-1.4,0.5c-2.1,0.1-4.3,0.2-6.4,0.3c-1.2,0.1-2.4,0.1-3.3,1.1c-0.4,0.4-1.2,0.4-1.9,0.4c-3.2,0.1-6.4,0.2-9.6,0.3
	c-2,0.1-4.1,0.1-6,1.1c-0.7,0.4-1.6,0.4-2.5,0.4c-4.6,0.1-9.1,0.1-13.7,0.2c-0.9,0-1.6,0-2.4,0c-0.6,1.8-0.7,115.4-0.2,118.6
	c33.6,0,67.1,0,100.9,0c0-33.6,0-67.1,0-100.8c83.9,0,167.4,0,251.1,0l0.1,0.1c0.1,0.1,0.1,0.1,0.1,0.2c0,0.2,0.1,0.3,0.1,0.5
	c0,0.1,0,0.2,0,0.2c0,0.1,0,0.2,0,0.2c0,0.2,0,0.5,0,0.7c0,33.2,0,66.5,0,99.7c0,0.1,0,0.2,0,0.2c0,0.2,0,0.3,0.1,0.5
	c0,0.1,0.1,0.1,0.2,0.4c25,0,50.1,0,75.4,0c0-7.8,0-15.5,0-23.1c2-0.6,177.4-0.8,182.9-0.3c0.6,1.6,0.8,32.7,0.3,36.9
	c-1.6,0.5-180.2,0.6-183.1,0.1c0-3.1,0-6.3,0-9.5c-25.2,0-50.3,0-75.3,0c-0.5,1.5-0.7,45.8-0.2,50.4c1.6,0.5,69.1,0.7,73.4,0.2
	c0-5.2,0-10.5,0-15.7c1.9-0.6,178.4-0.8,182.9-0.3c0.5,1.6,0.6,33.4,0.1,36.1c-60.9,0-121.8,0-182.9,0c0-5.4,0-10.6,0-16
	c-24.7,0-49,0-73.6,0c0,6.4,0,12.6,0,18.9C721.1,583.1,637.4,583.1,553.6,583.1z M554.5,532.1c5.2,0.5,247.5,0.3,249.1-0.2
	c0.5-3.3,0.3-47.2-0.2-48.8c-83,0-165.9,0-249,0C554.5,499.4,554.5,515.7,554.5,532.1z M803.8,533.4c-83.2,0-166.2,0-249.2,0
	c0,16.3,0,32.4,0,48.6c83.1,0,166.1,0,249.2,0C803.8,565.8,803.8,549.6,803.8,533.4z M554.5,481.8c4.9,0.5,247.4,0.3,249.2-0.2
	c0-25.9,0-51.8,0-77.8c-83.1,0-166.1,0-249.2,0C554.5,429.9,554.5,455.8,554.5,481.8z M881.6,518.3c60.4,0,120.8,0,181,0
	c0.5-2.8,0.4-33.6-0.1-35.2c-3.9-0.5-179.1-0.3-180.8,0.2C881.6,494.9,881.6,506.5,881.6,518.3z M879.6,579.2
	c5.9,0.6,179.5,0.3,181.2-0.2c0.5-4.8,0.3-32.4-0.3-34c-5.3-0.5-179.1-0.3-180.9,0.3c0,4.6,0,9.2,0,13.9c0,0.4,0.4,0.8,0.5,1.1
	c0.2,1,0.8,2.6,0.3,3.1c-0.9,1.2-0.8,2.6-0.8,3.8c-0.1,2.2,0,4.4,0,6.6C879.6,575.6,879.6,577.4,879.6,579.2z"/>
<path fill="#A90D15" d="M219.5,176.7c0.6,0.1,1.1,0.2,1.9,0.4c0.2,0.9,0.3,2,0.5,3.1c1,0.2,1.6,0.9,1.7,2.1c0,0.9,0.3,1.6,1.3,1.8
	c0.2,0,0.4,0.6,0.6,0.9c0.1,0.2,0.1,0.6,0.2,0.7c0.9,0.5,1.3,1.5,2,2.1c0.7,0.6,1.3,1.2,2.1,1.7c1.3,0.9,2.8,1.6,4.3,2.5
	c0.2,0.1,0.4,0.4,0.6,0.7c0.2,0.3,0.4,0.9,0.6,0.9c1.1,0,1.5,1.3,2.1,1.3c2.3,0.2,3.4,2.5,5.5,2.6c0.3,0,0.8,0.1,0.8,0.3
	c0.3,1.6,1.6,1.2,2.7,1.5c0.5,0.1,1,0.1,1.2,0.4c0.9,1.2,2.1,1.3,3.4,1.4c0.8,0.1,1.5,0.2,2,1.1c0.2,0.5,1.3,0.5,2,0.6
	c0.9,0.2,1.7,0,2.3,1c0.3,0.6,1.4,0.7,2.3,0.8c1.3,0.2,2.6,0.1,3.7,1.2c0.7,0.7,2,0.6,3,0.7c1.2,0.2,2.6-0.1,3.4,1.3
	c0.2,0.3,0.9,0.3,1.2,0.4c1.2,0.1,2.5,0.1,3.6,0.3c0.6,0.1,1.4,0.2,1.6,0.6c0.7,1.3,1.8,1.1,2.9,1.2c1.4,0.1,2.9,0,4.3,0.2
	c0.9,0.1,1.8,0.7,2.7,0.9c0.6,0.2,1.1,0.5,1.6,0.5c1.7,0.1,3.5,0.1,5.2,0.3c1.4,0.1,3,0,4.3,1.2c0.5,0.4,1.4,0.4,2.2,0.4
	c4,0.2,7.9,0.3,11.9,0.4c1,0,2,0.1,2.9,0.9c0.6,0.5,1.6,0.4,2.4,0.4c13.1,0,26.3,0.1,39.4,0.1c1.1,0,2.3,0,3.4,0
	c0.9,0,1.7,0,2.6-0.8c0.6-0.5,1.5-0.6,2.4-0.6c3.6-0.2,7.3-0.3,10.9-0.4c1.3-0.1,2.7,0.1,3.8-1c0.4-0.4,1.2-0.5,2-0.5
	c1.7-0.1,3.5-0.2,5.2-0.3c1.2-0.1,2.5,0.1,3.5-1.1c0.4-0.5,1.4-0.5,2.2-0.6c1.3-0.1,2.8-0.1,4.1-0.2c0.9-0.1,2,0.1,2.5-1.1
	c0.1-0.3,0.9-0.5,1.3-0.6c1.4-0.2,2.8-0.2,4.3-0.3c0.8-0.1,1.3-0.2,2-0.9c0.5-0.5,1.4-0.7,2.2-0.8c1.7-0.2,3.4-0.1,4.8-1.5
	c0.4-0.5,1.6-0.3,2.4-0.4c1.1-0.1,2.5,0.1,3.1-1.3c0.1-0.2,0.5-0.3,0.8-0.4c1.3-0.2,2.7,0.1,3.5-1.5c0.2-0.4,1.2-0.4,1.9-0.5
	c1.1-0.1,2-0.4,2.8-1.2c0.4-0.4,1.1-0.5,1.8-0.7c0.9-0.2,1.9,0.1,2.2-1.2c0-0.2,0.6-0.4,0.9-0.5c1-0.3,2.3-0.1,2.8-1.6
	c0.1-0.2,0.9-0.2,1.2-0.3c0.9-0.3,1.8-0.2,2.2-1.3c0.1-0.3,0.6-0.5,0.9-0.6c0.6-0.1,1-0.3,1.1-0.9c0-0.3,0.3-0.7,0.5-0.7
	c1.2,0.1,1.7-1.3,2.6-1.6c1.6-0.4,2.3-2,3.7-2.6c0.9-0.5,1.4-2,2.3-2.8c1.3-1.2,2.4-2.5,2.8-4.3c0-0.2,0.7-0.2,1.1-0.4
	c0.2-1,0.4-2.2,0.7-3.6c0.6,0.5,1,0.7,1,0.9c0.2,0.9,0.3,1.8,0.3,2.8c0,9.4,0,18.8,0,28.3c0,0.9,0,1.8-0.1,2.8
	c-0.1,0.6,0,1.5-0.4,1.7c-1.4,0.9-1.2,2.5-1.4,4c-0.7,0.4-1.8,0.5-1.7,1.8c0,0.2-0.5,0.5-0.8,0.8c-0.5,0.7-1.1,1.2-1.4,2
	c-0.2,0.7-0.4,1-1.1,1.1c-0.3,0-0.7,0.5-0.8,0.8c-0.1,0.8-0.5,1-1.1,1.1c-0.3,0.1-0.5,0.5-0.7,0.8c-0.2,0.3-0.2,0.8-0.4,0.8
	c-1.6,0.2-2.6,1.2-3.8,2.1c-0.6,0.4-1.2,0.5-1.3,1.3c0,0.1-0.2,0.3-0.3,0.3c-1.6,0-2.7,1.1-3.9,2c-1.1,0.8-1.2,0.6-1.7,1.9
	c-0.7,0.1-1.4,0.3-2.2,0.4c-0.7,0.1-1.2,0.1-1.3,0.9c0,0.1-0.1,0.4-0.3,0.4c-1,0.3-2.6,0.3-3.1,0.9c-0.9,1.1-1.8,1.1-2.9,1.3
	c-1,0.2-2.3-0.1-2.8,1.3c-0.1,0.3-0.8,0.4-1.2,0.4c-1.6,0.3-3.4-0.3-4.4,1.6c-2.6-0.4-4.3,2-6.7,2c-0.8,0-1.5,0.1-2.3,0.2
	s-1.5,0-1.9,0.9c-0.1,0.4-0.9,0.6-1.3,0.6c-1.2,0.1-2.5,0.1-3.6,0.2c-1,0.1-2.1,0-2.8,1c-0.4,0.5-1.3,0.6-2.1,0.7
	c-1.2,0.2-2.6,0.2-3.9,0.2c-0.9,0-1.9,0.2-2.8,0.9c-0.6,0.5-1.5,0.6-2.4,0.7c-2.2,0.2-4.4,0.2-6.6,0.3c-0.6,0-1.4,0-1.7,0.3
	c-1.4,1.4-3.2,1.2-4.9,1.3c-3.4,0.1-6.8,0.2-10.2,0.3c-0.8,0-1.5,0.5-2.3,0.7s-1.4,0.6-2.2,0.6c-5.5,0.2-10.9,0.4-16.4,0.4
	c-7.8,0-15.7,0-23.4-0.1c-2,0-4.1,0.3-5.9-1.2c-0.5-0.4-1.3-0.3-2-0.3c-3.4-0.1-6.8-0.1-10.2-0.3c-1.5-0.1-3,0-4.2-1.2
	c-0.3-0.4-1.1-0.3-1.7-0.3c-2-0.1-4-0.2-5.9-0.2c-1.2-0.1-2.6,0-3.5-1.1c-0.3-0.4-1.1-0.4-1.7-0.5c-1.3-0.1-2.8-0.1-4.1-0.3
	c-0.8-0.1-1.7-0.1-2.2-0.5c-1.2-1.2-2.7-1-4.2-1.2c-1.5-0.2-3.3,0.4-4.5-1.4c-0.2-0.4-1.2-0.3-2-0.4c-1.7-0.2-3.6,0.3-4.9-1.6
	c-0.3-0.4-1.3-0.3-2-0.3c-1.2-0.1-2.4-0.2-3.2-1.2c-0.4-0.4-1.2-0.4-1.9-0.5c-1-0.2-2.1,0.1-2.7-1.2c-0.2-0.5-1.3-0.6-2.1-0.7
	c-1-0.2-2.1-0.2-2.8-1.3c-0.2-0.3-0.8-0.4-1.1-0.5c-0.9-0.3-1.9-0.3-2.7-1.3c-0.5-0.7-1.9-0.6-3.1-0.9c0-1.9-2.5-1.5-3.2-3
	c-1.8-0.1-2.9-1.4-4.1-2.5c-1.1-0.9-2.3-1.8-3.8-2c0-1.5-1.9-1.4-2.2-2.7c-0.1-0.3-0.6-0.6-0.9-0.9c-0.3-0.2-0.8-0.4-0.8-0.6
	c-0.1-0.8-0.6-1.1-1.1-1.5c-0.5-0.4-0.9-1.2-0.9-2c-0.1-1-0.8-1.2-1.6-1.3c-0.2-1.1-0.4-2.2-0.6-3.4c-0.7-0.1-1.3-0.1-1.9-0.2
	C219.5,201.3,219.5,188.9,219.5,176.7z"/>
<path fill="#A90D15" d="M1347.5,37.4c1.9,0.9,2.5,2.5,2.5,4.5c-0.1,5.9-0.1,11.9-0.1,17.8c-0.1,7.6-0.1,15.4-0.1,23
	c0,6.3,0.1,12.7,0.1,19c0,1.9,0.1,3.7,0.1,5.6c0,2.8-0.9,3.9-3.7,3.9c-5,0.1-10-0.1-15-0.1c-7.9,0-15.8,0-23.7,0
	c-0.1,0-0.4,0.1-0.7,0.1c-0.1,3.6,0.7,7.2,0.7,10.8c-1.5,0.4-19.1,0.6-24.3,0.2c-0.1-3.6,0.7-7.2,0.7-11c-0.5-0.1-0.9-0.1-1.4-0.1
	c-12.2-0.1-24.5-0.1-36.7-0.1c-0.7,0-1.3,0.1-1.9,0.1c-2.3,0-3.5-1.1-3.5-3.4c-0.1-2.7,0-5.4,0.1-8c0.1-7.9,0.1-15.8,0.2-23.7
	c0-7.6,0-15.1-0.1-22.7c0-3.5-0.1-7-0.2-10.5c0-0.4,0-0.7-0.1-1c-0.2-2,0.5-3.5,2.4-4.4c13,0,25.8,0,38.8,0c0.9,0,1.9,0,2.8,0
	c9.5,0,18.9,0,28.3,0c2.1,0.1,4.2,0.1,6.3,0.2c1.4,0,2.8-0.1,4.1-0.2C1331.2,37.4,1339.4,37.4,1347.5,37.4z M1245.3,104.9
	c33.3,0,66.5,0,99.7,0c0-20.8,0-41.5,0-62.5c-33.3-0.1-66.5-0.1-99.7,0C1245.3,63.3,1245.3,84,1245.3,104.9z"/>
<path fill="#A90D15" d="M1339.8,240.3c0,14,0,28,0,42.1c0,1.5-0.3,2.9-1.4,4.2c-1.2,1.5-2.8,2.1-4.5,2.2c-0.4,0-0.8,0-1.2,0
	c-19.5,0-39,0-58.5,0c-0.4,0-0.7,0-1,0c-3.6-0.1-6.1-2.6-6.1-6.3c0-12,0-23.9,0-36c0-16.1,0.1-32.1-0.1-48.2c0-3.3,2.8-6.6,6.6-6.6
	c19.9,0.1,40,0.1,59.9,0c3.5,0,6.5,3,6.5,6.5C1339.7,212.3,1339.8,226.3,1339.8,240.3z M1276.2,273.4c18.3,0,36.3,0,54.4,0
	c0.4-2.9,0.2-71.2-0.1-72.4c-18.1,0-36.1,0-54.3,0C1276.2,225.2,1276.2,249.2,1276.2,273.4z M1308,281.2c0-2.4-2.1-4.5-4.6-4.4
	c-2.8,0.1-4.3,2-4.4,4.4c-0.1,2.5,2,4.6,4.4,4.6C1305.9,285.7,1308,283.6,1308,281.2z"/>
<path fill="#A90D15" d="M1284.5,407.3c0-9.8,0-19.6,0-29.3c0-1.2,0.2-2.3,0.7-3.3c0.9-2.2,2.6-3.2,4.9-3.2c3.7,0,7.4,0,11.1,0
	c5.2,0,10.3,0.1,15.5-0.1c3.5-0.1,6.8,2.2,6.6,6.7c-0.1,7.4-0.1,14.9-0.1,22.3c0,11.9-0.1,23.7,0.1,35.6c0.1,4.5-2,7.1-6.9,7
	c-8.4-0.1-16.9-0.1-25.3-0.1c-0.2,0-0.4,0-0.7,0c-4.1,0.1-6-2.4-6-6C1284.5,427.1,1284.5,417.2,1284.5,407.3z M1288.9,431.1
	c10,0,20,0,30,0c0.1-0.2,0.2-0.3,0.2-0.4c0-15.3,0.1-30.6,0.1-45.9c0-0.4-0.1-0.8-0.1-1.2c0-0.1-0.1-0.1-0.1-0.1
	c-0.1-0.1-0.1-0.1-0.1-0.1c-4.5-0.4-28.7-0.2-29.9,0.2C1288.9,399.4,1288.9,415.2,1288.9,431.1z M1306.9,437c0-1.5-1.2-2.8-2.8-2.8
	c-1.5,0-2.8,1.2-2.8,2.8c0,1.5,1.2,2.8,2.8,2.8C1305.5,439.9,1306.9,438.6,1306.9,437z M1304,378L1304,378c1,0,2,0.1,3,0
	c0.3,0,0.6-0.4,0.9-0.6c-0.3-0.2-0.5-0.7-0.8-0.7c-2-0.1-4.1-0.1-6.1,0c-0.2,0-0.5,0.5-0.7,0.8c0.3,0.1,0.5,0.5,0.8,0.5
	C1302.1,378.1,1303.1,378,1304,378z"/>
<path fill="#A90D15" d="M1308,124.1c0.1,0.8,0.1,1.5,0.1,2.1c0,0.4,0,0.9,0.1,1.4c0.1,1.2,0.4,1.4,1.6,1.4c0.4,0,0.9-0.1,1.7-0.1
	c-0.5,0.4-0.7,0.7-0.9,0.7c-0.4,0.1-0.9,0.2-1.4,0.2c-3.6,0.1-7.4,0.1-11,0.1c-2.8,0-5.5,0-8.2,0c-2.8,0-5.7-0.1-8.5-0.1
	c-0.8,0-1.6-0.1-2.5-1c1.2,0,2.1,0,3.2,0c0.1-1.7,0.3-3.2,0.4-4.8C1291,124.1,1299.4,124.1,1308,124.1z"/>
<path fill="#A90D15" d="M601.1,345.3c0,15.5,0,30.7,0,46.2c-21.8,0-43.5,0-65.2,0c0-15.5,0-30.7,0-46.2
	C557.5,345.3,579.1,345.3,601.1,345.3z M599.9,390.6c0.5-2.8,0.4-42.7-0.1-44.3c-21,0-41.9,0-63.2,0c0,14.8,0,29.5,0,44.3
	C558,390.6,578.9,390.6,599.9,390.6z"/>
<path fill="#A90D15" d="M525.3,345.3c0,15.5,0,30.7,0,46c-1.7,0.5-61.8,0.6-65.2,0.2c0-15.4,0-30.6,0-46.1
	C481.9,345.3,503.5,345.3,525.3,345.3z M461,346.2c0,14.8,0,29.5,0,44.3c21.2,0,42.2,0,63.4,0c0-14.8,0-29.5,0-44.3
	C503.2,346.2,482.3,346.2,461,346.2z"/>
<path fill="#A90D15" d="M613.4,391.5c0-15.5,0-30.7,0-46.2c21.7,0,43.3,0,64.9,0c0.5,1.6,0.6,43.3,0.1,46.2
	C656.8,391.5,635.2,391.5,613.4,391.5z M677.5,390.6c0-14.9,0-29.6,0-44.4c-21.1,0-42,0-63,0c-0.5,2.8-0.4,42.7,0.1,44.4
	C635.5,390.6,656.4,390.6,677.5,390.6z"/>
<path fill="#A90D15" d="M577.7,359c1.1,0,2.1,0,3.3,0c0.4,5.3,0.7,10.6,1,16c-1,0-1.8,0-2.8,0c-0.2-3.1-0.4-6.3-0.7-9.9
	c-0.4,0.8-0.7,1.1-0.9,1.6c-0.9,2.3-1.7,4.6-2.6,6.8c-0.6,1.5-0.6,1.5-2.8,1.4c-1-2.9-2.2-6.1-3.2-9.1c-0.1,0-0.3,0.1-0.4,0.1
	c-0.2,2.9-0.5,6-0.7,9.1c-0.9,0-1.7,0-2.8,0c0.4-5.3,0.8-10.5,1.1-15.9c1.1,0,2.1,0,3.3,0c1.1,3.3,2.4,6.7,3.8,10.7
	C575.2,366,576.5,362.5,577.7,359z M580.1,360.1c-1.5-0.6-1.8,0.3-2.2,1.2c-1.1,3.2-2.3,6.5-3.3,9.7c-0.2,0.6-0.5,1-0.9,2
	c-0.4-1-0.6-1.7-0.9-2.3c-1-3.1-2.2-6.3-3.2-9.5c-0.3-0.9-0.8-1.6-2-1.1c-0.8,3.6-1.2,12.8-0.5,14.3c0.2-1.9,0.3-3.3,0.5-4.7
	c0.1-1.4,0.1-2.8,0.3-4.3c0.2-1.4-0.3-2.9,0.9-4.7c1.5,4.8,2.8,9.2,4.8,13.5c0.6-0.6,0.9-1.1,1-1.7c1.2-3.5,2.5-7,3.7-10.4
	c0.1-0.4,0.5-0.6,0.7-0.9c0.2,0,0.3,0.1,0.5,0.1c0.1,1.5,0.1,2.9,0.2,4.5c0.1,1.4,0,2.8,0.2,4.3c0.2,1.4-0.1,2.9,0.9,4.2
	C580.8,369.3,580.5,364.7,580.1,360.1z"/>
<path fill="#A90D15" d="M559.4,375.1c-1,0-1.9,0-2.9,0c-1.7-5.3-3.5-10.5-5.2-15.9c0.6-0.1,0.9-0.2,1.1-0.2c0.6,0,1.2,0,2,0.1
	c1.2,3.7,2.4,7.3,3.7,11.5c1.4-4.1,2.8-7.8,4-11.5c1,0,1.9,0,3.1,0C563.3,364.5,561.4,369.7,559.4,375.1z M558.4,373.1
	c-0.2,0-0.3,0-0.5,0c-0.2-0.5-0.4-0.9-0.6-1.3c-1-3.4-2.1-6.8-3.2-10.2c-0.2-0.6-0.1-1.4-1.3-1.4c0.1,0.6,0.1,1,0.3,1.5
	c0.8,2.3,1.5,4.6,2.3,6.9c0.5,1.6,0.9,3.2,1.6,4.7c0.2,0.4,0.7,0.8,1,0.9c0.3,0.1,0.7-0.5,0.9-0.8c0.2-0.2,0.2-0.4,0.2-0.7
	c1.4-3.9,2.8-7.7,4.2-11.6c0.1-0.4,0.1-0.8,0.3-1.6c-1.6,1.4-1.7,3-2.2,4.5c-0.7,1.5-1.1,3.1-1.6,4.7
	C559.2,370.2,558.8,371.7,558.4,373.1z"/>
<path fill="#A90D15" d="M502.6,365.6c-0.9,2.7-2,5.4-3,8.1c-0.2,0.6-0.7,1.2-1.2,1.4c-1,0.4-1.6-0.2-2-1.2c-0.7-2.3-1.5-4.5-2.3-6.6
	c-0.2-0.4-0.4-0.9-0.9-1.2c-0.2,3-0.5,6-0.7,9.1c-0.9,0.1-1.6,0.1-2.3,0.1c-0.5-1.8,0.1-12.3,0.9-16.1c0.9,0,1.9,0,3.1,0
	c1.2,3.4,2.5,6.8,3.8,10.8c1.4-3.8,2.7-7.2,4-10.8c1,0,2.1,0,3.3,0c0.4,5.3,0.7,10.6,1,16c-1,0-1.8,0-2.8,0
	c-0.2-3.2-0.4-6.4-0.7-9.5C502.9,365.6,502.7,365.6,502.6,365.6z M497.5,374c0.3,0,0.5,0,0.8,0c0.9-2.2,1.6-4.4,2.5-6.5
	c0.9-2.2,1.3-4.6,2.8-6.6c0.7,4.4,0.4,8.7,1.5,13c0.1-4.6-0.1-9.3-0.6-13.9c-1.3-0.6-1.8,0.2-2.1,1.1c-1.1,3.2-2.3,6.5-3.3,9.7
	c-0.2,0.6-0.5,1.1-0.9,2.2c-0.4-1.1-0.6-1.7-0.8-2.3c-1-3.1-2.2-6.3-3.2-9.5c-0.4-1-0.8-1.8-2.1-1.1c-0.8,4.8-1.1,12.4-0.5,13.9
	c0.3-1.4,0.5-2.8,0.6-4.3c0.1-1.4,0.1-2.8,0.3-4.3c0.1-1.4-0.2-2.9,0.8-4.8C494.6,365.3,496.1,369.7,497.5,374z"/>
<path fill="#A90D15" d="M475.6,359.1c1.2,0,2.1,0,3.1,0c1.1,3.6,2.4,7.3,3.7,11.4c1.4-4.1,2.8-7.8,4-11.5c1,0,1.9,0,3.1,0
	c-1.9,5.4-3.8,10.6-5.7,16c-0.9,0-1.8,0-2.9,0C479.1,369.9,477.4,364.6,475.6,359.1z M477.6,359.6c-0.2,0.7-0.4,0.9-0.4,1
	c1.3,4.3,2.8,8.5,4.2,12.7c0.1,0.4,0.6,0.8,0.9,0.8s0.8-0.4,1-0.7c0.2-0.1,0.2-0.4,0.3-0.7c1.4-3.9,2.8-7.9,4.2-11.8
	c0.1-0.3,0-0.8,0-1.1c-0.7,0.4-0.9,0.9-1.1,1.4c-1.2,3.5-2.4,7-3.5,10.5c-0.1,0.4-0.4,0.8-0.9,1.6c-0.9-2.8-1.5-4.9-2.2-7.1
	C479.3,364.2,479,361.9,477.6,359.6z"/>
<path fill="#A90D15" d="M652,375c-2.1,0.1-2.1,0.1-2.7-1.5c-0.8-2.2-1.4-4.3-2.2-6.5c-0.1-0.4-0.4-0.8-0.9-1.1
	c-0.2,2.9-0.5,6-0.7,9.1c-0.9,0-1.6,0.1-2.7,0.1c0-5.4,0.7-10.6,0.9-16.1c1.1,0,2.1,0,3.3,0c1.2,3.4,2.5,6.8,3.8,10.7
	c1.4-3.9,2.8-7.3,4-10.8c1,0,2,0,3.3,0c0.4,5.2,0.7,10.5,1,16c-0.9,0-1.7,0.1-2.8,0.1c-0.2-3.2-0.5-6.4-0.7-9.6
	C654.2,368.5,653.5,371.9,652,375z M643.9,373.9c0.3,0,0.5,0,0.8,0c0.2-2.2,0.4-4.4,0.5-6.5c0.2-2.2-0.1-4.3,0.6-6.5
	c0.5,0.4,0.7,0.8,0.9,1.2c1.1,3.5,2.3,7,3.5,10.5c0.2,0.5,0.5,0.9,0.9,1.7c2.1-4.6,3.3-9.2,5.3-13.5c0.4,0.7,0.5,1.2,0.5,1.9
	c0.2,3.4,0.4,6.8,0.6,10.2c0,0.4,0.3,0.7,0.5,1c0.2,0,0.4-0.1,0.5-0.1c-0.3-4.6-0.6-9.3-0.9-13.8c-1.3-0.7-1.8,0-2.2,1
	c-1.1,3.2-2.3,6.5-3.3,9.7c-0.2,0.6-0.5,1.1-0.9,2.2c-0.4-1.1-0.7-1.6-0.9-2.2c-1.1-3.2-2.2-6.5-3.2-9.7c-0.4-0.9-0.9-1.6-2.1-0.9
	C644.5,364.7,644.1,369.3,643.9,373.9z"/>
<path fill="#A90D15" d="M632,359.1c1.1,3.7,2.4,7.2,3.5,10.8c0.1,0,0.3,0,0.4,0c1.2-3.6,2.5-7.2,3.8-10.8c0.9,0,1.8,0,3.1,0
	c-1.9,5.4-3.8,10.6-5.7,15.9c-0.9,0-1.8,0-2.9,0c-1.7-5.2-3.4-10.5-5.2-15.9C630,359.1,630.8,359.1,632,359.1z M630.7,359.8
	c-0.1,0.5-0.2,0.7-0.2,0.9c1.3,4.2,2.7,8.3,4.1,12.5c0.1,0.4,0.7,0.9,1,0.9c0.8,0.2,0.9-0.6,1.1-1.1c1.4-4,2.8-8,4.3-12
	c0.1-0.3,0-0.8-0.1-1c-0.2,0-0.3-0.1-0.5-0.1c-1.8,4.3-3,8.8-4.8,13.2c-0.8-1.5-1.1-2.9-1.6-4.5c-0.5-1.5-0.9-3-1.4-4.6
	C632.1,362.7,632.1,361,630.7,359.8z"/>
<rect x="566.5" y="500.9" fill="none" width="223.2" height="46.9"/>
<text transform="matrix(1 0 0 1 572.9014 516.4337)" fill="#A90D15" font-family="'Venera700'" font-size="22.7693">hypervisor</text>
<rect x="564.8" y="541.6" fill="none" width="223.2" height="46.9"/>
<text transform="matrix(1 0 0 1 579.5039 557.1719)" fill="#A90D15" font-family="'Venera700'" font-size="22.7693">hardware</text>
<rect x="923.5" y="560.4" fill="none" width="139" height="25.8"/>
<text transform="matrix(1 0 0 1 879.5088 562.2159)" fill="#A90D15" font-family="'Venera700'" font-size="15.1795">nvidia grid gpu</text>
<rect x="880.5" y="485.6" fill="none" width="181.2" height="33.7"/>
<text transform="matrix(1 0 0 1 920.7637 496.0293)" fill="#A90D15" font-family="'Venera700'" font-size="15.1795">vmware </text>
<text transform="matrix(1 0 0 1 891.7324 514.2441)" fill="#A90D15" font-family="'Venera700'" font-size="15.1795">horizon view</text>
<rect x="277.5" y="47.8" fill="none" width="118.3" height="33.5"/>
<text transform="matrix(1 0 0 1 291.6553 58.1436)" fill="#A90D15" font-family="'Venera700'" font-size="15.1795">server</text>
<rect x="515.2" y="101.4" fill="none" width="118.3" height="33.5"/>
<text transform="matrix(1 0 0 1 518.5254 111.7462)" fill="#A90D15" font-family="'Venera700'" font-size="15.1795">network</text>
<rect x="690.7" y="52.5" fill="none" width="118.3" height="33.5"/>
<text transform="matrix(1 0 0 1 695.7842 62.8878)" fill="#A90D15" font-family="'Venera700'" font-size="15.1795">internet</text>
</svg>
