<?xml version="1.0" encoding="utf-8"?>
<!-- Generator: Adobe Illustrator 18.1.0, SVG Export Plug-In . SVG Version: 6.00 Build 0)  -->
<!DOCTYPE svg PUBLIC "-//W3C//DTD SVG 1.1//EN" "http://www.w3.org/Graphics/SVG/1.1/DTD/svg11.dtd">
<svg version="1.1" id="Layer_1" xmlns="http://www.w3.org/2000/svg" xmlns:xlink="http://www.w3.org/1999/xlink" x="0px" y="0px"
	 viewBox="100 100 450 100" xml:space="preserve">
<g>
	<path fill="#A90D15" d="M141.5,59.5c0,1.3,0,2.6,0,4c-5.3,0-10.5,0-15.7,0c0,2.6,0,5.2,0,7.8c1.3,0,2.5,0,3.8,0c0,2.6,0,5.2,0,7.8
		c1.3,0,2.5,0,4,0c0,2.6,0,5.3,0,7.9c1.3,0,2.6,0,3.8,0c0,2.6,0,5.1,0,7.8c-1.3,0-2.5,0-3.7,0c-0.1,1.4-0.2,2.8-0.3,4.1
		c-2.4,0-4.9,0-7.4,0c-0.1-1.3-0.2-2.6-0.4-4.1c-1.2,0-2.4,0-3.8,0c0-2.6,0-5.2,0-7.8c-1.3,0-2.5,0-4,0c0-2.6,0-5.3,0-7.9
		c-1.3,0-2.5,0-3.8,0c0-2.6,0-5.2,0-7.7c-2.6,0-5.2,0-7.9,0c0,1.3,0,2.5,0,3.9c-1.3,0-2.5,0-4,0c0,1.3,0,2.5,0,4c-1.4,0-2.6,0-4,0
		c0,1.4,0,2.6,0,4c-1.3,0-2.6,0-3.9,0c0-22.2,0-44.5,0-66.8c1.3,0,2.6,0,4,0c0,1.3,0,2.6,0,4.1c1.4,0,2.6,0,4,0c0,1.3,0,2.5,0,3.9
		c1.3,0,2.5,0,4,0c0,1.3,0,2.5,0,4c1.3,0,2.5,0,4,0c0,1.3,0,2.5,0,4c1.3,0,2.5,0,4,0c0,1.3,0,2.5,0,4c1.3,0,2.5,0,3.8,0
		c0,1.3,0,2.5,0,3.9c1.3,0,2.5,0,4,0c0,1.3,0,2.6,0,4c1.4,0,2.6,0,4,0c0,1.3,0,2.5,0,4c1.3,0,2.6,0,4,0c0,1.4,0,2.6,0,4
		c1.3,0,2.5,0,3.9,0c0,1.3,0,2.5,0,4c1.3,0,2.6,0,4,0c0,1.4,0,2.6,0,4C139,59.5,140.2,59.5,141.5,59.5z"/>
	<path fill="none" d="M141.5,59.5c-1.3,0-2.5,0-4,0c0-1.3,0-2.5,0-4c-1.4,0-2.6,0-4,0c0-1.4,0-2.6,0-4c-1.3,0-2.5,0-3.9,0
		c0-1.3,0-2.5,0-4c-1.4,0-2.6,0-4,0c0-1.4,0-2.6,0-4c-1.3,0-2.5,0-4,0c0-1.3,0-2.6,0-4c-1.4,0-2.6,0-4,0c0-1.3,0-2.5,0-3.8
		c-1.3,0-2.5,0-3.8,0c0-1.3,0-2.5,0-4c-1.3,0-2.5,0-4,0c0-1.3,0-2.5,0-4c-1.3,0-2.5,0-4,0c0-1.3,0-2.5,0-4c-1.3,0-2.5,0-4,0
		c0-1.3,0-2.5,0-3.9c-1.3,0-2.5,0-4,0c0-1.4,0-2.8,0-4.1c14.4,0,28.8,0,43.3,0C141.5,30.7,141.5,45.1,141.5,59.5z"/>
	<path fill="none" d="M94.2,83.1c1.3,0,2.5,0,3.8,0c0-1.3,0-2.5,0-4c1.3,0,2.5,0,4,0c0-1.3,0-2.5,0-4c1.3,0,2.5,0,4,0
		c0-1.3,0-2.5,0-3.8c2.6,0,5.2,0,7.9,0c0,2.6,0,5.2,0,7.7c1.3,0,2.5,0,3.9,0c0,2.6,0,5.2,0,7.9c1.3,0,2.6,0,4,0c0,2.6,0,5.2,0,7.8
		c1.3,0,2.5,0,3.8,0c0.1,1.4,0.2,2.8,0.4,4.1c-10.6,0-21,0-31.7,0C94.2,93.6,94.2,88.3,94.2,83.1z"/>
	<path fill="none" d="M133.4,98.9c0.1-1.3,0.2-2.6,0.3-4.1c1.2,0,2.4,0,3.7,0c0-2.6,0-5.2,0-7.8c-1.3,0-2.5,0-3.9,0
		c0-2.6,0-5.3,0-7.9c-1.3,0-2.5,0-4,0c0-2.6,0-5.2,0-7.8c-1.3,0-2.5,0-3.9,0c0-2.6,0-5.2,0-7.8c5.2,0,10.4,0,15.7,0
		c0,11.8,0,23.5,0,35.4C138.8,98.9,136,98.9,133.4,98.9z"/>
	
		<animateMotion  fill="remove" dur="5s" calcMode="paced" additive="replace" accumulate="none" repeatCount="indefinite" restart="always">
		<mpath  xlink:href="#sexpath"></mpath>
	</animateMotion>
</g>
<path id="sexpath" fill="none" d="M114.1,79c0.9,1,1.9,2,2.8,3c0.6,0.5,1.1,1.2,1.9,1.5c0.9,0.4,2,0.5,3,0.7
	c3.7,0.3,7.5,0.7,11.1-0.3c4.9-1.5,8.8-5.7,10.7-10.6c1.9-4.8,2-10.2,1.2-15.4c-0.3-2-0.8-4-1.5-5.7c-0.9-2-2.3-3.7-3.5-5.7
	c-1-1.7-1.9-3.5-3.1-5.1c-2-2.6-4.9-4.3-8.1-5.3c-3.2-1-6.5-1.2-9.7-1.2c-0.9,0-1.8,0-2.5,0.4c-1.2,0.6-1.9,1.9-2.3,3.1
	c-0.7,1.9-1.2,3.7-1.5,5.6c-0.2,1.1-0.3,2.2-0.8,3.2s-1.4,1.9-2.5,1.8c-1.1,0-2-0.9-2.5-1.9c-1.1-1.9-1.2-4.1-1.5-6.3
	c-0.3-2.2-1-4.4-2.9-5.6c-2.2-1.4-5.4-0.5-7.2,1.4c-1.8,2-2.5,4.6-2.9,7.3c-0.3,2.6-0.4,5.3-1.3,7.8c-0.6,1.5-1.3,3-1.9,4.5
	c-0.7,1.8-1,3.6-1.3,5.4c-0.3,2-0.7,4.2,0.3,5.9c0.9,1.7,2.8,2.6,4.6,3.2c2.1,0.7,4.4,1,6.5,0.3c2.9-0.9,4.8-3.4,7.5-4.6
	c0.3-0.2,0.8-0.3,1.1-0.3c0.3,0,0.7,0.2,0.9,0.3c2,1.3,3.3,3.5,3.5,5.9c0.1,1.3-0.1,2.6,0.3,3.8C112.8,77.6,113.5,78.3,114.1,79z"/>
</svg>
