<?xml version="1.0" encoding="utf-8"?>
<!-- Generator: Adobe Illustrator 18.1.0, SVG Export Plug-In . SVG Version: 6.00 Build 0)  -->
<!DOCTYPE svg PUBLIC "-//W3C//DTD SVG 1.1//EN" "http://www.w3.org/Graphics/SVG/1.1/DTD/svg11.dtd">
<svg version="1.1" id="Layer_1" xmlns="http://www.w3.org/2000/svg" xmlns:xlink="http://www.w3.org/1999/xlink" x="0px" y="0px"
	 viewBox="0 0 100 100" enable-background="new 0 0 100 100" xml:space="preserve">
<g>
	<polygon fill="#FFFFFF" points="33.9,76.3 16.8,46.8 33.9,17.2 68,17.2 85.1,46.8 68,76.3 	"/>
	<path id="theMotionPath" d="M67.9,17.3l17,29.4l-17,29.4H34L17,46.8l17-29.4h33.9 M68.1,17.1H33.8L16.7,46.8l17.1,29.7h34.3
		l17.1-29.7L68.1,17.1L68.1,17.1z"/>
	<path id="theMotionPath2" fill="none"  d="M67.9,17.3l17,29.4l,h50.0l50"/>
</g>
<circle stroke="#A90D15" fill="#A90D15" cx="0" cy="0" r="2.5">
<animateMotion  fill="remove" restart="always" accumulate="none" calcMode="paced" repeatCount="indefinite" additive="replace" dur="15s">
	<mpath  xlink:href="#theMotionPath"></mpath>
</animateMotion>
</circle>
<circle stroke="#A90D15" fill="#A90D15" cx="0" cy="0" r="1">
<animateMotion  fill="remove" restart="always" accumulate="none" calcMode="paced" repeatCount="indefinite" additive="replace" dur="5s">
	<mpath  xlink:href="#theMotionPath2"></mpath>
</animateMotion>
</circle>
<rect x="22.1" y="4.8" fill="none" width="24" height="12.3"/>
<text transform="matrix(1 0 0 1 28.8427 6.7412)" font-family="'Line-UltraLight'" font-size="3">LIMITED</text>
<text transform="matrix(1 0 0 1 29.0427 10.3412)" font-family="'Line-UltraLight'" font-size="3">MOBILE</text>
<text transform="matrix(1 0 0 1 25.2427 13.9412)" font-family="'Line-UltraLight'" font-size="3">PROCESSING </text>
<rect x="64.6" y="6.7" fill="none" width="24" height="6.2"/>
<text transform="matrix(1 0 0 1 64.8368 8.6062)" font-family="'Line-UltraLight'" font-size="3">MOBILE BATTERY </text>
<text transform="matrix(1 0 0 1 64.7368 12.2062)" font-family="'Line-UltraLight'" font-size="3">LIFE LIMITATIONS </text>
<rect x="1.2" y="39.5" fill="none" width="14.8" height="14.6"/>
<text transform="matrix(1 0 0 1 3.9226 41.4407)" font-family="'Line-UltraLight'" font-size="3">CLOUD </text>
<text transform="matrix(1 0 0 1 1.8226 45.0407)" font-family="'Line-UltraLight'" font-size="3">SECURITY </text>
<text transform="matrix(1 0 0 1 3.4226 48.6407)" font-family="'Line-UltraLight'" font-size="3">ISSUES</text>
<rect x="85.2" y="39.5" fill="none" width="14.8" height="14.6"/>
<text transform="matrix(1 0 0 1 86.8009 41.4407)" font-family="'Line-UltraLight'" font-size="3">LACK OF </text>
<text transform="matrix(1 0 0 1 87.0009 45.0407)" font-family="'Line-UltraLight'" font-size="3">MARKET </text>
<text transform="matrix(1 0 0 1 85.7009 48.6407)" font-family="'Line-UltraLight'" font-size="3">PROOF OF </text>
<text transform="matrix(1 0 0 1 90.3009 52.2407)" font-family="'Line-UltraLight'" font-size="3">ROI</text>
<rect x="19.3" y="76.4" fill="none" width="14.8" height="14.6"/>
<text transform="matrix(1 0 0 1 22.0214 78.4025)" font-family="'Line-UltraLight'" font-size="3">CLOUD </text>
<text transform="matrix(1 0 0 1 20.9214 82.0025)" font-family="'Line-UltraLight'" font-size="3">SERVICE </text>
<text transform="matrix(1 0 0 1 20.7214 85.6025)" font-family="'Line-UltraLight'" font-size="3">PRIVACY </text>
<text transform="matrix(1 0 0 1 21.5214 89.2025)" font-family="'Line-UltraLight'" font-size="3">ISSUES</text>
<rect x="68.1" y="77.2" fill="none" width="28.5" height="7.3"/>
<text transform="matrix(1 0 0 1 68.7895 79.1808)" font-family="'Line-UltraLight'" font-size="3">SYNCHRONIZATION </text>
<text transform="matrix(1 0 0 1 77.0895 82.7808)" font-family="'Line-UltraLight'" font-size="3">ISSUES</text>
<line fill="none" stroke="#000000" stroke-width="0.25" stroke-linecap="round" stroke-miterlimit="10" x1="33.9" y1="17.2" x2="68" y2="76.3"/>
<line fill="none" stroke="#000000" stroke-width="0.25" stroke-linecap="round" stroke-miterlimit="10" x1="33.9" y1="76.3" x2="68" y2="17.2"/>
<line fill="none" stroke="#000000" stroke-width="0.25" stroke-linecap="round" stroke-miterlimit="10" x1="85.1" y1="46.8" x2="17" y2="46.8"/>
<ellipse fill="#FFFFFF" cx="50.9" cy="46.8" rx="11.1" ry="8.2"/>
<ellipse fill="#FFFFFF" stroke="#A90D15" stroke-width="0.25" stroke-miterlimit="10" cx="50.9" cy="46.8" rx="11.1" ry="8.2"/>
<text transform="matrix(1 0 0 1 42.6633 48.0183)" font-family="'Line-UltraLight'" font-size="3">THE CLIENT</text>
</svg>
