<?xml version="1.0" encoding="utf-8"?>
<!-- Generator: Adobe Illustrator 18.1.0, SVG Export Plug-In . SVG Version: 6.00 Build 0)  -->
<!DOCTYPE svg PUBLIC "-//W3C//DTD SVG 1.1//EN" "http://www.w3.org/Graphics/SVG/1.1/DTD/svg11.dtd">
<svg version="1.1" id="Layer_1" xmlns="http://www.w3.org/2000/svg" xmlns:xlink="http://www.w3.org/1999/xlink" x="0px" y="0px"
	 viewBox="0 0 1496 975" enable-background="new 0 0 1496 975" xml:space="preserve">
	<!--DEVICES-->
<g>
	<g>
		<circle fill="none" stroke="#A90D15" stroke-miterlimit="10" stroke-dasharray="4.0296,4.0296" cx="753.7" cy="876.1" r="68"/>
		<animateTransform  fill="remove" type="rotate" restart="always" calcMode="linear" from="0 753.7 876.1" to="360 753.7 876.1" additive="replace" accumulate="none" dur="7s" attributeName="transform" repeatCount="indefinite" attributeType="xml">
		</animateTransform>
	</g>
	<g>
		<path fill="#A90D15" d="M729.9,870.4h-4.5v4.3h4.5c1.7,0,1.9-0.8,1.9-2.1C731.8,871.1,731.6,870.4,729.9,870.4z"/>
		<path fill="#A90D15" d="M713.4,833.9V919h85.1v-85.1H713.4z M729.9,876.2h-6v-7.3h6c2.6,0,3.5,1.2,3.5,3.6
			C733.4,874.9,732.5,876.2,729.9,876.2z M743.8,870.3H738c-1.4,0-1.8,0.5-2,1.5h7.6v1.4h-7.6c0.1,1,0.5,1.5,2,1.5h5.8v1.5H738
			c-2.6,0-3.5-1.2-3.5-3.6c0-2.4,0.9-3.6,3.5-3.6h5.8V870.3z M752.1,874.7c-0.4,0.9-1,1.5-2.3,1.5c-1.2,0-1.8-0.6-2.3-1.5l-2.9-5.8
			h1.7l2.7,5.4c0.2,0.3,0.4,0.5,0.8,0.5s0.6-0.2,0.8-0.5l2.7-5.4h1.7L752.1,874.7z M757.6,876.2h-1.5v-7.3h1.5V876.2z M768.4,870.4
			h-5.8c-1.7,0-2,0.8-2,2.2c0,1.4,0.2,2.1,2,2.1h5.8v1.5h-5.8c-2.6,0-3.5-1.2-3.5-3.6c0-2.4,0.9-3.6,3.5-3.6h5.8V870.4z
			 M778.7,870.3h-5.8c-1.4,0-1.8,0.5-2,1.5h7.6v1.4h-7.6c0.1,1,0.5,1.5,2,1.5h5.8v1.5h-5.8c-2.6,0-3.5-1.2-3.5-3.6
			c0-2.4,0.9-3.6,3.5-3.6h5.8V870.3z M786.3,876.2h-6.4v-1.4h6.5c0.9,0,1.2-0.3,1.2-0.7c0-0.5-0.4-0.7-1.5-0.8l-3.5-0.3
			c-1.6-0.1-2.6-0.7-2.6-2.1c0-1.5,1.3-2.1,2.8-2.1h5.9v1.4h-6c-0.7,0-1.1,0.2-1.1,0.7c0,0.4,0.3,0.6,1.5,0.7l3.3,0.3
			c1.7,0.1,2.8,0.7,2.8,2.1C789.1,875.3,788.4,876.2,786.3,876.2z"/>
	</g>
</g>
	<!--END DEVICES-->
	<!--OS-->
<g>
	<circle fill="none" stroke="#A81E23" stroke-width="2" stroke-miterlimit="10" cx="559.9" cy="834.9" r="56.6"/>
	<g>
		<g>
			<polyline fill="none" stroke="#A90D15" stroke-miterlimit="10" points="523.1,807.9 523.1,797.8 533.3,797.8 			"/>
			
				<line fill="none" stroke="#A90D15" stroke-miterlimit="10" stroke-dasharray="10.4,10.4" x1="550.9" y1="797.8" x2="577.3" y2="797.8"/>
			<polyline fill="none" stroke="#A90D15" stroke-miterlimit="10" points="586.2,797.8 596.3,797.8 596.3,807.9 			"/>
			
				<line fill="none" stroke="#A90D15" stroke-miterlimit="10" stroke-dasharray="10.4,10.4" x1="596.3" y1="825.6" x2="596.3" y2="852"/>
			<polyline fill="none" stroke="#A90D15" stroke-miterlimit="10" points="596.3,860.8 596.3,871 586.2,871 			"/>
			
				<line fill="none" stroke="#A90D15" stroke-miterlimit="10" stroke-dasharray="10.4,10.4" x1="568.5" y1="871" x2="542.1" y2="871"/>
			<polyline fill="none" stroke="#A90D15" stroke-miterlimit="10" points="533.3,871 523.1,871 523.1,860.8 			"/>
			
				<line fill="none" stroke="#A90D15" stroke-miterlimit="10" stroke-dasharray="10.4,10.4" x1="523.1" y1="843.2" x2="523.1" y2="816.8"/>
		<animateTransform  fill="remove" type="rotate" restart="always" calcMode="linear" from="0 559.9 834.9" to="360 559.9 834.9" additive="replace" accumulate="none" dur="7s" attributeName="transform" repeatCount="indefinite" attributeType="xml">
		</animateTransform>
		</g>
	</g>
	<g>
		<path fill="#A81E23" d="M556.8,830.9c-1.4,0-2.1,0.2-2.1,1.3c0,1.2,0.7,1.3,2.1,1.3c1.4,0,2.1-0.2,2.1-1.3
			C558.8,831,558.1,830.9,556.8,830.9z"/>
		<path fill="#A81E23" d="M559.2,806.9c-14.9,0-26.9,12.1-26.9,26.9c0,14.9,12.1,26.9,26.9,26.9c14.9,0,26.9-12.1,26.9-26.9
			C586.2,818.9,574.1,806.9,559.2,806.9z M556.8,834.4c-2,0-3-0.5-3-2.2c0-1.6,1-2.2,3-2.2c2,0,3,0.5,3,2.2
			C559.7,833.9,558.8,834.4,556.8,834.4z M564.1,834.3h-3.7v-0.8h3.8c0.5,0,0.7-0.2,0.7-0.4c0-0.3-0.3-0.4-0.9-0.5l-2.1-0.2
			c-1-0.1-1.5-0.4-1.5-1.2c0-0.9,0.8-1.2,1.6-1.2h3.4v0.8H562c-0.4,0-0.7,0.1-0.7,0.4c0,0.2,0.2,0.4,0.9,0.4l2,0.2
			c1,0.1,1.6,0.4,1.6,1.3C565.8,833.8,565.3,834.3,564.1,834.3z"/>
	</g>
</g>
<!--END OS-->
<!--NETWORK-->
<g>
	<circle fill="none" stroke="#A81E23" stroke-width="2" stroke-miterlimit="10" cx="660.7" cy="735.9" r="53.7"/>
	<g>
		<g>
			<polyline fill="none" stroke="#A90D15" stroke-miterlimit="10" points="625.8,710.4 625.8,700.7 635.5,700.7 			"/>
			
				<line fill="none" stroke="#A90D15" stroke-miterlimit="10" stroke-dasharray="10.4,10.4" x1="652.2" y1="700.7" x2="677.3" y2="700.7"/>
			<polyline fill="none" stroke="#A90D15" stroke-miterlimit="10" points="685.6,700.7 695.3,700.7 695.3,710.4 			"/>
			
				<line fill="none" stroke="#A90D15" stroke-miterlimit="10" stroke-dasharray="10.4,10.4" x1="695.3" y1="727.1" x2="695.3" y2="752.2"/>
			<polyline fill="none" stroke="#A90D15" stroke-miterlimit="10" points="695.3,760.5 695.3,770.2 685.6,770.2 			"/>
			
				<line fill="none" stroke="#A90D15" stroke-miterlimit="10" stroke-dasharray="10.4,10.4" x1="668.9" y1="770.2" x2="643.8" y2="770.2"/>
			<polyline fill="none" stroke="#A90D15" stroke-miterlimit="10" points="635.5,770.2 625.8,770.2 625.8,760.5 			"/>
			
				<line fill="none" stroke="#A90D15" stroke-miterlimit="10" stroke-dasharray="10.4,10.4" x1="625.8" y1="743.8" x2="625.8" y2="718.7"/>
		</g>
		
			<animateTransform  type="rotate" fill="remove" from="0 660.7 735.9" to="360 660.7 735.9" accumulate="none" attributeName="transform" additive="replace" restart="always" calcMode="linear" dur="5s" attributeType="xml" repeatCount="indefinite">
			</animateTransform>
	</g>
	<g>
		<path fill="#A81E23" d="M675,732.5h-2.7v1.2h2.7c0.5,0,0.7-0.3,0.7-0.6C675.7,732.9,675.5,732.5,675,732.5z"/>
		<path fill="#A81E23" d="M667.8,732.5c-1.3,0-2,0.2-2,1.3c0,1.1,0.6,1.3,2,1.3s2-0.2,2-1.3C669.8,732.7,669.1,732.5,667.8,732.5z"
			/>
		<path fill="#A81E23" d="M660.1,709.4c-14.1,0-25.5,11.4-25.5,25.5c0,14.1,11.4,25.5,25.5,25.5s25.5-11.4,25.5-25.5
			C685.6,720.8,674.2,709.4,660.1,709.4z M645,735.8h-0.6c-1,0-1.3-0.3-2.4-1.8c-1-1.3-1.1-1.4-1.5-1.4h0v3.2h-0.8v-4h0.6
			c1.1,0,1.4,0.3,2.4,1.8c1,1.3,1,1.4,1.5,1.4h0v-3.2h0.8V735.8z M650.9,732.6h-3.2c-0.8,0-1,0.3-1.1,0.8h4.2v0.8h-4.2
			c0.1,0.5,0.3,0.8,1.1,0.8h3.2v0.8h-3.2c-1.4,0-1.9-0.7-1.9-2s0.5-2,1.9-2h3.2V732.6z M656.3,732.6h-2v3.3h-0.8v-3.3h-2v-0.8h4.8
			V732.6z M663.3,735.1c-0.3,0.7-0.8,0.8-1.2,0.8c-0.5,0-0.9-0.2-1.2-0.8l-0.3-0.6l-0.3,0.6c-0.3,0.5-0.7,0.8-1.2,0.8
			c-0.4,0-0.9-0.1-1.2-0.8l-1.5-3.3h0.9l1.3,2.9c0.1,0.3,0.2,0.3,0.4,0.3c0.2,0,0.3-0.1,0.5-0.3l0.6-1.2l-0.9-1.8h0.8l0.5,1l0.5-1
			h0.8l-0.9,1.8l0.6,1.2c0.1,0.2,0.2,0.3,0.5,0.3c0.2,0,0.3-0.1,0.4-0.3l1.3-2.9h0.9L663.3,735.1z M667.8,735.9
			c-1.9,0-2.8-0.5-2.8-2.1s0.9-2.1,2.8-2.1c1.9,0,2.8,0.5,2.8,2.1S669.7,735.9,667.8,735.9z M676.4,735v0.8h-0.9V735
			c0-0.2-0.1-0.5-0.7-0.5h-2.6v1.3h-0.8v-4h3.5c1,0,1.6,0.4,1.6,1.3c0,0.6-0.3,0.9-0.8,1.1C676.2,734.3,676.4,734.6,676.4,735z
			 M680.4,734.6c-0.1-0.2-0.4-0.5-0.8-0.5h-1.4v1.7h-0.8v-4h0.8v1.6h1.3c0.4,0,0.7-0.3,0.8-0.5l0.9-1.1h1.1l-1.3,1.5
			c-0.2,0.2-0.3,0.4-0.6,0.5c0.3,0.1,0.6,0.3,0.7,0.5l1.3,1.5h-1.1L680.4,734.6z"/>
	</g>
</g>
<!--END NETWORK-->
<!--DESKTOP ENVIRONMENT-->
<g>
	<circle fill="none" stroke="#A81E23" stroke-width="2" stroke-miterlimit="10" cx="793.2" cy="713.7" r="50.8"/>
	<g>
		<g>
			<polyline fill="none" stroke="#A90D15" stroke-miterlimit="10" points="760.2,689.5 760.2,680.4 769.3,680.4 			"/>
			
				<line fill="none" stroke="#A90D15" stroke-miterlimit="10" stroke-dasharray="10.4,10.4" x1="785.1" y1="680.4" x2="808.8" y2="680.4"/>
			<polyline fill="none" stroke="#A90D15" stroke-miterlimit="10" points="816.7,680.4 825.9,680.4 825.9,689.5 			"/>
			
				<line fill="none" stroke="#A90D15" stroke-miterlimit="10" stroke-dasharray="10.4,10.4" x1="825.9" y1="705.3" x2="825.9" y2="729"/>
			<polyline fill="none" stroke="#A90D15" stroke-miterlimit="10" points="825.9,736.9 825.9,746.1 816.7,746.1 			"/>
			
				<line fill="none" stroke="#A90D15" stroke-miterlimit="10" stroke-dasharray="10.4,10.4" x1="800.9" y1="746.1" x2="777.2" y2="746.1"/>
			<polyline fill="none" stroke="#A90D15" stroke-miterlimit="10" points="769.3,746.1 760.2,746.1 760.2,736.9 			"/>
			
				<line fill="none" stroke="#A90D15" stroke-miterlimit="10" stroke-dasharray="10.4,10.4" x1="760.2" y1="721.1" x2="760.2" y2="697.4"/>
		</g>
		
			<animateTransform  type="rotate" fill="remove" from="0 793.2 713.7" to="360 793.2 713.7" accumulate="none" attributeName="transform" additive="replace" restart="always" calcMode="linear" dur="5s" attributeType="xml" repeatCount="indefinite">
			</animateTransform>
	</g>
	<g>
		<path fill="#A81E23" d="M801.8,705.7c-1,0-1.5,0.1-1.5,1c0,0.8,0.5,1,1.5,1s1.5-0.1,1.5-1C803.3,705.8,802.8,705.7,801.8,705.7z"
			/>
		<path fill="#A81E23" d="M781.9,706.7c0-0.6-0.1-0.9-0.8-0.9h-1.9v1.8h1.9C781.8,707.6,781.9,707.2,781.9,706.7z"/>
		<path fill="#A81E23" d="M791.6,711c-1,0-1.5,0.1-1.5,1c0,0.8,0.5,1,1.5,1s1.5-0.1,1.5-1C793.1,711.1,792.6,711,791.6,711z"/>
		<path fill="#A81E23" d="M787.8,711h-2.1v0.9h2.1c0.4,0,0.5-0.3,0.5-0.5C788.3,711.3,788.2,711,787.8,711z"/>
		<path fill="#A81E23" d="M807.2,705.7h-2v0.9h2c0.4,0,0.5-0.3,0.5-0.5C807.7,706,807.6,705.7,807.2,705.7z"/>
		<path fill="#A81E23" d="M815.5,711.1v2.5h-0.6v-2.5h-1.5v-0.6h3.3c-1.1-12.3-11.5-21.9-24.1-21.9c-13.3,0-24.2,10.8-24.2,24.2
			c0,13.3,10.8,24.2,24.2,24.2s24.2-10.8,24.2-24.2c0-0.6,0-1.1-0.1-1.7H815.5z M795.8,705.1h3.7v0.6h-1.5v2.5h-0.6v-2.5h-1.5V705.1
			z M787.4,707.6h2.7c0.4,0,0.5-0.1,0.5-0.3c0-0.2-0.2-0.3-0.6-0.3l-1.5-0.1c-0.7-0.1-1.1-0.3-1.1-0.9c0-0.6,0.5-0.9,1.2-0.9h2.5
			v0.6h-2.5c-0.3,0-0.5,0.1-0.5,0.3c0,0.2,0.1,0.3,0.6,0.3l1.4,0.1c0.7,0.1,1.2,0.3,1.2,0.9c0,0.5-0.3,0.9-1.2,0.9h-2.7V707.6z
			 M773.8,711.1h-2.4c-0.6,0-0.8,0.2-0.8,0.6h3.2v0.6h-3.2c0,0.4,0.2,0.6,0.8,0.6h2.4v0.6h-2.4c-1.1,0-1.5-0.5-1.5-1.5
			c0-1,0.4-1.5,1.5-1.5h2.4V711.1z M778.5,713.5H778c-0.8,0-1-0.2-1.8-1.3c-0.8-1-0.8-1.1-1.1-1.1h0v2.4h-0.6v-3h0.4
			c0.8,0,1,0.3,1.8,1.3c0.7,1,0.8,1.1,1.1,1.1h0v-2.4h0.6V713.5z M778.6,705.1h2.5c1.1,0,1.5,0.5,1.5,1.5s-0.4,1.5-1.5,1.5h-2.5
			V705.1z M782,712.9c-0.2,0.4-0.4,0.6-1,0.6s-0.8-0.3-1-0.6l-1.2-2.4h0.7l1.1,2.3c0.1,0.1,0.2,0.2,0.3,0.2s0.2-0.1,0.3-0.2l1.1-2.3
			h0.7L782,712.9z M784.4,713.5h-0.6v-3h0.6V713.5z M783,706.7c0-1,0.4-1.5,1.5-1.5h2.4v0.6h-2.4c-0.6,0-0.8,0.2-0.8,0.6h3.2v0.6
			h-3.2c0,0.4,0.2,0.6,0.8,0.6h2.4v0.6h-2.4C783.4,708.2,783,707.7,783,706.7z M788.9,712.9v0.6h-0.7v-0.6c0-0.2-0.1-0.4-0.5-0.4h-2
			v1h-0.6v-3h2.6c0.7,0,1.2,0.3,1.2,0.9c0,0.4-0.2,0.7-0.6,0.8C788.7,712.4,788.9,712.6,788.9,712.9z M791.6,713.6
			c-1.4,0-2.1-0.4-2.1-1.6c0-1.2,0.7-1.6,2.1-1.6c1.4,0,2.1,0.4,2.1,1.6C793.7,713.2,793,713.6,791.6,713.6z M793.6,706.9h-1.1v1.3
			h-0.6v-3h0.6v1.2h1c0.3,0,0.5-0.3,0.6-0.4l0.6-0.8h0.8l-1,1.1c-0.1,0.1-0.3,0.3-0.5,0.4c0.3,0.1,0.4,0.2,0.5,0.4l1,1.2h-0.8
			l-0.7-0.9C794.1,707.2,793.8,706.9,793.6,706.9z M798.3,713.5h-0.4c-0.8,0-1-0.2-1.8-1.3c-0.8-1-0.8-1.1-1.1-1.1h0v2.4h-0.6v-3
			h0.4c0.8,0,1,0.3,1.8,1.3c0.7,1,0.8,1.1,1.1,1.1h0v-2.4h0.6V713.5z M803.7,713.5h-0.6v-2.4l-1.4,1.7h-0.5l-1.4-1.7v2.4h-0.6v-3
			h0.6c0.2,0,0.3,0.1,0.4,0.2l1.3,1.6l1.3-1.6c0.1-0.1,0.2-0.2,0.4-0.2h0.6V713.5z M801.8,708.2c-1.4,0-2.1-0.4-2.1-1.6
			c0-1.2,0.7-1.6,2.1-1.6c1.4,0,2.1,0.4,2.1,1.6C803.9,707.8,803.2,708.2,801.8,708.2z M808.2,711.1h-2.4c-0.6,0-0.8,0.2-0.8,0.6
			h3.2v0.6H805c0,0.4,0.2,0.6,0.8,0.6h2.4v0.6h-2.4c-1.1,0-1.5-0.5-1.5-1.5c0-1,0.4-1.5,1.5-1.5h2.4V711.1z M807.2,707.2h-2v1h-0.6
			v-3h2.6c0.8,0,1.2,0.5,1.2,1C808.4,706.7,808,707.2,807.2,707.2z M812.9,713.5h-0.4c-0.8,0-1-0.2-1.8-1.3c-0.8-1-0.8-1.1-1.1-1.1
			h0v2.4h-0.6v-3h0.4c0.8,0,1,0.3,1.8,1.3c0.7,1,0.8,1.1,1.1,1.1h0v-2.4h0.6V713.5z"/>
	</g>
</g>
<!--END DESKTOP ENVIRONMENT-->
<!--CARTIDGES-->
<g>
	<circle fill="none" stroke="#A81E23" stroke-width="2" stroke-miterlimit="10" cx="910.5" cy="781.5" r="48.2"/>
	<g>
		<g>
			<polyline fill="none" stroke="#A90D15" stroke-miterlimit="10" points="879.2,758.6 879.2,749.9 887.9,749.9 			"/>
			
				<line fill="none" stroke="#A90D15" stroke-miterlimit="10" stroke-dasharray="10.4,10.4" x1="902.9" y1="749.9" x2="925.4" y2="749.9"/>
			<polyline fill="none" stroke="#A90D15" stroke-miterlimit="10" points="932.9,749.9 941.5,749.9 941.5,758.6 			"/>
			
				<line fill="none" stroke="#A90D15" stroke-miterlimit="10" stroke-dasharray="10.4,10.4" x1="941.5" y1="773.6" x2="941.5" y2="796.1"/>
			<polyline fill="none" stroke="#A90D15" stroke-miterlimit="10" points="941.5,803.6 941.5,812.2 932.9,812.2 			"/>
			
				<line fill="none" stroke="#A90D15" stroke-miterlimit="10" stroke-dasharray="10.4,10.4" x1="917.9" y1="812.2" x2="895.4" y2="812.2"/>
			<polyline fill="none" stroke="#A90D15" stroke-miterlimit="10" points="887.9,812.2 879.2,812.2 879.2,803.6 			"/>
			
				<line fill="none" stroke="#A90D15" stroke-miterlimit="10" stroke-dasharray="10.4,10.4" x1="879.2" y1="788.6" x2="879.2" y2="766.1"/>
		</g>
		
			<animateTransform  type="rotate" fill="remove" from="0 910.5 781.5" to="360 910.5 781.5" accumulate="none" attributeName="transform" additive="replace" restart="always" calcMode="linear" dur="5s" attributeType="xml" repeatCount="indefinite">
			</animateTransform>
	</g>
	<g>
		<path fill="#A81E23" d="M911.3,777.1h-1.9v0.9h1.9c0.4,0,0.5-0.2,0.5-0.4C911.8,777.3,911.7,777.1,911.3,777.1z"/>
		<path fill="#A81E23" d="M916.7,777.1H915v1.7h1.8c0.7,0,0.8-0.3,0.8-0.9C917.5,777.4,917.4,777.1,916.7,777.1z"/>
		<path fill="#A81E23" d="M903.5,777.1h-1.9v0.9h1.9c0.4,0,0.5-0.2,0.5-0.4C904,777.3,903.8,777.1,903.5,777.1z"/>
		<path fill="#A81E23" d="M898.4,777c-0.2,0-0.2,0.1-0.3,0.2l-0.5,0.9h1.6l-0.5-0.9C898.6,777.1,898.6,777,898.4,777z"/>
		<path fill="#A81E23" d="M910,757.7c-12.7,0-22.9,10.3-22.9,22.9c0,12.7,10.3,22.9,22.9,22.9c12.7,0,22.9-10.3,22.9-22.9
			C932.9,767.9,922.6,757.7,910,757.7z M896,777.1h-2.3c-0.7,0-0.8,0.3-0.8,0.9c0,0.6,0.1,0.9,0.8,0.9h2.3v0.6h-2.3
			c-1,0-1.4-0.5-1.4-1.4c0-0.9,0.4-1.4,1.4-1.4h2.3V777.1z M899.8,779.4l-0.4-0.7h-2.1l-0.4,0.7h-0.6l1.2-2.3
			c0.2-0.4,0.4-0.6,0.9-0.6c0.5,0,0.7,0.3,0.9,0.6l1.2,2.3H899.8z M904.5,778.9v0.6h-0.6v-0.6c0-0.2-0.1-0.4-0.5-0.4h-1.9v0.9h-0.6
			v-2.9h2.5c0.7,0,1.1,0.3,1.1,0.9c0,0.4-0.2,0.7-0.6,0.8C904.3,778.3,904.5,778.6,904.5,778.9z M908.4,777.1h-1.4v2.3h-0.6v-2.3
			h-1.4v-0.5h3.5V777.1z M912.4,778.9v0.6h-0.6v-0.6c0-0.2-0.1-0.4-0.5-0.4h-1.9v0.9h-0.6v-2.9h2.5c0.7,0,1.1,0.3,1.1,0.9
			c0,0.4-0.2,0.7-0.6,0.8C912.2,778.3,912.4,778.6,912.4,778.9z M913.6,779.4H913v-2.9h0.6V779.4z M916.7,779.4h-2.4v-2.9h2.4
			c1,0,1.4,0.5,1.4,1.4C918.1,778.9,917.8,779.4,916.7,779.4z M922.2,779.4H920c-1,0-1.4-0.5-1.4-1.4c0-0.9,0.4-1.4,1.4-1.4h2.2v0.6
			H920c-0.7,0-0.8,0.3-0.8,0.9c0,0.6,0.1,0.9,0.8,0.9h1.7v-1h0.6V779.4z M926.4,777.1h-2.3c-0.6,0-0.7,0.2-0.8,0.6h3v0.5h-3
			c0,0.4,0.2,0.6,0.8,0.6h2.3v0.6h-2.3c-1,0-1.4-0.5-1.4-1.4c0-0.9,0.4-1.4,1.4-1.4h2.3V777.1z M929.5,779.4h-2.5v-0.5h2.6
			c0.4,0,0.5-0.1,0.5-0.3c0-0.2-0.2-0.3-0.6-0.3l-1.4-0.1c-0.6-0.1-1-0.3-1-0.8c0-0.6,0.5-0.8,1.1-0.8h2.3v0.5H928
			c-0.3,0-0.4,0.1-0.4,0.3c0,0.2,0.1,0.2,0.6,0.3l1.3,0.1c0.7,0.1,1.1,0.3,1.1,0.9C930.6,779.1,930.3,779.4,929.5,779.4z"/>
	</g>
</g>
<!--END CARTIDGES-->
<!--SECURITY-->
<g>
	<circle fill="none" stroke="#A81E23" stroke-width="2" stroke-miterlimit="10" cx="351.1" cy="540.8" r="69"/>
	<g>
		<g>
			<polyline fill="none" stroke="#A90D15" stroke-miterlimit="10" points="306.2,507.9 306.2,495.5 318.6,495.5 			"/>
			
				<line fill="none" stroke="#A90D15" stroke-miterlimit="10" stroke-dasharray="10.4,10.4" x1="340.1" y1="495.5" x2="372.4" y2="495.5"/>
			<polyline fill="none" stroke="#A90D15" stroke-miterlimit="10" points="383.1,495.5 395.5,495.5 395.5,507.9 			"/>
			
				<line fill="none" stroke="#A90D15" stroke-miterlimit="10" stroke-dasharray="10.4,10.4" x1="395.5" y1="529.4" x2="395.5" y2="561.6"/>
			<polyline fill="none" stroke="#A90D15" stroke-miterlimit="10" points="395.5,572.4 395.5,584.8 383.1,584.8 			"/>
			
				<line fill="none" stroke="#A90D15" stroke-miterlimit="10" stroke-dasharray="10.4,10.4" x1="361.6" y1="584.8" x2="329.4" y2="584.8"/>
			<polyline fill="none" stroke="#A90D15" stroke-miterlimit="10" points="318.6,584.8 306.2,584.8 306.2,572.4 			"/>
			
				<line fill="none" stroke="#A90D15" stroke-miterlimit="10" stroke-dasharray="10.4,10.4" x1="306.2" y1="550.9" x2="306.2" y2="518.6"/>
		</g>
		
			<animateTransform  type="rotate" fill="remove" from="0 351.1 540.8" to="360 351.1 540.8" accumulate="none" attributeName="transform" additive="replace" restart="always" calcMode="linear" dur="5s" attributeType="xml" repeatCount="indefinite">
			</animateTransform>
	</g>
	<g>
		<path fill="#A81E23" d="M350.3,506.6c-18.1,0-32.9,14.7-32.9,32.9s14.7,32.9,32.9,32.9s32.9-14.7,32.9-32.9
			S368.4,506.6,350.3,506.6z M329.9,537.6h-4.5v-1h4.6c0.6,0,0.8-0.2,0.8-0.5c0-0.3-0.3-0.5-1.1-0.6l-2.5-0.2
			c-1.2-0.1-1.9-0.5-1.9-1.5c0-1.1,0.9-1.5,2-1.5h4.2v1h-4.3c-0.5,0-0.8,0.1-0.8,0.5c0,0.3,0.2,0.4,1,0.5l2.4,0.2
			c1.2,0.1,2,0.5,2,1.5C331.9,537,331.4,537.6,329.9,537.6z M339.2,533.4h-4.1c-1,0-1.3,0.4-1.4,1.1h5.4v1h-5.4
			c0.1,0.7,0.4,1.1,1.4,1.1h4.1v1h-4.1c-1.9,0-2.5-0.9-2.5-2.6c0-1.7,0.6-2.6,2.5-2.6h4.1V533.4z M346.7,533.5h-4.1
			c-1.2,0-1.4,0.5-1.4,1.5c0,1,0.2,1.5,1.4,1.5h4.1v1.1h-4.1c-1.9,0-2.5-0.9-2.5-2.6c0-1.7,0.6-2.6,2.5-2.6h4.1V533.5z M354,535.1
			c0,1.9-0.9,2.6-3.2,2.6c-2.3,0-3.2-0.7-3.2-2.6v-2.7h1.1v2.7c0,1.2,0.4,1.5,2.1,1.5c1.7,0,2.1-0.3,2.1-1.5v-2.7h1.1V535.1z
			 M361.6,536.6v1h-1.1v-1c0-0.3-0.2-0.7-0.8-0.7h-3.4v1.7h-1.1v-5.2h4.5c1.3,0,2.1,0.6,2.1,1.6c0,0.7-0.4,1.2-1.1,1.4
			C361.4,535.6,361.6,536,361.6,536.6z M363.9,537.6h-1.1v-5.2h1.1V537.6z M370.9,533.4h-2.6v4.2h-1.1v-4.2h-2.6v-1h6.2V533.4z
			 M375.3,536.1v1.5h-1.1v-1.5c0-0.3-0.4-0.7-0.6-0.9l-2.6-2.8h1.6l1.6,1.9c0.2,0.2,0.4,0.4,0.5,0.7c0.2-0.3,0.4-0.5,0.5-0.7
			l1.6-1.9h1.6l-2.6,2.8C375.7,535.4,375.3,535.8,375.3,536.1z"/>
		<path fill="#A81E23" d="M359.8,533.4h-3.5v1.6h3.5c0.7,0,0.9-0.4,0.9-0.8C360.7,533.8,360.5,533.4,359.8,533.4z"/>
	</g>
</g>
<!--END SECURITY-->
<!--WEB-->
<g>
	<g>
		<circle fill="none" stroke="#A90D15" stroke-miterlimit="10" stroke-dasharray="3.9866,3.9866" cx="271.9" cy="256.9" r="72.3"/>
		<animateTransform  type="rotate" fill="remove" from="0 271.9 256.9" to="360 271.9 256.9" accumulate="none" attributeName="transform" additive="replace" restart="always" calcMode="linear" dur="5s" attributeType="xml" repeatCount="indefinite">
		</animateTransform>
	</g>
	<g>
		<path fill="#A90D15" d="M291,256.3c0-0.5-0.4-0.8-1.2-0.8h-5.3v1.7h5.2C290.6,257.1,291,256.8,291,256.3z"/>
		<path fill="#A90D15" d="M289.9,258.5h-5.3v1.8h5.4c1,0,1.3-0.4,1.3-0.9C291.2,259,290.9,258.5,289.9,258.5z"/>
		<path fill="#A90D15" d="M229,212v90.5h90.5V212H229z M268.2,260.3c-0.6,1.3-1.6,1.6-2.3,1.6c-0.9,0-1.8-0.4-2.3-1.5l-0.6-1.2
			l-0.6,1.2c-0.5,1-1.4,1.5-2.3,1.5c-0.7,0-1.7-0.3-2.3-1.6l-2.8-6.3h1.7l2.5,5.7c0.2,0.5,0.5,0.7,0.9,0.7c0.4,0,0.7-0.2,0.9-0.6
			l1.1-2.3l-1.7-3.4h1.6l0.9,1.9l0.9-1.9h1.6l-1.7,3.4l1.1,2.3c0.2,0.4,0.5,0.6,0.9,0.6c0.4,0,0.6-0.1,0.9-0.7l2.5-5.7h1.7
			L268.2,260.3z M281.3,255.6h-6.1c-1.5,0-2,0.6-2.1,1.6h8.1v1.4h-8.1c0.1,1,0.6,1.6,2.1,1.6h6.1v1.5h-6.1c-2.8,0-3.7-1.3-3.7-3.9
			c0-2.5,1-3.9,3.7-3.9h6.1V255.6z M289.8,261.8H283V254h6.6c2.8,0,3,1.5,3,2c0,1-0.5,1.5-1.3,1.7c1.1,0.3,1.5,1,1.5,1.9
			C292.8,260.9,291.9,261.8,289.8,261.8z"/>
	</g>
</g>
<!--END WEB-->
<!--STORE-->
<g>
	<circle fill="none" stroke="#A81E23" stroke-width="2" stroke-miterlimit="10" cx="274.5" cy="84.7" r="44.4"/>
	<g>
		<g>
			<polyline fill="none" stroke="#A90D15" stroke-miterlimit="10" points="245.7,63.6 245.7,55.6 253.7,55.6 			"/>
			
				<line fill="none" stroke="#A90D15" stroke-miterlimit="10" stroke-dasharray="10.4,10.4" x1="267.5" y1="55.6" x2="288.2" y2="55.6"/>
			<polyline fill="none" stroke="#A90D15" stroke-miterlimit="10" points="295.1,55.6 303.1,55.6 303.1,63.6 			"/>
			
				<line fill="none" stroke="#A90D15" stroke-miterlimit="10" stroke-dasharray="10.4,10.4" x1="303.1" y1="77.4" x2="303.1" y2="98.2"/>
			<polyline fill="none" stroke="#A90D15" stroke-miterlimit="10" points="303.1,105.1 303.1,113.1 295.1,113.1 			"/>
			
				<line fill="none" stroke="#A90D15" stroke-miterlimit="10" stroke-dasharray="10.4,10.4" x1="281.3" y1="113.1" x2="260.6" y2="113.1"/>
			<polyline fill="none" stroke="#A90D15" stroke-miterlimit="10" points="253.7,113.1 245.7,113.1 245.7,105.1 			"/>
			
				<line fill="none" stroke="#A90D15" stroke-miterlimit="10" stroke-dasharray="10.4,10.4" x1="245.7" y1="91.3" x2="245.7" y2="70.5"/>
		</g>
		
			<animateTransform  type="rotate" fill="remove" from="0 274.5 84.7" to="360 274.5 84.7" accumulate="none" attributeName="transform" additive="replace" restart="always" calcMode="linear" dur="5s" attributeType="xml" repeatCount="indefinite">
			</animateTransform>
	</g>
	<g>
		<path fill="#A81E23" d="M273.7,81.7c-1.1,0-1.6,0.1-1.6,1.1c0,0.9,0.5,1.1,1.6,1.1c1.1,0,1.6-0.1,1.6-1.1
			C275.3,81.8,274.8,81.7,273.7,81.7z"/>
		<path fill="#A81E23" d="M279.6,81.7h-2.2v1h2.2c0.4,0,0.6-0.3,0.6-0.5C280.2,82,280,81.7,279.6,81.7z"/>
		<path fill="#A81E23" d="M274,62.8c-11.7,0-21.1,9.5-21.1,21.1S262.3,105,274,105c11.7,0,21.1-9.5,21.1-21.1S285.7,62.8,274,62.8z
			 M265.5,84.4h-2.9v-0.6h3c0.4,0,0.5-0.1,0.5-0.3c0-0.2-0.2-0.3-0.7-0.4l-1.6-0.1c-0.7-0.1-1.2-0.3-1.2-0.9c0-0.7,0.6-1,1.3-1h2.7
			v0.6h-2.8c-0.3,0-0.5,0.1-0.5,0.3c0,0.2,0.1,0.3,0.7,0.3l1.5,0.1c0.8,0.1,1.3,0.3,1.3,1C266.8,84,266.5,84.4,265.5,84.4z
			 M271.1,81.7h-1.7v2.7h-0.7v-2.7h-1.7v-0.6h4V81.7z M273.7,84.4c-1.6,0-2.3-0.4-2.3-1.7c0-1.3,0.7-1.7,2.3-1.7
			c1.6,0,2.3,0.4,2.3,1.7C276,84,275.3,84.4,273.7,84.4z M280.8,83.7v0.7h-0.7v-0.7c0-0.2-0.1-0.4-0.5-0.4h-2.2v1.1h-0.7v-3.3h2.9
			c0.8,0,1.3,0.4,1.3,1c0,0.5-0.2,0.8-0.7,0.9C280.6,83.1,280.8,83.4,280.8,83.7z M285.7,81.7H283c-0.7,0-0.8,0.2-0.9,0.7h3.5V83
			h-3.5c0,0.4,0.2,0.7,0.9,0.7h2.6v0.7H283c-1.2,0-1.6-0.6-1.6-1.7c0-1.1,0.4-1.7,1.6-1.7h2.6V81.7z"/>
	</g>
</g>
<!--END STORE-->
<!--EDUCATION-->
<g>
	<circle fill="none" stroke="#A81E23" stroke-width="2" stroke-miterlimit="10" cx="379" cy="137.6" r="47.4"/>
	<g>
		<g>
			<polyline fill="none" stroke="#A90D15" stroke-miterlimit="10" points="348.2,115 348.2,106.5 356.7,106.5 			"/>
			
				<line fill="none" stroke="#A90D15" stroke-miterlimit="10" stroke-dasharray="10.4,10.4" x1="371.5" y1="106.5" x2="393.6" y2="106.5"/>
			<polyline fill="none" stroke="#A90D15" stroke-miterlimit="10" points="401,106.5 409.5,106.5 409.5,115 			"/>
			
				<line fill="none" stroke="#A90D15" stroke-miterlimit="10" stroke-dasharray="10.4,10.4" x1="409.5" y1="129.8" x2="409.5" y2="151.9"/>
			<polyline fill="none" stroke="#A90D15" stroke-miterlimit="10" points="409.5,159.3 409.5,167.8 401,167.8 			"/>
			
				<line fill="none" stroke="#A90D15" stroke-miterlimit="10" stroke-dasharray="10.4,10.4" x1="386.3" y1="167.8" x2="364.1" y2="167.8"/>
			<polyline fill="none" stroke="#A90D15" stroke-miterlimit="10" points="356.7,167.8 348.2,167.8 348.2,159.3 			"/>
			
				<line fill="none" stroke="#A90D15" stroke-miterlimit="10" stroke-dasharray="10.4,10.4" x1="348.2" y1="144.5" x2="348.2" y2="122.4"/>
		</g>
		
			<animateTransform  type="rotate" fill="remove" from="0 379 137.6" to="360 379 137.6" accumulate="none" attributeName="transform" additive="replace" restart="always" calcMode="linear" dur="5s" attributeType="xml" repeatCount="indefinite">
			</animateTransform>
	</g>
	<g>
		<path fill="#A81E23" d="M392,134.2c-1.2,0-1.7,0.1-1.7,1.1c0,1,0.6,1.1,1.7,1.1s1.7-0.1,1.7-1.1
			C393.7,134.3,393.2,134.2,392,134.2z"/>
		<path fill="#A81E23" d="M381,134.2c-0.2,0-0.3,0.1-0.4,0.2l-0.6,1.2h1.9l-0.6-1.2C381.3,134.3,381.2,134.2,381,134.2z"/>
		<path fill="#A81E23" d="M378.5,114.1c-12.5,0-22.6,10.1-22.6,22.6s10.1,22.6,22.6,22.6c12.5,0,22.6-10.1,22.6-22.6
			S390.9,114.1,378.5,114.1z M362.4,134.3h-2.8c-0.7,0-0.9,0.3-1,0.7h3.7v0.7h-3.7c0.1,0.5,0.3,0.7,1,0.7h2.8v0.7h-2.8
			c-1.3,0-1.7-0.6-1.7-1.8c0-1.2,0.4-1.8,1.7-1.8h2.8V134.3z M366.1,137.1h-2.9v-3.6h2.9c1.3,0,1.7,0.6,1.7,1.8
			C367.8,136.5,367.4,137.1,366.1,137.1z M372.9,135.4c0,1.3-0.6,1.8-2.2,1.8c-1.6,0-2.2-0.5-2.2-1.8v-1.8h0.7v1.8
			c0,0.9,0.3,1,1.5,1c1.2,0,1.5-0.2,1.5-1v-1.8h0.7V135.4z M378.1,134.3h-2.8c-0.9,0-1,0.4-1,1.1c0,0.7,0.1,1,1,1h2.8v0.7h-2.8
			c-1.3,0-1.7-0.6-1.7-1.8c0-1.2,0.4-1.8,1.7-1.8h2.8V134.3z M382.8,137.1l-0.5-0.9h-2.6l-0.5,0.9h-0.8l1.5-2.9
			c0.2-0.4,0.5-0.8,1.1-0.8c0.6,0,0.9,0.3,1.1,0.8l1.5,2.9H382.8z M387.5,134.2h-1.8v2.9H385v-2.9h-1.8v-0.7h4.3V134.2z
			 M388.8,137.1h-0.7v-3.6h0.7V137.1z M392,137.2c-1.7,0-2.5-0.5-2.5-1.8c0-1.4,0.8-1.8,2.5-1.8c1.7,0,2.5,0.5,2.5,1.8
			C394.5,136.7,393.7,137.2,392,137.2z M399.3,137.1c-0.9,0-1.1-0.3-2.1-1.6c-0.9-1.2-0.9-1.2-1.3-1.2h0v2.8h-0.7v-3.6h0.5
			c1,0,1.2,0.3,2.1,1.5c0.8,1.2,0.9,1.3,1.3,1.3h0v-2.8h0.7v3.6H399.3z"/>
		<path fill="#A81E23" d="M366.1,134.3h-2.2v2.1h2.2c0.8,0,1-0.4,1-1C367.1,134.7,367,134.3,366.1,134.3z"/>
	</g>
</g>
<!--END EDUCATION-->
<!--BUSINESS-->
<g>
	<circle fill="none" stroke="#A81E23" stroke-width="2" stroke-miterlimit="10" cx="413.8" cy="254.9" r="43.2"/>
	<g>
		<g>
			<polyline fill="none" stroke="#A90D15" stroke-miterlimit="10" points="385.7,234.4 385.7,226.6 393.5,226.6 			"/>
			
				<line fill="none" stroke="#A90D15" stroke-miterlimit="10" stroke-dasharray="10.4,10.4" x1="406.9" y1="226.6" x2="427.1" y2="226.6"/>
			<polyline fill="none" stroke="#A90D15" stroke-miterlimit="10" points="433.8,226.6 441.6,226.6 441.6,234.4 			"/>
			
				<line fill="none" stroke="#A90D15" stroke-miterlimit="10" stroke-dasharray="10.4,10.4" x1="441.6" y1="247.8" x2="441.6" y2="268"/>
			<polyline fill="none" stroke="#A90D15" stroke-miterlimit="10" points="441.6,274.7 441.6,282.4 433.8,282.4 			"/>
			
				<line fill="none" stroke="#A90D15" stroke-miterlimit="10" stroke-dasharray="10.4,10.4" x1="420.4" y1="282.4" x2="400.2" y2="282.4"/>
			<polyline fill="none" stroke="#A90D15" stroke-miterlimit="10" points="393.5,282.4 385.7,282.4 385.7,274.7 			"/>
			
				<line fill="none" stroke="#A90D15" stroke-miterlimit="10" stroke-dasharray="10.4,10.4" x1="385.7" y1="261.2" x2="385.7" y2="241.1"/>
		</g>
		
			<animateTransform  type="rotate" fill="remove" from="0 413.8 254.9" to="360 413.8 254.9" accumulate="none" attributeName="transform" additive="replace" restart="always" calcMode="linear" dur="5s" attributeType="xml" repeatCount="indefinite">
			</animateTransform>
	</g>
	<g>
		<path fill="#A81E23" d="M400.9,252c0-0.2-0.2-0.4-0.5-0.4h-2.2v0.7h2.2C400.7,252.3,400.9,252.2,400.9,252z"/>
		<path fill="#A81E23" d="M400.4,252.9h-2.2v0.8h2.3c0.4,0,0.5-0.2,0.5-0.4S400.8,252.9,400.4,252.9z"/>
		<path fill="#A81E23" d="M413.3,233.5c-11.3,0-20.5,9.2-20.5,20.5c0,11.3,9.2,20.5,20.5,20.5c11.3,0,20.5-9.2,20.5-20.5
			C433.8,242.7,424.6,233.5,413.3,233.5z M400.4,254.2h-2.8V251h2.8c1.2,0,1.2,0.6,1.2,0.9c0,0.4-0.2,0.6-0.6,0.7
			c0.4,0.1,0.6,0.4,0.6,0.8C401.6,253.9,401.2,254.2,400.4,254.2z M406.2,252.7c0,1.2-0.5,1.6-2,1.6c-1.5,0-2-0.4-2-1.6V251h0.7v1.7
			c0,0.8,0.3,1,1.3,1s1.3-0.2,1.3-1V251h0.7V252.7z M409.7,254.2h-2.8v-0.6h2.9c0.4,0,0.5-0.1,0.5-0.3c0-0.2-0.2-0.3-0.7-0.4
			l-1.6-0.1c-0.7-0.1-1.2-0.3-1.2-0.9c0-0.7,0.6-0.9,1.2-0.9h2.6v0.6H408c-0.3,0-0.5,0.1-0.5,0.3c0,0.2,0.1,0.3,0.7,0.3l1.5,0.1
			c0.8,0.1,1.3,0.3,1.3,1C410.9,253.8,410.6,254.2,409.7,254.2z M412.2,254.2h-0.7V251h0.7V254.2z M417.3,254.2h-0.5
			c-0.8,0-1-0.3-1.9-1.4c-0.8-1.1-0.9-1.1-1.2-1.1h0v2.5H413V251h0.5c0.9,0,1.1,0.3,1.9,1.4c0.8,1.1,0.8,1.1,1.2,1.1h0V251h0.7
			V254.2z M422,251.6h-2.6c-0.6,0-0.8,0.2-0.9,0.7h3.4v0.6h-3.4c0,0.4,0.2,0.7,0.9,0.7h2.6v0.6h-2.6c-1.2,0-1.6-0.6-1.6-1.6
			c0-1.1,0.4-1.6,1.6-1.6h2.6V251.6z M425.4,254.2h-2.8v-0.6h2.9c0.4,0,0.5-0.1,0.5-0.3c0-0.2-0.2-0.3-0.7-0.4l-1.6-0.1
			c-0.7-0.1-1.2-0.3-1.2-0.9c0-0.7,0.6-0.9,1.2-0.9h2.6v0.6h-2.7c-0.3,0-0.5,0.1-0.5,0.3c0,0.2,0.1,0.3,0.7,0.3l1.5,0.1
			c0.8,0.1,1.3,0.3,1.3,1C426.7,253.8,426.3,254.2,425.4,254.2z M430,254.2h-2.8v-0.6h2.9c0.4,0,0.5-0.1,0.5-0.3
			c0-0.2-0.2-0.3-0.7-0.4l-1.6-0.1c-0.7-0.1-1.2-0.3-1.2-0.9c0-0.7,0.6-0.9,1.2-0.9h2.6v0.6h-2.7c-0.3,0-0.5,0.1-0.5,0.3
			c0,0.2,0.1,0.3,0.7,0.3l1.5,0.1c0.8,0.1,1.3,0.3,1.3,1C431.2,253.8,430.9,254.2,430,254.2z"/>
	</g>
</g>
<!--END BUSINESS-->
<!--UPDATES-->
<g>
	<circle fill="none" stroke="#A81E23" stroke-width="2" stroke-miterlimit="10" cx="152.6" cy="378.9" r="46.8"/>
	<g>
		<g>
			<polyline fill="none" stroke="#A90D15" stroke-miterlimit="10" points="122.2,356.6 122.2,348.2 130.6,348.2 			"/>
			
				<line fill="none" stroke="#A90D15" stroke-miterlimit="10" stroke-dasharray="10.4,10.4" x1="145.2" y1="348.2" x2="167" y2="348.2"/>
			<polyline fill="none" stroke="#A90D15" stroke-miterlimit="10" points="174.3,348.2 182.7,348.2 182.7,356.6 			"/>
			
				<line fill="none" stroke="#A90D15" stroke-miterlimit="10" stroke-dasharray="10.4,10.4" x1="182.7" y1="371.2" x2="182.7" y2="393"/>
			<polyline fill="none" stroke="#A90D15" stroke-miterlimit="10" points="182.7,400.3 182.7,408.7 174.3,408.7 			"/>
			
				<line fill="none" stroke="#A90D15" stroke-miterlimit="10" stroke-dasharray="10.4,10.4" x1="159.7" y1="408.7" x2="137.9" y2="408.7"/>
			<polyline fill="none" stroke="#A90D15" stroke-miterlimit="10" points="130.6,408.7 122.2,408.7 122.2,400.3 			"/>
			
				<line fill="none" stroke="#A90D15" stroke-miterlimit="10" stroke-dasharray="10.4,10.4" x1="122.2" y1="385.8" x2="122.2" y2="363.9"/>
		</g>
		
			<animateTransform  type="rotate" fill="remove" from="0 152.6 378.9" to="360 152.6 378.9" accumulate="none" attributeName="transform" additive="replace" restart="always" calcMode="linear" dur="5s" attributeType="xml" repeatCount="indefinite">
			</animateTransform>
	</g>
	<g>
		<path fill="#A81E23" d="M148.8,373.3h-2.1v2.1h2.1c0.8,0,0.9-0.4,0.9-1C149.8,373.7,149.7,373.3,148.8,373.3z"/>
		<path fill="#A81E23" d="M152,355.8c-12.3,0-22.2,10-22.2,22.2c0,12.3,10,22.2,22.2,22.2c12.3,0,22.2-10,22.2-22.2
			C174.3,365.7,164.3,355.8,152,355.8z M140.1,374.4c0,1.3-0.6,1.7-2.2,1.7s-2.2-0.5-2.2-1.7v-1.8h0.7v1.8c0,0.8,0.3,1,1.4,1
			s1.4-0.2,1.4-1v-1.8h0.7V374.4z M144,375h-2.3v1.1h-0.7v-3.5h3c1,0,1.4,0.5,1.4,1.2C145.4,374.4,144.9,375,144,375z M148.8,376.1
			H146v-3.5h2.9c1.3,0,1.7,0.6,1.7,1.8C150.5,375.5,150.1,376.1,148.8,376.1z M155,376.1l-0.4-0.9h-2.6l-0.4,0.9h-0.8l1.4-2.8
			c0.2-0.4,0.5-0.7,1.1-0.7s0.9,0.3,1.1,0.7l1.4,2.8H155z M159.7,373.3h-1.7v2.8h-0.7v-2.8h-1.7v-0.7h4.2V373.3z M164.4,373.3h-2.8
			c-0.7,0-0.9,0.3-0.9,0.7h3.7v0.7h-3.7c0.1,0.5,0.3,0.7,0.9,0.7h2.8v0.7h-2.8c-1.3,0-1.7-0.6-1.7-1.8c0-1.2,0.4-1.8,1.7-1.8h2.8
			V373.3z M168.1,376.1h-3.1v-0.7h3.1c0.4,0,0.6-0.1,0.6-0.3c0-0.2-0.2-0.4-0.7-0.4l-1.7-0.1c-0.8-0.1-1.3-0.3-1.3-1
			c0-0.7,0.6-1,1.3-1h2.8v0.7h-2.9c-0.3,0-0.5,0.1-0.5,0.3c0,0.2,0.1,0.3,0.7,0.3l1.6,0.1c0.8,0.1,1.4,0.3,1.4,1
			C169.5,375.7,169.1,376.1,168.1,376.1z"/>
		<path fill="#A81E23" d="M144,373.3h-2.3v1.1h2.3c0.5,0,0.6-0.3,0.6-0.5C144.6,373.6,144.5,373.3,144,373.3z"/>
		<path fill="#A81E23" d="M153.2,373.2c-0.2,0-0.3,0.1-0.4,0.2l-0.6,1.1h1.9l-0.6-1.1C153.5,373.3,153.4,373.2,153.2,373.2z"/>
	</g>
</g>
<!--END UPDATES-->
<!--U ACCESS-->
<g>
	<circle fill="none" stroke="#A81E23" stroke-width="2" stroke-miterlimit="10" cx="93" cy="251.5" r="46.7"/>
	<g>
		<g>
			<polyline fill="none" stroke="#A90D15" stroke-miterlimit="10" points="62.6,229.3 62.6,220.9 71,220.9 			"/>
			
				<line fill="none" stroke="#A90D15" stroke-miterlimit="10" stroke-dasharray="10.4,10.4" x1="85.6" y1="220.9" x2="107.4" y2="220.9"/>
			<polyline fill="none" stroke="#A90D15" stroke-miterlimit="10" points="114.7,220.9 123.1,220.9 123.1,229.3 			"/>
			
				<line fill="none" stroke="#A90D15" stroke-miterlimit="10" stroke-dasharray="10.4,10.4" x1="123.1" y1="243.8" x2="123.1" y2="265.7"/>
			<polyline fill="none" stroke="#A90D15" stroke-miterlimit="10" points="123.1,272.9 123.1,281.3 114.7,281.3 			"/>
			
				<line fill="none" stroke="#A90D15" stroke-miterlimit="10" stroke-dasharray="10.4,10.4" x1="100.1" y1="281.3" x2="78.3" y2="281.3"/>
			<polyline fill="none" stroke="#A90D15" stroke-miterlimit="10" points="71,281.3 62.6,281.3 62.6,272.9 			"/>
			
				<line fill="none" stroke="#A90D15" stroke-miterlimit="10" stroke-dasharray="10.4,10.4" x1="62.6" y1="258.4" x2="62.6" y2="236.6"/>
		</g>
		
			<animateTransform  type="rotate" fill="remove" from="0 93 251.5" to="360 93 251.5" accumulate="none" attributeName="transform" additive="replace" restart="always" calcMode="linear" dur="5s" attributeType="xml" repeatCount="indefinite">
			</animateTransform>
	</g>
	<g>
		<path fill="#A81E23" d="M92.4,228.4c-12.3,0-22.2,10-22.2,22.2c0,12.3,10,22.2,22.2,22.2c12.3,0,22.2-10,22.2-22.2
			C114.7,238.4,104.7,228.4,92.4,228.4z M80.5,246.6c0,1.3-0.6,1.7-2.2,1.7s-2.2-0.5-2.2-1.7v-1.8h0.7v1.8c0,0.8,0.3,1,1.4,1
			c1.1,0,1.4-0.2,1.4-1v-1.8h0.7V246.6z M86.6,248.3l-0.4-0.9h-2.6l-0.4,0.9h-0.8l1.4-2.8c0.2-0.4,0.5-0.7,1.1-0.7
			c0.6,0,0.9,0.3,1.1,0.7l1.4,2.8H86.6z M92,245.5h-2.8c-0.8,0-0.9,0.4-0.9,1c0,0.7,0.1,1,0.9,1H92v0.7h-2.8c-1.3,0-1.7-0.6-1.7-1.7
			c0-1.2,0.4-1.7,1.7-1.7H92V245.5z M97,245.5h-2.8c-0.8,0-0.9,0.4-0.9,1c0,0.7,0.1,1,0.9,1H97v0.7h-2.8c-1.3,0-1.7-0.6-1.7-1.7
			c0-1.2,0.4-1.7,1.7-1.7H97V245.5z M101.9,245.5h-2.8c-0.7,0-0.9,0.3-0.9,0.7h3.7v0.7h-3.7c0.1,0.5,0.3,0.7,0.9,0.7h2.8v0.7h-2.8
			c-1.3,0-1.7-0.6-1.7-1.7c0-1.2,0.4-1.7,1.7-1.7h2.8V245.5z M105.6,248.3h-3.1v-0.7h3.1c0.4,0,0.6-0.1,0.6-0.3
			c0-0.2-0.2-0.4-0.7-0.4l-1.7-0.1c-0.8-0.1-1.3-0.3-1.3-1c0-0.7,0.6-1,1.3-1h2.8v0.7h-2.9c-0.3,0-0.5,0.1-0.5,0.3
			c0,0.2,0.1,0.3,0.7,0.3l1.6,0.1c0.8,0.1,1.4,0.3,1.4,1C107,247.9,106.6,248.3,105.6,248.3z M110.5,248.3h-3.1v-0.7h3.1
			c0.4,0,0.6-0.1,0.6-0.3c0-0.2-0.2-0.4-0.7-0.4l-1.7-0.1c-0.8-0.1-1.3-0.3-1.3-1c0-0.7,0.6-1,1.3-1h2.8v0.7h-2.9
			c-0.3,0-0.5,0.1-0.5,0.3c0,0.2,0.1,0.3,0.7,0.3l1.6,0.1c0.8,0.1,1.4,0.3,1.4,1C111.9,247.9,111.5,248.3,110.5,248.3z"/>
		<path fill="#A81E23" d="M84.9,245.4c-0.2,0-0.3,0.1-0.4,0.2l-0.6,1.1h1.9l-0.6-1.1C85.2,245.5,85.1,245.4,84.9,245.4z"/>
	</g>
</g>
<!--END U ACCESS-->
<!--PAYMENTS-->
<g>
	<circle fill="none" stroke="#A81E23" stroke-width="2" stroke-miterlimit="10" cx="146.8" cy="121" r="46.4"/>
	<g>
		<g>
			<polyline fill="none" stroke="#A90D15" stroke-miterlimit="10" points="116.7,98.9 116.7,90.6 125,90.6 			"/>
			
				<line fill="none" stroke="#A90D15" stroke-miterlimit="10" stroke-dasharray="10.4,10.4" x1="139.5" y1="90.6" x2="161.1" y2="90.6"/>
			<polyline fill="none" stroke="#A90D15" stroke-miterlimit="10" points="168.4,90.6 176.7,90.6 176.7,98.9 			"/>
			
				<line fill="none" stroke="#A90D15" stroke-miterlimit="10" stroke-dasharray="10.4,10.4" x1="176.7" y1="113.3" x2="176.7" y2="135"/>
			<polyline fill="none" stroke="#A90D15" stroke-miterlimit="10" points="176.7,142.2 176.7,150.6 168.4,150.6 			"/>
			
				<line fill="none" stroke="#A90D15" stroke-miterlimit="10" stroke-dasharray="10.4,10.4" x1="153.9" y1="150.6" x2="132.2" y2="150.6"/>
			<polyline fill="none" stroke="#A90D15" stroke-miterlimit="10" points="125,150.6 116.7,150.6 116.7,142.2 			"/>
			
				<line fill="none" stroke="#A90D15" stroke-miterlimit="10" stroke-dasharray="10.4,10.4" x1="116.7" y1="127.8" x2="116.7" y2="106.1"/>
		</g>
		
			<animateTransform  type="rotate" fill="remove" from="0 146.8 121" to="360 146.8 121" accumulate="none" attributeName="transform" additive="replace" restart="always" calcMode="linear" dur="5s" attributeType="xml" repeatCount="indefinite">
			</animateTransform>
	</g>
	<g>
		<path fill="#A81E23" d="M130.6,117.2h-2.3v1.1h2.3c0.4,0,0.6-0.3,0.6-0.5C131.2,117.5,131,117.2,130.6,117.2z"/>
		<path fill="#A81E23" d="M134.3,117.1c-0.2,0-0.3,0.1-0.4,0.2l-0.6,1.1h1.9l-0.6-1.1C134.6,117.2,134.5,117.1,134.3,117.1z"/>
		<path fill="#A81E23" d="M146.3,98c-12.2,0-22.1,9.9-22.1,22.1s9.9,22.1,22.1,22.1s22.1-9.9,22.1-22.1S158.5,98,146.3,98z
			 M130.5,118.9h-2.3v1.1h-0.7v-3.5h3c1,0,1.4,0.5,1.4,1.2C131.9,118.3,131.5,118.9,130.5,118.9z M136.1,120l-0.4-0.9h-2.6l-0.4,0.9
			h-0.8l1.4-2.8c0.2-0.4,0.5-0.7,1.1-0.7c0.6,0,0.9,0.3,1.1,0.7l1.4,2.8H136.1z M139.4,118.4c-0.1,0.1-0.4,0.4-0.4,0.6v1h-0.7v-1
			c0-0.2-0.3-0.5-0.4-0.6l-1.7-1.9h1.1l1.1,1.3c0.1,0.1,0.2,0.3,0.3,0.4c0.1-0.2,0.2-0.3,0.4-0.4l1.1-1.3h1.1L139.4,118.4z
			 M146.9,120h-0.7v-2.7l-1.7,2H144l-1.7-2v2.7h-0.7v-3.5h0.7c0.3,0,0.4,0.1,0.5,0.3l1.4,1.8l1.4-1.8c0.1-0.1,0.2-0.3,0.5-0.3h0.7
			V120z M152,117.2h-2.8c-0.7,0-0.9,0.3-0.9,0.7h3.6v0.6h-3.6c0.1,0.5,0.3,0.7,0.9,0.7h2.8v0.7h-2.8c-1.2,0-1.7-0.6-1.7-1.7
			c0-1.1,0.4-1.7,1.7-1.7h2.8V117.2z M157.3,120h-0.5c-0.9,0-1.1-0.3-2.1-1.5c-0.9-1.2-0.9-1.2-1.3-1.2h0v2.7h-0.7v-3.5h0.5
			c0.9,0,1.2,0.3,2.1,1.5c0.8,1.1,0.9,1.2,1.3,1.2h0v-2.7h0.7V120z M162,117.2h-1.7v2.8h-0.7v-2.8h-1.7v-0.7h4.2V117.2z M165.5,120
			h-3v-0.6h3.1c0.4,0,0.6-0.1,0.6-0.3c0-0.2-0.2-0.4-0.7-0.4l-1.7-0.1c-0.8-0.1-1.2-0.3-1.2-1c0-0.7,0.6-1,1.3-1h2.8v0.6h-2.9
			c-0.3,0-0.5,0.1-0.5,0.3c0,0.2,0.1,0.3,0.7,0.3l1.6,0.1c0.8,0.1,1.3,0.3,1.3,1C166.8,119.6,166.4,120,165.5,120z"/>
	</g>
</g>
<!--END PAYMENTS-->
<!--CE PLATFORM-->
<g>
	<circle fill="none" stroke="#A81E23" stroke-width="2" stroke-miterlimit="10" cx="749.3" cy="77.1" r="64.5"/>
	<g>
		<g>
			<polyline fill="none" stroke="#A90D15" stroke-miterlimit="10" points="707.4,46.4 707.4,34.8 719,34.8 			"/>
			
				<line fill="none" stroke="#A90D15" stroke-miterlimit="10" stroke-dasharray="10.4,10.4" x1="739.1" y1="34.8" x2="769.2" y2="34.8"/>
			<polyline fill="none" stroke="#A90D15" stroke-miterlimit="10" points="779.2,34.8 790.8,34.8 790.8,46.4 			"/>
			
				<line fill="none" stroke="#A90D15" stroke-miterlimit="10" stroke-dasharray="10.4,10.4" x1="790.8" y1="66.5" x2="790.8" y2="96.6"/>
			<polyline fill="none" stroke="#A90D15" stroke-miterlimit="10" points="790.8,106.6 790.8,118.2 779.2,118.2 			"/>
			
				<line fill="none" stroke="#A90D15" stroke-miterlimit="10" stroke-dasharray="10.4,10.4" x1="759.1" y1="118.2" x2="729" y2="118.2"/>
			<polyline fill="none" stroke="#A90D15" stroke-miterlimit="10" points="719,118.2 707.4,118.2 707.4,106.6 			"/>
			
				<line fill="none" stroke="#A90D15" stroke-miterlimit="10" stroke-dasharray="10.4,10.4" x1="707.4" y1="86.5" x2="707.4" y2="56.4"/>
		</g>
		
			<animateTransform  type="rotate" fill="remove" from="0 749.3 77.1" to="360 749.3 77.1" accumulate="none" attributeName="transform" additive="replace" restart="always" calcMode="linear" dur="5s" attributeType="xml" repeatCount="indefinite">
			</animateTransform>
	</g>
	<g>
		<path fill="#A81E23" d="M765,74.2h-3.3v1.5h3.3c0.6,0,0.8-0.4,0.8-0.7C765.8,74.7,765.6,74.2,765,74.2z"/>
		<path fill="#A81E23" d="M725.2,74.2H722v1.5h3.2c0.6,0,0.8-0.4,0.8-0.7C726,74.7,725.8,74.2,725.2,74.2z"/>
		<path fill="#A81E23" d="M737.2,74.2c-0.3,0-0.4,0.1-0.5,0.3l-0.8,1.6h2.6l-0.8-1.6C737.5,74.3,737.4,74.2,737.2,74.2z"/>
		<path fill="#A81E23" d="M756.4,74.2c-1.6,0-2.4,0.2-2.4,1.5c0,1.3,0.8,1.5,2.4,1.5c1.6,0,2.4-0.2,2.4-1.5
			C758.8,74.4,758,74.2,756.4,74.2z"/>
		<path fill="#A81E23" d="M748.6,45.2c-16.9,0-30.7,13.7-30.7,30.7s13.7,30.7,30.7,30.7c16.9,0,30.7-13.7,30.7-30.7
			S765.5,45.2,748.6,45.2z M749.6,64.9h3.8v1h-3.8c-0.9,0-1.2,0.4-1.3,1h5v0.9h-5c0.1,0.6,0.4,1,1.3,1h3.8v1h-3.8
			c-1.7,0-2.3-0.8-2.3-2.4C747.3,65.7,747.9,64.9,749.6,64.9z M742.8,64.9h3.8v1h-3.8c-1.2,0-1.3,0.5-1.3,1.4c0,0.9,0.1,1.4,1.3,1.4
			h3.8v1h-3.8c-1.7,0-2.3-0.8-2.3-2.4C740.5,65.7,741.1,64.9,742.8,64.9z M725.1,76.6H722v1.6h-1v-4.8h4.2c1.3,0,1.9,0.7,1.9,1.6
			C727.1,75.8,726.5,76.6,725.1,76.6z M733.4,78.2h-3.2c-1.6,0-2.3-0.6-2.3-2v-2.8h1v2.8c0,0.8,0.3,1,1.3,1h3.2V78.2z M739.5,78.2
			l-0.6-1.2h-3.6l-0.6,1.2h-1.1l2-3.9c0.3-0.6,0.7-1,1.5-1c0.8,0,1.2,0.4,1.5,1l2,3.9H739.5z M746,74.3h-2.4v3.9h-1v-3.9h-2.4v-0.9
			h5.8V74.3z M752.4,74.3h-3.2c-1.2,0-1.6,0.1-1.6,1.1v0.1h4.6v0.9h-4.6v1.7h-1v-2.7c0-1.7,0.9-2.1,2.6-2.1h3.2V74.3z M756.4,78.3
			c-2.3,0-3.4-0.6-3.4-2.5c0-1.9,1.1-2.5,3.4-2.5c2.3,0,3.4,0.6,3.4,2.5C759.8,77.6,758.7,78.3,756.4,78.3z M766.7,77.2v1h-1v-1
			c0-0.3-0.1-0.6-0.8-0.6h-3.2v1.6h-1v-4.8h4.2c1.2,0,1.9,0.5,1.9,1.5c0,0.7-0.4,1.1-1,1.3C766.5,76.3,766.7,76.7,766.7,77.2z
			 M774.2,78.2v-3.8l-2.3,2.8h-0.8l-2.3-2.8v3.8h-1v-4.8h1c0.4,0,0.5,0.2,0.7,0.4l2,2.5l2-2.5c0.1-0.2,0.3-0.4,0.7-0.4h1v4.8H774.2z
			"/>
	</g>
</g>
<!--END CE PLATFORM-->
<!--API PLATFORM-->
<g>
	<circle fill="none" stroke="#A81E23" stroke-width="2" stroke-miterlimit="10" cx="752.1" cy="221.3" r="63"/>
	<g>
		<g>
			<polyline fill="none" stroke="#A90D15" stroke-miterlimit="10" points="711.2,191.4 711.2,180 722.5,180 			"/>
			
				<line fill="none" stroke="#A90D15" stroke-miterlimit="10" stroke-dasharray="10.4,10.4" x1="742.1" y1="180" x2="771.5" y2="180"/>
			<polyline fill="none" stroke="#A90D15" stroke-miterlimit="10" points="781.3,180 792.6,180 792.6,191.4 			"/>
			
				<line fill="none" stroke="#A90D15" stroke-miterlimit="10" stroke-dasharray="10.4,10.4" x1="792.6" y1="211" x2="792.6" y2="240.4"/>
			<polyline fill="none" stroke="#A90D15" stroke-miterlimit="10" points="792.6,250.2 792.6,261.5 781.3,261.5 			"/>
			
				<line fill="none" stroke="#A90D15" stroke-miterlimit="10" stroke-dasharray="10.4,10.4" x1="761.7" y1="261.5" x2="732.3" y2="261.5"/>
			<polyline fill="none" stroke="#A90D15" stroke-miterlimit="10" points="722.5,261.5 711.2,261.5 711.2,250.2 			"/>
			
				<line fill="none" stroke="#A90D15" stroke-miterlimit="10" stroke-dasharray="10.4,10.4" x1="711.2" y1="230.6" x2="711.2" y2="201.2"/>
		</g>
		
			<animateTransform  type="rotate" fill="remove" from="0 752.1 221.3" to="360 752.1 221.3" accumulate="none" attributeName="transform" additive="replace" restart="always" calcMode="linear" dur="5s" attributeType="xml" repeatCount="indefinite">
			</animateTransform>
	</g>
	<g>
		<path fill="#A81E23" d="M759.7,219.3c-1.5,0-2.3,0.2-2.3,1.5c0,1.3,0.8,1.5,2.3,1.5s2.3-0.2,2.3-1.5
			C762,219.4,761.2,219.3,759.7,219.3z"/>
		<path fill="#A81E23" d="M754.3,211h-3.2v1.4h3.2c0.6,0,0.8-0.4,0.8-0.7C755.1,211.4,754.9,211,754.3,211z"/>
		<path fill="#A81E23" d="M729.2,219.3h-3.2v1.4h3.2c0.6,0,0.8-0.4,0.8-0.7C730,219.7,729.8,219.3,729.2,219.3z"/>
		<path fill="#A81E23" d="M740.9,219.2c-0.3,0-0.4,0.1-0.5,0.3l-0.8,1.5h2.6l-0.8-1.5C741.3,219.3,741.2,219.2,740.9,219.2z"/>
		<path fill="#A81E23" d="M751.3,190.2c-16.5,0-30,13.4-30,30s13.4,30,30,30c16.5,0,30-13.4,30-30S767.9,190.2,751.3,190.2z
			 M757,210.1h1v4.7h-1V210.1z M744.6,211.1c0.3-0.6,0.7-1,1.5-1c0.8,0,1.2,0.4,1.5,1l1.9,3.8h-1.1l-0.6-1.2h-3.5l-0.6,1.2h-1.1
			L744.6,211.1z M729.2,221.6h-3.1v1.5h-1v-4.7h4.1c1.3,0,1.9,0.7,1.9,1.6C731.1,220.8,730.5,221.6,729.2,221.6z M737.2,223.1h-3.1
			c-1.6,0-2.3-0.5-2.3-2v-2.8h1v2.8c0,0.8,0.3,1,1.3,1h3.1V223.1z M743.2,223.1l-0.6-1.2h-3.5l-0.6,1.2h-1.1l1.9-3.8
			c0.3-0.6,0.7-1,1.5-1c0.8,0,1.2,0.4,1.5,1l1.9,3.8H743.2z M749.6,219.3h-2.3v3.8h-1v-3.8h-2.3v-0.9h5.7V219.3z M755.8,219.4h-3.1
			c-1.1,0-1.5,0.1-1.5,1.1v0.1h4.5v0.9h-4.5v1.6h-1v-2.6c0-1.6,0.8-2.1,2.5-2.1h3.1V219.4z M754.3,213.3h-3.1v1.5h-1v-4.7h4.1
			c1.3,0,1.9,0.7,1.9,1.6C756.2,212.6,755.6,213.3,754.3,213.3z M759.7,223.2c-2.2,0-3.3-0.6-3.3-2.4c0-1.8,1.1-2.4,3.3-2.4
			c2.2,0,3.3,0.6,3.3,2.4C763,222.6,761.9,223.2,759.7,223.2z M769.8,222.2v0.9h-1v-1c0-0.3-0.1-0.6-0.8-0.6h-3.1v1.6h-1v-4.7h4.1
			c1.2,0,1.9,0.5,1.9,1.5c0,0.7-0.4,1.1-1,1.2C769.5,221.3,769.8,221.7,769.8,222.2z M777.1,223.1v-3.7l-2.2,2.7h-0.8l-2.2-2.7v3.7
			h-1v-4.7h1c0.4,0,0.5,0.2,0.7,0.4l2,2.4l2-2.4c0.1-0.2,0.3-0.4,0.7-0.4h1v4.7H777.1z"/>
		<path fill="#A81E23" d="M768.1,219.3h-3.2v1.4h3.2c0.6,0,0.8-0.4,0.8-0.7C768.9,219.7,768.7,219.3,768.1,219.3z"/>
		<path fill="#A81E23" d="M746.6,211.3c-0.1-0.2-0.2-0.3-0.5-0.3s-0.4,0.1-0.5,0.3l-0.8,1.5h2.6L746.6,211.3z"/>
	</g>
</g>
<!--END API PLATFORM-->
<!--SETTINGS-->
<g>
	<circle fill="none" stroke="#A81E23" stroke-width="2" stroke-miterlimit="10" cx="753.8" cy="365.5" r="63.7"/>
	<g>
		<g>
			<polyline fill="none" stroke="#A90D15" stroke-miterlimit="10" points="712.4,335.1 712.4,323.7 723.8,323.7 			"/>
			
				<line fill="none" stroke="#A90D15" stroke-miterlimit="10" stroke-dasharray="10.4,10.4" x1="743.7" y1="323.7" x2="773.4" y2="323.7"/>
			<polyline fill="none" stroke="#A90D15" stroke-miterlimit="10" points="783.3,323.7 794.8,323.7 794.8,335.1 			"/>
			
				<line fill="none" stroke="#A90D15" stroke-miterlimit="10" stroke-dasharray="10.4,10.4" x1="794.8" y1="355" x2="794.8" y2="384.7"/>
			<polyline fill="none" stroke="#A90D15" stroke-miterlimit="10" points="794.8,394.6 794.8,406.1 783.3,406.1 			"/>
			
				<line fill="none" stroke="#A90D15" stroke-miterlimit="10" stroke-dasharray="10.4,10.4" x1="763.5" y1="406.1" x2="733.7" y2="406.1"/>
			<polyline fill="none" stroke="#A90D15" stroke-miterlimit="10" points="723.8,406.1 712.4,406.1 712.4,394.6 			"/>
			
				<line fill="none" stroke="#A90D15" stroke-miterlimit="10" stroke-dasharray="10.4,10.4" x1="712.4" y1="374.8" x2="712.4" y2="345"/>
		</g>
		
			<animateTransform  type="rotate" fill="remove" from="0 753.8 365.5" to="360 753.8 365.5" accumulate="none" attributeName="transform" additive="replace" restart="always" calcMode="linear" dur="5s" attributeType="xml" repeatCount="indefinite">
			</animateTransform>
	</g>
	<path fill="#A81E23" d="M753,333.9c-16.7,0-30.3,13.6-30.3,30.3c0,16.7,13.6,30.3,30.3,30.3s30.3-13.6,30.3-30.3
		C783.3,347.5,769.8,333.9,753,333.9z M734.8,365.9h-4.2V365h4.2c0.6,0,0.8-0.2,0.8-0.4c0-0.3-0.3-0.5-1-0.5l-2.3-0.2
		c-1.1-0.1-1.7-0.5-1.7-1.3c0-1,0.9-1.4,1.8-1.4h3.9v0.9h-4c-0.5,0-0.7,0.1-0.7,0.4c0,0.3,0.2,0.4,1,0.5l2.2,0.2
		c1.1,0.1,1.8,0.4,1.8,1.4C736.6,365.3,736.1,365.9,734.8,365.9z M743.4,362h-3.8c-0.9,0-1.2,0.4-1.3,1h5v0.9h-5
		c0.1,0.6,0.3,1,1.3,1h3.8v1h-3.8c-1.7,0-2.3-0.8-2.3-2.4c0-1.6,0.6-2.4,2.3-2.4h3.8V362z M749.7,362h-2.4v3.9h-1V362h-2.4v-0.9h5.7
		V362z M755.7,362h-2.4v3.9h-1V362h-2.4v-0.9h5.7V362z M757.4,365.9h-1v-4.8h1V365.9z M764.9,365.9h-0.7c-1.2,0-1.5-0.4-2.8-2.1
		c-1.2-1.6-1.3-1.7-1.7-1.7h0v3.8h-1v-4.8h0.7c1.3,0,1.6,0.4,2.8,2.1c1.1,1.6,1.2,1.7,1.7,1.7h0v-3.8h1V365.9z M771.9,365.9h-3.8
		c-1.7,0-2.3-0.8-2.3-2.4c0-1.6,0.6-2.4,2.3-2.4h3.7v1h-3.7c-1.1,0-1.3,0.5-1.3,1.4c0,0.9,0.1,1.4,1.3,1.4h2.8v-1.6h1V365.9z
		 M776.9,365.9h-4.2V365h4.2c0.6,0,0.8-0.2,0.8-0.4c0-0.3-0.3-0.5-1-0.5l-2.3-0.2c-1.1-0.1-1.7-0.5-1.7-1.3c0-1,0.9-1.4,1.8-1.4h3.9
		v0.9h-4c-0.5,0-0.7,0.1-0.7,0.4c0,0.3,0.2,0.4,1,0.5l2.2,0.2c1.1,0.1,1.8,0.4,1.8,1.4C778.8,365.3,778.3,365.9,776.9,365.9z"/>
</g>
<!--END SETTINGS-->
<!--CUORE SYSTEM-->
<g>
	<g>
		<circle fill="none" stroke="#A90D15" stroke-miterlimit="10" stroke-dasharray="4.0253,4.0253" cx="756.6" cy="527.5" r="62.8"/>
		<animateTransform  type="rotate" fill="remove" from="0 756.6 527.5" to="360 756.6 527.5" accumulate="none" attributeName="transform" additive="replace" restart="always" calcMode="linear" dur="5s" attributeType="xml" repeatCount="indefinite">
		</animateTransform>
	</g>
	<g>
		<path fill="#A90D15" d="M770.5,513.8c0-0.4-0.3-1-1.1-1h-4.5v2h4.5C770.2,514.8,770.5,514.2,770.5,513.8z"/>
		<path fill="#A90D15" d="M757.4,517c2.2,0,3.3-0.3,3.3-2.1c0-1.9-1.1-2.1-3.3-2.1c-2.2,0-3.3,0.3-3.3,2.1
			C754.1,516.7,755.2,517,757.4,517z"/>
		<path fill="#A90D15" d="M719.4,488.5v78.6H798v-78.6H719.4z M763.4,511.5h5.8c1.6,0,2.7,0.7,2.7,2.1c0,0.9-0.5,1.5-1.4,1.8
			c0.9,0.3,1.2,0.8,1.2,1.5v1.3h-1.5v-1.4c0-0.4-0.2-0.9-1.1-0.9h-4.4v2.2h-1.4V511.5z M757.4,511.4c3.2,0,4.7,0.9,4.7,3.5
			c0,2.6-1.5,3.5-4.7,3.5c-3.2,0-4.7-0.9-4.7-3.5C752.7,512.3,754.2,511.4,757.4,511.4z M743.1,511.5h1.4v3.5c0,1.6,0.6,2,2.8,2
			c2.2,0,2.7-0.4,2.7-2v-3.5h1.4v3.5c0,2.4-1.1,3.3-4.2,3.3s-4.2-0.9-4.2-3.3V511.5z M736.6,511.5h5.3v1.4h-5.3
			c-1.6,0-1.8,0.7-1.8,2s0.2,2,1.8,2h5.3v1.4h-5.3c-2.4,0-3.2-1.1-3.2-3.4C733.3,512.7,734.2,511.5,736.6,511.5z M736.4,530h-5.9
			v-1.3h6c0.8,0,1.1-0.3,1.1-0.6c0-0.5-0.4-0.7-1.4-0.8l-3.2-0.3c-1.5-0.1-2.4-0.7-2.4-1.9c0-1.4,1.2-1.9,2.6-1.9h5.5v1.3H733
			c-0.7,0-1,0.2-1,0.6c0,0.4,0.3,0.6,1.4,0.7l3.1,0.2c1.6,0.1,2.6,0.6,2.6,2C739,529.2,738.3,530,736.4,530z M745.6,526.9
			c-0.2,0.2-0.8,0.8-0.8,1.2v1.9h-1.4v-1.9c0-0.4-0.6-0.9-0.8-1.2l-3.3-3.6h2l2.1,2.5c0.2,0.3,0.5,0.5,0.7,0.9
			c0.2-0.3,0.5-0.6,0.7-0.9l2.1-2.5h2L745.6,526.9z M755.1,530h-5.9v-1.3h6c0.8,0,1.1-0.3,1.1-0.6c0-0.5-0.4-0.7-1.4-0.8l-3.2-0.3
			c-1.5-0.1-2.4-0.7-2.4-1.9c0-1.4,1.2-1.9,2.6-1.9h5.5v1.3h-5.6c-0.7,0-1,0.2-1,0.6c0,0.4,0.3,0.6,1.4,0.7l3.1,0.2
			c1.6,0.1,2.6,0.6,2.6,2C757.7,529.2,757,530,755.1,530z M766.3,524.6H763v5.4h-1.4v-5.4h-3.3v-1.3h8.1V524.6z M775.5,524.6h-5.3
			c-1.3,0-1.7,0.5-1.8,1.4h7v1.3h-7c0.1,0.9,0.5,1.4,1.8,1.4h5.3v1.3h-5.3c-2.4,0-3.2-1.1-3.2-3.4c0-2.2,0.8-3.4,3.2-3.4h5.3V524.6z
			 M773,514.9c0-2.2,0.8-3.4,3.2-3.4h5.3v1.3h-5.3c-1.3,0-1.7,0.5-1.8,1.4h7v1.3h-7c0.1,0.9,0.5,1.4,1.8,1.4h5.3v1.3h-5.3
			C773.9,518.2,773,517.1,773,514.9z M787.2,530h-1.4v-5.2l-3.2,3.8h-1.1l-3.2-3.8v5.2H777v-6.7h1.4c0.5,0,0.7,0.3,1,0.5l2.8,3.4
			l2.8-3.4c0.2-0.3,0.4-0.5,1-0.5h1.4V530z"/>
	</g>
</g>
<!--END CUORE SYSTEM-->
<!--BACKUP-->
<g>
	<circle fill="none" stroke="#A81E23" stroke-width="2" stroke-miterlimit="10" cx="595.7" cy="423.9" r="55.5"/>
	<g>
		<g>
			<polyline fill="none" stroke="#A90D15" stroke-miterlimit="10" points="559.7,397.5 559.7,387.6 569.7,387.6 			"/>
			
				<line fill="none" stroke="#A90D15" stroke-miterlimit="10" stroke-dasharray="10.4,10.4" x1="586.9" y1="387.6" x2="612.8" y2="387.6"/>
			<polyline fill="none" stroke="#A90D15" stroke-miterlimit="10" points="621.5,387.6 631.4,387.6 631.4,397.5 			"/>
			
				<line fill="none" stroke="#A90D15" stroke-miterlimit="10" stroke-dasharray="10.4,10.4" x1="631.4" y1="414.8" x2="631.4" y2="440.7"/>
			<polyline fill="none" stroke="#A90D15" stroke-miterlimit="10" points="631.4,449.4 631.4,459.3 621.5,459.3 			"/>
			
				<line fill="none" stroke="#A90D15" stroke-miterlimit="10" stroke-dasharray="10.4,10.4" x1="604.2" y1="459.3" x2="578.3" y2="459.3"/>
			<polyline fill="none" stroke="#A90D15" stroke-miterlimit="10" points="569.7,459.3 559.7,459.3 559.7,449.4 			"/>
			
				<line fill="none" stroke="#A90D15" stroke-miterlimit="10" stroke-dasharray="10.4,10.4" x1="559.7" y1="432.1" x2="559.7" y2="406.2"/>
		</g>
		
			<animateTransform  type="rotate" fill="remove" from="0 595.7 423.9" to="360 595.7 423.9" accumulate="none" attributeName="transform" additive="replace" restart="always" calcMode="linear" dur="5s" attributeType="xml" repeatCount="indefinite">
			</animateTransform>
	</g>
	<g>
		<path fill="#A81E23" d="M586.7,419.7c-0.2,0-0.3,0.1-0.4,0.3l-0.7,1.4h2.3l-0.7-1.4C587.1,419.8,587,419.7,586.7,419.7z"/>
		<path fill="#A81E23" d="M581.9,421.3H579v1h2.9c0.5,0,0.7-0.2,0.7-0.5C582.6,421.6,582.4,421.3,581.9,421.3z"/>
		<path fill="#A81E23" d="M582.5,420.2c0-0.3-0.2-0.5-0.6-0.5H579v0.9h2.8C582.3,420.6,582.5,420.5,582.5,420.2z"/>
		<path fill="#A81E23" d="M611.5,419.7h-2.8v1.3h2.8c0.5,0,0.7-0.4,0.7-0.6C612.2,420.1,612,419.7,611.5,419.7z"/>
		<path fill="#A81E23" d="M595.1,396.5c-14.6,0-26.4,11.8-26.4,26.4s11.8,26.4,26.4,26.4s26.4-11.8,26.4-26.4
			S609.7,396.5,595.1,396.5z M581.8,423.1h-3.6v-4.2h3.6c1.5,0,1.6,0.8,1.6,1.1c0,0.5-0.3,0.8-0.7,0.9c0.6,0.2,0.8,0.5,0.8,1
			C583.5,422.6,583,423.1,581.8,423.1z M588.8,423.1l-0.5-1h-3.1l-0.5,1h-0.9l1.7-3.3c0.3-0.5,0.6-0.9,1.3-0.9s1,0.4,1.3,0.9
			l1.7,3.3H588.8z M595.2,419.8H592c-1,0-1.1,0.4-1.1,1.2c0,0.8,0.1,1.2,1.1,1.2h3.3v0.9H592c-1.5,0-2-0.7-2-2.1s0.5-2.1,2-2.1h3.3
			V419.8z M600.1,423.1l-0.9-1.2c-0.1-0.2-0.4-0.5-0.8-0.5h-1.5v1.7h-0.9v-4.2h0.9v1.7h1.4c0.4,0,0.7-0.4,0.8-0.5l0.9-1.1h1.2
			l-1.3,1.5c-0.2,0.2-0.4,0.4-0.6,0.5c0.3,0.1,0.6,0.3,0.7,0.5l1.3,1.6H600.1z M606.9,421.1c0,1.5-0.7,2.1-2.6,2.1
			c-1.9,0-2.6-0.6-2.6-2.1v-2.2h0.9v2.2c0,1,0.3,1.2,1.7,1.2c1.4,0,1.7-0.2,1.7-1.2v-2.2h0.9V421.1z M611.4,421.7h-2.7v1.4h-0.9
			v-4.2h3.6c1.1,0,1.7,0.6,1.7,1.4C613.1,421.1,612.6,421.7,611.4,421.7z"/>
	</g>
</g>
<!--END BACKUP-->
<!--AUTHENTICATION-->
<g>
	<circle fill="none" stroke="#A81E23" stroke-width="2" stroke-miterlimit="10" cx="491.5" cy="684.3" r="66.2"/>
	<g>
		<g>
			<polyline fill="none" stroke="#A90D15" stroke-miterlimit="10" points="448.4,652.8 448.4,640.9 460.3,640.9 			"/>
			
				<line fill="none" stroke="#A90D15" stroke-miterlimit="10" stroke-dasharray="10.4,10.4" x1="481" y1="640.9" x2="511.9" y2="640.9"/>
			<polyline fill="none" stroke="#A90D15" stroke-miterlimit="10" points="522.2,640.9 534.1,640.9 534.1,652.8 			"/>
			
				<line fill="none" stroke="#A90D15" stroke-miterlimit="10" stroke-dasharray="10.4,10.4" x1="534.1" y1="673.4" x2="534.1" y2="704.4"/>
			<polyline fill="none" stroke="#A90D15" stroke-miterlimit="10" points="534.1,714.7 534.1,726.6 522.2,726.6 			"/>
			
				<line fill="none" stroke="#A90D15" stroke-miterlimit="10" stroke-dasharray="10.4,10.4" x1="501.6" y1="726.6" x2="470.6" y2="726.6"/>
			<polyline fill="none" stroke="#A90D15" stroke-miterlimit="10" points="460.3,726.6 448.4,726.6 448.4,714.7 			"/>
			
				<line fill="none" stroke="#A90D15" stroke-miterlimit="10" stroke-dasharray="10.4,10.4" x1="448.4" y1="694" x2="448.4" y2="663.1"/>
		</g>
		
			<animateTransform  type="rotate" fill="remove" from="0 491.5 684.3" to="360 491.5 684.3" accumulate="none" attributeName="transform" additive="replace" restart="always" calcMode="linear" dur="5s" attributeType="xml" repeatCount="indefinite">
			</animateTransform>
	</g>
	<g>
		<path fill="#A81E23" d="M502.8,679.4c-0.2,0-0.3,0.1-0.4,0.2l-0.6,1.1h1.9l-0.6-1.1C503.1,679.5,503,679.4,502.8,679.4z"/>
		<path fill="#A81E23" d="M462,679.4c-0.2,0-0.3,0.1-0.4,0.2l-0.6,1.1h1.9l-0.6-1.1C462.3,679.5,462.2,679.4,462,679.4z"/>
		<path fill="#A81E23" d="M513.5,679.5c-1.1,0-1.7,0.1-1.7,1.1c0,1,0.6,1.1,1.7,1.1s1.7-0.1,1.7-1.1
			C515.2,679.6,514.7,679.5,513.5,679.5z"/>
		<path fill="#A81E23" d="M490.7,651.6c-17.4,0-31.5,14.1-31.5,31.5c0,17.4,14.1,31.5,31.5,31.5s31.5-14.1,31.5-31.5
			C522.2,665.7,508.1,651.6,490.7,651.6z M463.7,682.3l-0.4-0.9h-2.6l-0.4,0.9h-0.8l1.4-2.8c0.2-0.4,0.5-0.7,1.1-0.7
			c0.6,0,0.9,0.3,1.1,0.7l1.4,2.8H463.7z M469,680.6c0,1.3-0.6,1.7-2.1,1.7s-2.1-0.5-2.1-1.7v-1.8h0.7v1.8c0,0.8,0.3,1,1.4,1
			c1.1,0,1.4-0.2,1.4-1v-1.8h0.7V680.6z M473.7,679.5h-1.7v2.8h-0.7v-2.8h-1.7v-0.7h4.2V679.5z M478.5,682.3h-0.7v-1.4h-2.9v1.4
			h-0.7v-3.5h0.7v1.4h2.9v-1.4h0.7V682.3z M483.6,679.5h-2.7c-0.7,0-0.9,0.3-0.9,0.7h3.6v0.6H480c0.1,0.5,0.3,0.7,0.9,0.7h2.7v0.7
			h-2.7c-1.2,0-1.7-0.6-1.7-1.7c0-1.1,0.4-1.7,1.7-1.7h2.7V679.5z M488.9,682.3h-0.5c-0.9,0-1.1-0.3-2.1-1.5
			c-0.9-1.2-0.9-1.2-1.3-1.2h0v2.7h-0.7v-3.5h0.5c0.9,0,1.2,0.3,2.1,1.5c0.8,1.1,0.9,1.2,1.3,1.2h0v-2.7h0.7V682.3z M493.6,679.5
			h-1.7v2.8h-0.7v-2.8h-1.7v-0.7h4.2V679.5z M494.9,682.3h-0.7v-3.5h0.7V682.3z M500,679.6h-2.7c-0.8,0-0.9,0.4-0.9,1
			c0,0.7,0.1,1,0.9,1h2.7v0.7h-2.7c-1.2,0-1.7-0.6-1.7-1.7c0-1.1,0.4-1.7,1.7-1.7h2.7V679.6z M504.5,682.3l-0.4-0.9h-2.6l-0.4,0.9
			h-0.8l1.4-2.8c0.2-0.4,0.5-0.7,1.1-0.7c0.6,0,0.9,0.3,1.1,0.7l1.4,2.8H504.5z M509.2,679.5h-1.7v2.8h-0.7v-2.8H505v-0.7h4.2V679.5
			z M510.4,682.3h-0.7v-3.5h0.7V682.3z M513.5,682.4c-1.6,0-2.4-0.4-2.4-1.8c0-1.3,0.8-1.8,2.4-1.8c1.6,0,2.4,0.4,2.4,1.8
			C516,681.9,515.2,682.4,513.5,682.4z M520.7,682.3c-0.9,0-1.1-0.3-2.1-1.5c-0.9-1.2-0.9-1.2-1.3-1.2h0v2.7h-0.7v-3.5h0.5
			c0.9,0,1.2,0.3,2.1,1.5c0.8,1.1,0.9,1.2,1.3,1.2h0v-2.7h0.7v3.5H520.7z"/>
	</g>
</g>
<!--END AUTHENTICATION-->
<!--UTILITIES-->
<g>
	<circle fill="none" stroke="#A81E23" stroke-width="2" stroke-miterlimit="10" cx="912.5" cy="420.1" r="55.5"/>
	<g>
		<g>
			<polyline fill="none" stroke="#A90D15" stroke-miterlimit="10" points="876.5,393.7 876.5,383.8 886.5,383.8 			"/>
			
				<line fill="none" stroke="#A90D15" stroke-miterlimit="10" stroke-dasharray="10.4,10.4" x1="903.7" y1="383.8" x2="929.6" y2="383.8"/>
			<polyline fill="none" stroke="#A90D15" stroke-miterlimit="10" points="938.3,383.8 948.2,383.8 948.2,393.7 			"/>
			
				<line fill="none" stroke="#A90D15" stroke-miterlimit="10" stroke-dasharray="10.4,10.4" x1="948.2" y1="411" x2="948.2" y2="436.9"/>
			<polyline fill="none" stroke="#A90D15" stroke-miterlimit="10" points="948.2,445.5 948.2,455.5 938.3,455.5 			"/>
			
				<line fill="none" stroke="#A90D15" stroke-miterlimit="10" stroke-dasharray="10.4,10.4" x1="921" y1="455.5" x2="895.1" y2="455.5"/>
			<polyline fill="none" stroke="#A90D15" stroke-miterlimit="10" points="886.5,455.5 876.5,455.5 876.5,445.5 			"/>
			
				<line fill="none" stroke="#A90D15" stroke-miterlimit="10" stroke-dasharray="10.4,10.4" x1="876.5" y1="428.3" x2="876.5" y2="402.4"/>
		</g>
		
			<animateTransform  type="rotate" fill="remove" from="0 912.5 420.1" to="360 912.5 420.1" accumulate="none" attributeName="transform" additive="replace" restart="always" calcMode="linear" dur="5s" attributeType="xml" repeatCount="indefinite">
			</animateTransform>
	</g>
	<path fill="#A81E23" d="M911.9,392.7c-14.6,0-26.4,11.8-26.4,26.4c0,14.6,11.8,26.4,26.4,26.4s26.4-11.8,26.4-26.4
		C938.3,404.5,926.5,392.7,911.9,392.7z M898.3,419.1c0,1.5-0.7,2.1-2.6,2.1s-2.6-0.6-2.6-2.1v-2.2h0.9v2.2c0,1,0.3,1.2,1.7,1.2
		s1.7-0.2,1.7-1.2v-2.2h0.9V419.1z M903.8,417.7h-2.1v3.4h-0.9v-3.4h-2.1v-0.8h5V417.7z M905.3,421.1h-0.9v-4.2h0.9V421.1z
		 M911.1,421.1h-2.8c-1.4,0-2-0.5-2-1.7v-2.4h0.9v2.4c0,0.7,0.3,0.9,1.1,0.9h2.8V421.1z M912.6,421.1h-0.9v-4.2h0.9V421.1z
		 M918.2,417.7h-2.1v3.4h-0.9v-3.4h-2.1v-0.8h5V417.7z M919.7,421.1h-0.9v-4.2h0.9V421.1z M925.9,417.8h-3.3c-0.8,0-1.1,0.3-1.1,0.9
		h4.3v0.8h-4.3c0.1,0.6,0.3,0.9,1.1,0.9h3.3v0.8h-3.3c-1.5,0-2-0.7-2-2.1s0.5-2.1,2-2.1h3.3V417.8z M930.2,421.1h-3.6v-0.8h3.7
		c0.5,0,0.7-0.2,0.7-0.4c0-0.3-0.2-0.4-0.8-0.5l-2-0.2c-0.9-0.1-1.5-0.4-1.5-1.2c0-0.9,0.7-1.2,1.6-1.2h3.4v0.8h-3.5
		c-0.4,0-0.6,0.1-0.6,0.4c0,0.2,0.2,0.4,0.8,0.4l1.9,0.2c1,0.1,1.6,0.4,1.6,1.2C931.8,420.6,931.4,421.1,930.2,421.1z"/>
</g>
<!--END UTILITIES-->
<!--MDK-->
<g>
	<circle fill="none" stroke="#A81E23" stroke-width="2" stroke-miterlimit="10" cx="1060.3" cy="632.7" r="61.5"/>
	<g>
		<g>
			<polyline fill="none" stroke="#A90D15" stroke-miterlimit="10" points="1020.4,603.4 1020.4,592.4 1031.4,592.4 			"/>
			
				<line fill="none" stroke="#A90D15" stroke-miterlimit="10" stroke-dasharray="10.4,10.4" x1="1050.5" y1="592.4" x2="1079.3" y2="592.4"/>
			<polyline fill="none" stroke="#A90D15" stroke-miterlimit="10" points="1088.8,592.4 1099.9,592.4 1099.9,603.4 			"/>
			
				<line fill="none" stroke="#A90D15" stroke-miterlimit="10" stroke-dasharray="10.4,10.4" x1="1099.9" y1="622.6" x2="1099.9" y2="651.3"/>
			<polyline fill="none" stroke="#A90D15" stroke-miterlimit="10" points="1099.9,660.9 1099.9,671.9 1088.8,671.9 			"/>
			
				<line fill="none" stroke="#A90D15" stroke-miterlimit="10" stroke-dasharray="10.4,10.4" x1="1069.7" y1="671.9" x2="1041" y2="671.9"/>
			<polyline fill="none" stroke="#A90D15" stroke-miterlimit="10" points="1031.4,671.9 1020.4,671.9 1020.4,660.9 			"/>
			
				<line fill="none" stroke="#A90D15" stroke-miterlimit="10" stroke-dasharray="10.4,10.4" x1="1020.4" y1="641.7" x2="1020.4" y2="613"/>
		</g>
		
			<animateTransform  type="rotate" fill="remove" from="0 1060.3 632.7" to="360 1060.3 632.7" accumulate="none" attributeName="transform" additive="replace" restart="always" calcMode="linear" dur="5s" attributeType="xml" repeatCount="indefinite">
			</animateTransform>
	</g>
	<g>
		<path fill="#A81E23" d="M1060.3,626.4h-2.8v2.7h2.8c1.1,0,1.2-0.5,1.2-1.4C1061.5,626.9,1061.4,626.4,1060.3,626.4z"/>
		<path fill="#A81E23" d="M1059.6,602.3c-16.2,0-29.2,13.1-29.2,29.2c0,16.2,13.1,29.2,29.2,29.2c16.2,0,29.2-13.1,29.2-29.2
			C1088.8,615.4,1075.7,602.3,1059.6,602.3z M1055.4,630.1h-0.9v-3.6l-2.2,2.6h-0.7l-2.2-2.6v3.6h-0.9v-4.6h0.9
			c0.4,0,0.5,0.2,0.7,0.4l1.9,2.3l1.9-2.3c0.1-0.2,0.3-0.4,0.7-0.4h0.9V630.1z M1060.3,630.1h-3.8v-4.6h3.8c1.6,0,2.2,0.8,2.2,2.3
			C1062.5,629.3,1061.9,630.1,1060.3,630.1z M1067.9,630.1l-1-1.3c-0.1-0.2-0.5-0.6-0.9-0.6h-1.6v1.9h-1v-4.6h1v1.8h1.5
			c0.4,0,0.8-0.4,0.9-0.6l1-1.3h1.3l-1.4,1.7c-0.2,0.2-0.4,0.4-0.7,0.6c0.4,0.1,0.6,0.4,0.8,0.6l1.4,1.8H1067.9z"/>
	</g>
</g>
<!--END MDK-->
<!--SDK-->
<g>
	<circle fill="none" stroke="#A81E23" stroke-width="2" stroke-miterlimit="10" cx="1055.1" cy="497.2" r="57"/>
	<g>
		<g>
			<polyline fill="none" stroke="#A90D15" stroke-miterlimit="10" points="1018.1,470.1 1018.1,459.8 1028.3,459.8 			"/>
			
				<line fill="none" stroke="#A90D15" stroke-miterlimit="10" stroke-dasharray="10.4,10.4" x1="1046.1" y1="459.8" x2="1072.7" y2="459.8"/>
			<polyline fill="none" stroke="#A90D15" stroke-miterlimit="10" points="1081.5,459.8 1091.8,459.8 1091.8,470.1 			"/>
			
				<line fill="none" stroke="#A90D15" stroke-miterlimit="10" stroke-dasharray="10.4,10.4" x1="1091.8" y1="487.8" x2="1091.8" y2="514.4"/>
			<polyline fill="none" stroke="#A90D15" stroke-miterlimit="10" points="1091.8,523.3 1091.8,533.5 1081.5,533.5 			"/>
			
				<line fill="none" stroke="#A90D15" stroke-miterlimit="10" stroke-dasharray="10.4,10.4" x1="1063.8" y1="533.5" x2="1037.2" y2="533.5"/>
			<polyline fill="none" stroke="#A90D15" stroke-miterlimit="10" points="1028.3,533.5 1018.1,533.5 1018.1,523.3 			"/>
			
				<line fill="none" stroke="#A90D15" stroke-miterlimit="10" stroke-dasharray="10.4,10.4" x1="1018.1" y1="505.6" x2="1018.1" y2="478.9"/>
		</g>
		
			<animateTransform  type="rotate" fill="remove" from="0 1055.1 497.2" to="360 1055.1 497.2" accumulate="none" attributeName="transform" additive="replace" restart="always" calcMode="linear" dur="5s" attributeType="xml" repeatCount="indefinite">
			</animateTransform>
	</g>
	<g>
		<path fill="#A81E23" d="M1055.6,492.9h-2.6v2.5h2.6c1,0,1.1-0.4,1.1-1.3C1056.7,493.4,1056.6,492.9,1055.6,492.9z"/>
		<path fill="#A81E23" d="M1054.4,469c-15,0-27.1,12.1-27.1,27.1c0,15,12.1,27.1,27.1,27.1c15,0,27.1-12.1,27.1-27.1
			C1081.5,481.2,1069.4,469,1054.4,469z M1049.6,496.3h-3.7v-0.8h3.8c0.5,0,0.7-0.2,0.7-0.4c0-0.3-0.3-0.4-0.9-0.5l-2.1-0.2
			c-1-0.1-1.5-0.4-1.5-1.2c0-0.9,0.8-1.2,1.6-1.2h3.5v0.8h-3.5c-0.4,0-0.7,0.1-0.7,0.4c0,0.2,0.2,0.4,0.9,0.4l2,0.2
			c1,0.1,1.7,0.4,1.7,1.3C1051.3,495.8,1050.8,496.3,1049.6,496.3z M1055.6,496.3h-3.5v-4.3h3.5c1.5,0,2.1,0.7,2.1,2.1
			C1057.6,495.6,1057.1,496.3,1055.6,496.3z M1062.6,496.3l-0.9-1.2c-0.1-0.2-0.4-0.5-0.8-0.5h-1.5v1.8h-0.9v-4.3h0.9v1.7h1.4
			c0.4,0,0.7-0.4,0.8-0.5l0.9-1.2h1.2l-1.3,1.5c-0.2,0.2-0.4,0.4-0.7,0.5c0.4,0.1,0.6,0.3,0.8,0.6l1.3,1.6H1062.6z"/>
	</g>
</g>
<!--END SDK-->
<!--COMMUNICATION-->
<g>
	<circle fill="none" stroke="#A81E23" stroke-width="2" stroke-miterlimit="10" cx="1302.4" cy="446" r="69"/>
	<g>
		<g>
			<polyline fill="none" stroke="#A90D15" stroke-miterlimit="10" points="1257.6,413.2 1257.6,400.8 1270,400.8 			"/>
			
				<line fill="none" stroke="#A90D15" stroke-miterlimit="10" stroke-dasharray="10.4,10.4" x1="1291.5" y1="400.8" x2="1323.7" y2="400.8"/>
			<polyline fill="none" stroke="#A90D15" stroke-miterlimit="10" points="1334.4,400.8 1346.8,400.8 1346.8,413.2 			"/>
			
				<line fill="none" stroke="#A90D15" stroke-miterlimit="10" stroke-dasharray="10.4,10.4" x1="1346.8" y1="434.6" x2="1346.8" y2="466.9"/>
			<polyline fill="none" stroke="#A90D15" stroke-miterlimit="10" points="1346.8,477.6 1346.8,490 1334.4,490 			"/>
			
				<line fill="none" stroke="#A90D15" stroke-miterlimit="10" stroke-dasharray="10.4,10.4" x1="1313" y1="490" x2="1280.7" y2="490"/>
			<polyline fill="none" stroke="#A90D15" stroke-miterlimit="10" points="1270,490 1257.6,490 1257.6,477.6 			"/>
			
				<line fill="none" stroke="#A90D15" stroke-miterlimit="10" stroke-dasharray="10.4,10.4" x1="1257.6" y1="456.1" x2="1257.6" y2="423.9"/>
		</g>
		
			<animateTransform  type="rotate" fill="remove" from="0 1302.4 446" to="360 1302.4 446" accumulate="none" attributeName="transform" additive="replace" restart="always" calcMode="linear" dur="5s" attributeType="xml" repeatCount="indefinite">
			</animateTransform>
	</g>
	<g>
		<path fill="#A81E23" d="M1314,440.5c-0.2,0-0.3,0.1-0.4,0.3l-0.6,1.2h2l-0.6-1.2C1314.3,440.6,1314.2,440.5,1314,440.5z"/>
		<path fill="#A81E23" d="M1277.4,440.5c-1.2,0-1.8,0.1-1.8,1.2s0.6,1.2,1.8,1.2c1.2,0,1.8-0.1,1.8-1.2S1278.6,440.5,1277.4,440.5z"
			/>
		<path fill="#A81E23" d="M1325.4,440.5c-1.2,0-1.8,0.1-1.8,1.2s0.6,1.2,1.8,1.2c1.2,0,1.8-0.1,1.8-1.2S1326.6,440.5,1325.4,440.5z"
			/>
		<path fill="#A81E23" d="M1301.6,411.9c-18.1,0-32.8,14.7-32.8,32.8s14.7,32.8,32.8,32.8c18.1,0,32.8-14.7,32.8-32.8
			S1319.7,411.9,1301.6,411.9z M1274.3,440.6h-2.9c-0.9,0-1,0.4-1,1.1s0.1,1.1,1,1.1h2.9v0.8h-2.9c-1.3,0-1.8-0.6-1.8-1.8
			s0.4-1.8,1.8-1.8h2.9V440.6z M1277.4,443.6c-1.7,0-2.6-0.5-2.6-1.9c0-1.4,0.8-1.9,2.6-1.9c1.7,0,2.6,0.5,2.6,1.9
			C1279.9,443.1,1279.1,443.6,1277.4,443.6z M1286.3,443.5h-0.8v-2.9l-1.7,2.1h-0.6l-1.7-2.1v2.9h-0.8v-3.7h0.7
			c0.3,0,0.4,0.1,0.5,0.3l1.5,1.9l1.5-1.9c0.1-0.1,0.2-0.3,0.5-0.3h0.7V443.5z M1292.8,443.5h-0.8v-2.9l-1.7,2.1h-0.6l-1.7-2.1v2.9
			h-0.8v-3.7h0.7c0.3,0,0.4,0.1,0.5,0.3l1.5,1.9l1.5-1.9c0.1-0.1,0.2-0.3,0.5-0.3h0.7V443.5z M1298.2,441.7c0,1.3-0.6,1.8-2.3,1.8
			c-1.6,0-2.3-0.5-2.3-1.8v-1.9h0.8v1.9c0,0.9,0.3,1.1,1.5,1.1c1.2,0,1.5-0.2,1.5-1.1v-1.9h0.8V441.7z M1303.9,443.5h-0.5
			c-0.9,0-1.2-0.3-2.2-1.6c-0.9-1.2-1-1.3-1.3-1.3h0v2.9h-0.8v-3.7h0.5c1,0,1.3,0.3,2.2,1.6c0.9,1.2,0.9,1.3,1.3,1.3h0v-2.9h0.8
			V443.5z M1305.6,443.5h-0.8v-3.7h0.8V443.5z M1311,440.6h-2.9c-0.9,0-1,0.4-1,1.1s0.1,1.1,1,1.1h2.9v0.8h-2.9
			c-1.3,0-1.8-0.6-1.8-1.8s0.4-1.8,1.8-1.8h2.9V440.6z M1315.8,443.5l-0.5-0.9h-2.7l-0.5,0.9h-0.8l1.5-2.9c0.2-0.5,0.5-0.8,1.1-0.8
			c0.6,0,0.9,0.3,1.1,0.8l1.5,2.9H1315.8z M1320.8,440.5h-1.8v3h-0.8v-3h-1.8v-0.7h4.4V440.5z M1322.1,443.5h-0.8v-3.7h0.8V443.5z
			 M1325.4,443.6c-1.7,0-2.6-0.5-2.6-1.9c0-1.4,0.8-1.9,2.6-1.9s2.6,0.5,2.6,1.9C1328,443.1,1327.1,443.6,1325.4,443.6z M1333,443.5
			c-0.9,0-1.2-0.3-2.2-1.6c-0.9-1.2-1-1.3-1.3-1.3h0v2.9h-0.8v-3.7h0.5c1,0,1.3,0.3,2.2,1.6c0.9,1.2,0.9,1.3,1.3,1.3h0v-2.9h0.8v3.7
			H1333z"/>
	</g>
</g>
<!--END COMMUNICATION-->
<!--APPS-->
<g>
	<g>
		<circle fill="none" stroke="#A90D15" stroke-miterlimit="10" stroke-dasharray="4.0063,4.0063" cx="1222.4" cy="180.6" r="65"/>
		<animateTransform  type="rotate" fill="remove" from="0 1222.4 180.6" to="360 1222.4 180.6" accumulate="none" attributeName="transform" additive="replace" restart="always" calcMode="linear" dur="5s" attributeType="xml" repeatCount="indefinite">
		</animateTransform>
	</g>
	<g>
		<path fill="#A90D15" d="M1222.2,175.9h-4.6v2.1h4.6c0.9,0,1.2-0.6,1.2-1.1S1223.1,175.9,1222.2,175.9z"/>
		<path fill="#A90D15" d="M1210,175.9c-0.4,0-0.6,0.2-0.7,0.5l-1.2,2.3h3.8l-1.2-2.3C1210.6,176,1210.4,175.9,1210,175.9z"/>
		<path fill="#A90D15" d="M1232.2,175.9h-4.6v2.1h4.6c0.9,0,1.2-0.6,1.2-1.1S1233.1,175.9,1232.2,175.9z"/>
		<path fill="#A90D15" d="M1183.9,140.2v81.4h81.4v-81.4H1183.9z M1213.5,181.6l-0.9-1.7h-5.1l-0.9,1.7h-1.6l2.8-5.6
			c0.4-0.9,1-1.5,2.2-1.5s1.7,0.6,2.2,1.5l2.9,5.6H1213.5z M1222.1,179.3h-4.6v2.3h-1.5v-7h6c1.9,0,2.8,1.1,2.8,2.3
			C1224.9,178.3,1224,179.3,1222.1,179.3z M1232.1,179.3h-4.6v2.3h-1.5v-7h6c1.9,0,2.8,1.1,2.8,2.3
			C1234.9,178.3,1234,179.3,1232.1,179.3z M1241.9,181.6h-6.1v-1.3h6.2c0.9,0,1.1-0.3,1.1-0.7c0-0.5-0.4-0.7-1.4-0.8l-3.4-0.3
			c-1.6-0.1-2.5-0.7-2.5-2c0-1.5,1.2-2,2.7-2h5.7v1.3h-5.8c-0.7,0-1.1,0.2-1.1,0.7c0,0.4,0.3,0.6,1.4,0.7l3.2,0.3
			c1.6,0.1,2.7,0.7,2.7,2.1C1244.6,180.8,1243.8,181.6,1241.9,181.6z"/>
	</g>
</g>
<!--END APPS-->
<!--TRAVEL-->
<g>
	<circle fill="none" stroke="#A81E23" stroke-width="2" stroke-miterlimit="10" cx="1139.2" cy="84.2" r="40"/>
	<g>
		<g>
			<polyline fill="none" stroke="#A90D15" stroke-miterlimit="10" points="1113.2,65.2 1113.2,58 1120.4,58 			"/>
			
				<line fill="none" stroke="#A90D15" stroke-miterlimit="10" stroke-dasharray="10.4,10.4" x1="1132.8" y1="58" x2="1151.5" y2="58"/>
			<polyline fill="none" stroke="#A90D15" stroke-miterlimit="10" points="1157.7,58 1164.9,58 1164.9,65.2 			"/>
			
				<line fill="none" stroke="#A90D15" stroke-miterlimit="10" stroke-dasharray="10.4,10.4" x1="1164.9" y1="77.6" x2="1164.9" y2="96.3"/>
			<polyline fill="none" stroke="#A90D15" stroke-miterlimit="10" points="1164.9,102.5 1164.9,109.7 1157.7,109.7 			"/>
			
				<line fill="none" stroke="#A90D15" stroke-miterlimit="10" stroke-dasharray="10.4,10.4" x1="1145.3" y1="109.7" x2="1126.6" y2="109.7"/>
			<polyline fill="none" stroke="#A90D15" stroke-miterlimit="10" points="1120.4,109.7 1113.2,109.7 1113.2,102.5 			"/>
			
				<line fill="none" stroke="#A90D15" stroke-miterlimit="10" stroke-dasharray="10.4,10.4" x1="1113.2" y1="90.1" x2="1113.2" y2="71.4"/>
		</g>
		
			<animateTransform  type="rotate" fill="remove" from="0 1139.2 84.2" to="360 1139.2 84.2" accumulate="none" attributeName="transform" additive="replace" restart="always" calcMode="linear" dur="5s" attributeType="xml" repeatCount="indefinite">
			</animateTransform>
	</g>
	<g>
		<path fill="#A81E23" d="M1134.2,80.5h-2v0.9h2c0.4,0,0.5-0.3,0.5-0.5C1134.7,80.7,1134.6,80.5,1134.2,80.5z"/>
		<path fill="#A81E23" d="M1137.9,80.5c-0.2,0-0.2,0.1-0.3,0.2l-0.5,1h1.6l-0.5-1C1138.1,80.5,1138,80.5,1137.9,80.5z"/>
		<path fill="#A81E23" d="M1138.7,64.4c-10.5,0-19,8.5-19,19s8.5,19,19,19c10.5,0,19-8.5,19-19S1149.2,64.4,1138.7,64.4z
			 M1131.1,80.5h-1.5v2.4h-0.6v-2.4h-1.5v-0.6h3.6V80.5z M1135.3,82.3v0.6h-0.6v-0.6c0-0.2-0.1-0.4-0.5-0.4h-2v1h-0.6v-3h2.6
			c0.7,0,1.2,0.3,1.2,0.9c0,0.4-0.2,0.7-0.6,0.8C1135.1,81.8,1135.3,82,1135.3,82.3z M1139.4,82.9l-0.4-0.7h-2.2l-0.4,0.7h-0.7
			l1.2-2.4c0.2-0.4,0.4-0.6,0.9-0.6c0.5,0,0.7,0.3,0.9,0.6l1.2,2.4H1139.4z M1142.8,82.3c-0.2,0.4-0.4,0.6-0.9,0.6
			c-0.5,0-0.8-0.3-0.9-0.6l-1.2-2.4h0.7l1.1,2.2c0.1,0.1,0.1,0.2,0.3,0.2c0.2,0,0.2-0.1,0.3-0.2l1.1-2.2h0.7L1142.8,82.3z
			 M1148,80.5h-2.4c-0.6,0-0.8,0.2-0.8,0.6h3.1v0.6h-3.1c0,0.4,0.2,0.6,0.8,0.6h2.4v0.6h-2.4c-1.1,0-1.4-0.5-1.4-1.5
			c0-1,0.4-1.5,1.4-1.5h2.4V80.5z M1152,82.9h-2c-1,0-1.4-0.3-1.4-1.2v-1.8h0.6v1.8c0,0.5,0.2,0.6,0.8,0.6h2V82.9z"/>
	</g>
</g>
<!--END TRAVEL-->
<!--MEDIA-->
<g>
	<circle fill="none" stroke="#A81E23" stroke-width="2" stroke-miterlimit="10" cx="1238.3" cy="57.7" r="39.8"/>
	<g>
		<g>
			<polyline fill="none" stroke="#A90D15" stroke-miterlimit="10" points="1212.5,38.7 1212.5,31.6 1219.6,31.6 			"/>
			
				<line fill="none" stroke="#A90D15" stroke-miterlimit="10" stroke-dasharray="10.4,10.4" x1="1232" y1="31.6" x2="1250.6" y2="31.6"/>
			<polyline fill="none" stroke="#A90D15" stroke-miterlimit="10" points="1256.8,31.6 1264,31.6 1264,38.7 			"/>
			
				<line fill="none" stroke="#A90D15" stroke-miterlimit="10" stroke-dasharray="10.4,10.4" x1="1264" y1="51.1" x2="1264" y2="69.7"/>
			<polyline fill="none" stroke="#A90D15" stroke-miterlimit="10" points="1264,75.9 1264,83.1 1256.8,83.1 			"/>
			
				<line fill="none" stroke="#A90D15" stroke-miterlimit="10" stroke-dasharray="10.4,10.4" x1="1244.4" y1="83.1" x2="1225.8" y2="83.1"/>
			<polyline fill="none" stroke="#A90D15" stroke-miterlimit="10" points="1219.6,83.1 1212.5,83.1 1212.5,75.9 			"/>
			
				<line fill="none" stroke="#A90D15" stroke-miterlimit="10" stroke-dasharray="10.4,10.4" x1="1212.5" y1="63.5" x2="1212.5" y2="44.9"/>
		</g>
		
			<animateTransform  type="rotate" fill="remove" from="0 1238.3 57.7" to="360 1238.3 57.7" accumulate="none" attributeName="transform" additive="replace" restart="always" calcMode="linear" dur="5s" attributeType="xml" repeatCount="indefinite">
			</animateTransform>
	</g>
	<g>
		<path fill="#A81E23" d="M1240.8,54.9h-1.8v1.8h1.8c0.7,0,0.8-0.3,0.8-0.9C1241.6,55.2,1241.5,54.9,1240.8,54.9z"/>
		<path fill="#A81E23" d="M1246,54.8c-0.2,0-0.2,0.1-0.3,0.2l-0.5,1h1.6l-0.5-1C1246.3,54.9,1246.2,54.8,1246,54.8z"/>
		<path fill="#A81E23" d="M1237.9,38c-10.5,0-18.9,8.5-18.9,18.9s8.5,18.9,18.9,18.9c10.5,0,18.9-8.5,18.9-18.9S1248.3,38,1237.9,38
			z M1233.3,57.3h-0.6V55l-1.4,1.7h-0.5l-1.4-1.7v2.3h-0.6v-3h0.6c0.2,0,0.3,0.1,0.4,0.2l1.2,1.5l1.2-1.5c0.1-0.1,0.2-0.2,0.4-0.2
			h0.6V57.3z M1237.7,54.9h-2.4c-0.6,0-0.8,0.2-0.8,0.6h3.1v0.6h-3.1c0,0.4,0.2,0.6,0.8,0.6h2.4v0.6h-2.4c-1.1,0-1.4-0.5-1.4-1.5
			s0.4-1.5,1.4-1.5h2.4V54.9z M1240.8,57.3h-2.4v-3h2.4c1.1,0,1.4,0.5,1.4,1.5S1241.8,57.3,1240.8,57.3z M1243.4,57.3h-0.6v-3h0.6
			V57.3z M1247.5,57.3l-0.4-0.7h-2.2l-0.4,0.7h-0.7l1.2-2.4c0.2-0.4,0.4-0.6,0.9-0.6c0.5,0,0.7,0.3,0.9,0.6l1.2,2.4H1247.5z"/>
	</g>
</g>
<!--END MEDIA-->
<!--OFFICE SUITE-->
<g>
	<circle fill="none" stroke="#A81E23" stroke-width="2" stroke-miterlimit="10" cx="1330.6" cy="82.2" r="39.4"/>
	<g>
		<g>
			<polyline fill="none" stroke="#A90D15" stroke-miterlimit="10" points="1305,63.4 1305,56.4 1312.1,56.4 			"/>
			
				<line fill="none" stroke="#A90D15" stroke-miterlimit="10" stroke-dasharray="10.4,10.4" x1="1324.4" y1="56.4" x2="1342.8" y2="56.4"/>
			<polyline fill="none" stroke="#A90D15" stroke-miterlimit="10" points="1348.9,56.4 1356,56.4 1356,63.4 			"/>
			
				<line fill="none" stroke="#A90D15" stroke-miterlimit="10" stroke-dasharray="10.4,10.4" x1="1356" y1="75.7" x2="1356" y2="94.1"/>
			<polyline fill="none" stroke="#A90D15" stroke-miterlimit="10" points="1356,100.3 1356,107.4 1348.9,107.4 			"/>
			
				<line fill="none" stroke="#A90D15" stroke-miterlimit="10" stroke-dasharray="10.4,10.4" x1="1336.6" y1="107.4" x2="1318.2" y2="107.4"/>
			<polyline fill="none" stroke="#A90D15" stroke-miterlimit="10" points="1312.1,107.4 1305,107.4 1305,100.3 			"/>
			
				<line fill="none" stroke="#A90D15" stroke-miterlimit="10" stroke-dasharray="10.4,10.4" x1="1305" y1="88" x2="1305" y2="69.6"/>
		</g>
		
			<animateTransform  type="rotate" fill="remove" from="0 1330.6 82.2" to="360 1330.6 82.2" accumulate="none" attributeName="transform" additive="replace" restart="always" calcMode="linear" dur="5s" attributeType="xml" repeatCount="indefinite">
			</animateTransform>
	</g>
	<g>
		<path fill="#A81E23" d="M1330.2,62.7c-10.4,0-18.8,8.4-18.8,18.8c0,10.4,8.4,18.8,18.8,18.8c10.4,0,18.8-8.4,18.8-18.8
			C1348.9,71.1,1340.5,62.7,1330.2,62.7z M1335,76.3h2.3v0.6h-2.3c-0.7,0-0.8,0.3-0.8,0.9c0,0.6,0.1,0.9,0.8,0.9h2.3v0.6h-2.3
			c-1.1,0-1.4-0.5-1.4-1.5C1333.6,76.8,1333.9,76.3,1335,76.3z M1332.4,76.3h0.6v3h-0.6V76.3z M1324.2,77.6c0-1,0.5-1.3,1.6-1.3h2
			v0.6h-2c-0.7,0-1,0.1-1,0.7v0.1h2.8v0.5h-2.8v1h-0.6V77.6z M1319.5,77.7c0-1.1,0.7-1.5,2.1-1.5c1.4,0,2.1,0.4,2.1,1.5
			c0,1.1-0.7,1.5-2.1,1.5C1320.2,79.3,1319.5,78.9,1319.5,77.7z M1325.1,84.4h-2.6v-0.6h2.6c0.4,0,0.5-0.1,0.5-0.3
			c0-0.2-0.2-0.3-0.6-0.3l-1.4-0.1c-0.7-0.1-1.1-0.3-1.1-0.8c0-0.6,0.5-0.8,1.1-0.8h2.4V82h-2.5c-0.3,0-0.5,0.1-0.5,0.3
			c0,0.2,0.1,0.3,0.6,0.3l1.4,0.1c0.7,0.1,1.1,0.3,1.1,0.9C1326.3,84,1326,84.4,1325.1,84.4z M1330.4,83c0,1.1-0.5,1.5-1.8,1.5
			c-1.3,0-1.8-0.4-1.8-1.5v-1.5h0.6V83c0,0.7,0.2,0.9,1.2,0.9s1.2-0.2,1.2-0.9v-1.5h0.6V83z M1331.7,84.4h-0.6v-3h0.6V84.4z
			 M1331.8,76.9h-2c-0.7,0-1,0.1-1,0.7v0.1h2.8v0.5h-2.8v1h-0.6v-1.6c0-1,0.5-1.3,1.6-1.3h2V76.9z M1335.7,82h-1.5v2.4h-0.6V82h-1.5
			v-0.6h3.6V82z M1339.8,82h-2.3c-0.6,0-0.8,0.2-0.8,0.6h3.1v0.6h-3.1c0,0.4,0.2,0.6,0.8,0.6h2.3v0.6h-2.3c-1.1,0-1.4-0.5-1.4-1.5
			c0-1,0.4-1.5,1.4-1.5h2.3V82z M1341.5,76.9h-2.3c-0.6,0-0.8,0.2-0.8,0.6h3.1V78h-3.1c0,0.4,0.2,0.6,0.8,0.6h2.3v0.6h-2.3
			c-1.1,0-1.4-0.5-1.4-1.5c0-1,0.4-1.5,1.4-1.5h2.3V76.9z"/>
		<path fill="#A81E23" d="M1321.6,76.8c-1,0-1.4,0.1-1.4,0.9c0,0.8,0.5,0.9,1.4,0.9s1.4-0.1,1.4-0.9
			C1323,76.9,1322.5,76.8,1321.6,76.8z"/>
	</g>
</g>
<!--END OFFICE SUITE-->
<!--PLAY-->
<g>
	<circle fill="none" stroke="#A81E23" stroke-width="2" stroke-miterlimit="10" cx="1085.3" cy="172.1" r="40.4"/>
	<g>
		<g>
			<polyline fill="none" stroke="#A90D15" stroke-miterlimit="10" points="1059.1,152.8 1059.1,145.5 1066.3,145.5 			"/>
			
				<line fill="none" stroke="#A90D15" stroke-miterlimit="10" stroke-dasharray="10.4,10.4" x1="1078.9" y1="145.5" x2="1097.8" y2="145.5"/>
			<polyline fill="none" stroke="#A90D15" stroke-miterlimit="10" points="1104.1,145.5 1111.4,145.5 1111.4,152.8 			"/>
			
				<line fill="none" stroke="#A90D15" stroke-miterlimit="10" stroke-dasharray="10.4,10.4" x1="1111.4" y1="165.4" x2="1111.4" y2="184.3"/>
			<polyline fill="none" stroke="#A90D15" stroke-miterlimit="10" points="1111.4,190.6 1111.4,197.8 1104.1,197.8 			"/>
			
				<line fill="none" stroke="#A90D15" stroke-miterlimit="10" stroke-dasharray="10.4,10.4" x1="1091.5" y1="197.8" x2="1072.6" y2="197.8"/>
			<polyline fill="none" stroke="#A90D15" stroke-miterlimit="10" points="1066.3,197.8 1059.1,197.8 1059.1,190.6 			"/>
			
				<line fill="none" stroke="#A90D15" stroke-miterlimit="10" stroke-dasharray="10.4,10.4" x1="1059.1" y1="178" x2="1059.1" y2="159.1"/>
		</g>
		
			<animateTransform  type="rotate" fill="remove" from="0 1085.3 172.1" to="360 1085.3 172.1" accumulate="none" attributeName="transform" additive="replace" restart="always" calcMode="linear" dur="5s" attributeType="xml" repeatCount="indefinite">
			</animateTransform>
	</g>
	<g>
		<path fill="#A81E23" d="M1079.3,168.6h-2v0.9h2c0.4,0,0.5-0.3,0.5-0.5C1079.8,168.9,1079.7,168.6,1079.3,168.6z"/>
		<path fill="#A81E23" d="M1086.8,168.6c-0.2,0-0.2,0.1-0.3,0.2l-0.5,1h1.7l-0.5-1C1087.1,168.7,1087,168.6,1086.8,168.6z"/>
		<path fill="#A81E23" d="M1084.9,152c-10.6,0-19.2,8.6-19.2,19.2s8.6,19.2,19.2,19.2s19.2-8.6,19.2-19.2S1095.5,152,1084.9,152z
			 M1079.3,170.1h-2v1h-0.6v-3h2.6c0.8,0,1.2,0.5,1.2,1C1080.5,169.6,1080.1,170.1,1079.3,170.1z M1084.5,171.1h-2
			c-1,0-1.5-0.3-1.5-1.3v-1.8h0.6v1.8c0,0.5,0.2,0.6,0.8,0.6h2V171.1z M1088.3,171.1l-0.4-0.7h-2.2l-0.4,0.7h-0.7l1.2-2.4
			c0.2-0.4,0.4-0.6,0.9-0.6c0.5,0,0.7,0.3,0.9,0.6l1.2,2.4H1088.3z M1091.3,169.7c-0.1,0.1-0.3,0.3-0.3,0.5v0.9h-0.6v-0.9
			c0-0.2-0.2-0.4-0.3-0.5l-1.5-1.6h0.9l0.9,1.1c0.1,0.1,0.2,0.2,0.3,0.4c0.1-0.2,0.2-0.3,0.3-0.4l0.9-1.1h0.9L1091.3,169.7z"/>
	</g>
</g>
<!--END PLAY-->
<!--FINDER-->
<g>
	<circle fill="none" stroke="#A81E23" stroke-width="2" stroke-miterlimit="10" cx="1126.1" cy="285.2" r="39.7"/>
	<g>
		<g>
			<polyline fill="none" stroke="#A90D15" stroke-miterlimit="10" points="1100.3,266.3 1100.3,259.2 1107.4,259.2 			"/>
			
				<line fill="none" stroke="#A90D15" stroke-miterlimit="10" stroke-dasharray="10.4,10.4" x1="1119.8" y1="259.2" x2="1138.3" y2="259.2"/>
			<polyline fill="none" stroke="#A90D15" stroke-miterlimit="10" points="1144.5,259.2 1151.6,259.2 1151.6,266.3 			"/>
			
				<line fill="none" stroke="#A90D15" stroke-miterlimit="10" stroke-dasharray="10.4,10.4" x1="1151.6" y1="278.7" x2="1151.6" y2="297.3"/>
			<polyline fill="none" stroke="#A90D15" stroke-miterlimit="10" points="1151.6,303.4 1151.6,310.6 1144.5,310.6 			"/>
			
				<line fill="none" stroke="#A90D15" stroke-miterlimit="10" stroke-dasharray="10.4,10.4" x1="1132.1" y1="310.6" x2="1113.6" y2="310.6"/>
			<polyline fill="none" stroke="#A90D15" stroke-miterlimit="10" points="1107.4,310.6 1100.3,310.6 1100.3,303.4 			"/>
			
				<line fill="none" stroke="#A90D15" stroke-miterlimit="10" stroke-dasharray="10.4,10.4" x1="1100.3" y1="291.1" x2="1100.3" y2="272.5"/>
		</g>
		
			<animateTransform  type="rotate" fill="remove" from="0 1126.1 285.2" to="360 1126.1 285.2" accumulate="none" attributeName="transform" additive="replace" restart="always" calcMode="linear" dur="5s" attributeType="xml" repeatCount="indefinite">
			</animateTransform>
	</g>
	<g>
		<path fill="#A81E23" d="M1136.6,281.8h-2v0.9h2c0.4,0,0.5-0.3,0.5-0.4C1137.1,282,1137,281.8,1136.6,281.8z"/>
		<path fill="#A81E23" d="M1127.7,281.8h-1.8v1.8h1.8c0.7,0,0.8-0.3,0.8-0.9C1128.5,282.2,1128.4,281.8,1127.7,281.8z"/>
		<path fill="#A81E23" d="M1125.6,265.6c-10.4,0-18.9,8.5-18.9,18.9c0,10.4,8.5,18.9,18.9,18.9s18.9-8.5,18.9-18.9
			C1144.5,274.1,1136,265.6,1125.6,265.6z M1118.7,281.8h-2c-0.7,0-1,0.1-1,0.7v0.1h2.8v0.6h-2.8v1h-0.6v-1.7c0-1,0.5-1.3,1.6-1.3h2
			V281.8z M1119.8,284.2h-0.6v-3h0.6V284.2z M1124.5,284.2h-0.4c-0.7,0-1-0.2-1.8-1.3c-0.8-1-0.8-1-1.1-1h0v2.3h-0.6v-3h0.4
			c0.8,0,1,0.3,1.8,1.3c0.7,1,0.8,1,1.1,1h0v-2.3h0.6V284.2z M1127.7,284.2h-2.4v-3h2.4c1.1,0,1.4,0.5,1.4,1.5
			S1128.7,284.2,1127.7,284.2z M1133.4,281.8h-2.4c-0.6,0-0.8,0.2-0.8,0.6h3.1v0.6h-3.1c0,0.4,0.2,0.6,0.8,0.6h2.4v0.6h-2.4
			c-1.1,0-1.4-0.5-1.4-1.5s0.4-1.5,1.4-1.5h2.4V281.8z M1137.7,283.6v0.6h-0.6v-0.6c0-0.2-0.1-0.4-0.5-0.4h-1.9v1h-0.6v-3h2.6
			c0.7,0,1.2,0.3,1.2,0.9c0,0.4-0.2,0.7-0.6,0.8C1137.5,283.1,1137.7,283.3,1137.7,283.6z"/>
	</g>
</g>
<!--END FINDER-->
<!--CREATIVE SUITE-->
<g>
	<circle fill="none" stroke="#A81E23" stroke-width="2" stroke-miterlimit="10" cx="1348.7" cy="185" r="38.5"/>
	<g>
		<g>
			<polyline fill="none" stroke="#A90D15" stroke-miterlimit="10" points="1323.7,166.7 1323.7,159.8 1330.6,159.8 			"/>
			
				<line fill="none" stroke="#A90D15" stroke-miterlimit="10" stroke-dasharray="10.4,10.4" x1="1342.6" y1="159.8" x2="1360.6" y2="159.8"/>
			<polyline fill="none" stroke="#A90D15" stroke-miterlimit="10" points="1366.6,159.8 1373.5,159.8 1373.5,166.7 			"/>
			
				<line fill="none" stroke="#A90D15" stroke-miterlimit="10" stroke-dasharray="10.4,10.4" x1="1373.5" y1="178.7" x2="1373.5" y2="196.6"/>
			<polyline fill="none" stroke="#A90D15" stroke-miterlimit="10" points="1373.5,202.6 1373.5,209.5 1366.6,209.5 			"/>
			
				<line fill="none" stroke="#A90D15" stroke-miterlimit="10" stroke-dasharray="10.4,10.4" x1="1354.6" y1="209.5" x2="1336.6" y2="209.5"/>
			<polyline fill="none" stroke="#A90D15" stroke-miterlimit="10" points="1330.6,209.5 1323.7,209.5 1323.7,202.6 			"/>
			
				<line fill="none" stroke="#A90D15" stroke-miterlimit="10" stroke-dasharray="10.4,10.4" x1="1323.7" y1="190.6" x2="1323.7" y2="172.7"/>
		</g>
		
			<animateTransform  type="rotate" fill="remove" from="0 1348.7 185" to="360 1348.7 185" accumulate="none" attributeName="transform" additive="replace" restart="always" calcMode="linear" dur="5s" attributeType="xml" repeatCount="indefinite">
			</animateTransform>
	</g>
	<g>
		<path fill="#A81E23" d="M1348.1,179.9c-0.2,0-0.2,0.1-0.3,0.2l-0.5,0.9h1.6l-0.5-0.9C1348.3,180,1348.2,179.9,1348.1,179.9z"/>
		<path fill="#A81E23" d="M1340.9,180.4c0-0.2-0.1-0.4-0.5-0.4h-1.9v0.9h1.9C1340.8,180.8,1340.9,180.6,1340.9,180.4z"/>
		<path fill="#A81E23" d="M1348.3,166c-10.1,0-18.3,8.2-18.3,18.3c0,10.1,8.2,18.3,18.3,18.3s18.3-8.2,18.3-18.3
			C1366.6,174.2,1358.4,166,1348.3,166z M1353.8,179.4h0.6v2.9h-0.6V179.4z M1349.9,179.4h3.5v0.5h-1.4v2.3h-0.6V180h-1.4V179.4z
			 M1343.3,179.4h2.3v0.6h-2.3c-0.6,0-0.7,0.2-0.8,0.6h3v0.5h-3c0,0.4,0.2,0.6,0.8,0.6h2.3v0.6h-2.3c-1,0-1.4-0.5-1.4-1.4
			C1342,179.9,1342.3,179.4,1343.3,179.4z M1337.3,180h-2.3c-0.7,0-0.8,0.3-0.8,0.9c0,0.6,0.1,0.9,0.8,0.9h2.3v0.6h-2.3
			c-1,0-1.4-0.5-1.4-1.4c0-0.9,0.4-1.4,1.4-1.4h2.3V180z M1338.4,182.3h-0.6v-2.9h2.5c0.7,0,1.1,0.3,1.1,0.9c0,0.4-0.2,0.7-0.6,0.8
			c0.4,0.1,0.5,0.4,0.5,0.7v0.6h-0.6v-0.6c0-0.2-0.1-0.4-0.5-0.4h-1.9V182.3z M1342.3,187.3h-2.5v-0.5h2.6c0.4,0,0.5-0.1,0.5-0.3
			c0-0.2-0.2-0.3-0.6-0.3l-1.4-0.1c-0.6-0.1-1-0.3-1-0.8c0-0.6,0.5-0.8,1.1-0.8h2.3v0.5h-2.4c-0.3,0-0.4,0.1-0.4,0.3
			c0,0.2,0.1,0.2,0.6,0.3l1.3,0.1c0.7,0.1,1.1,0.3,1.1,0.9C1343.4,187,1343.1,187.3,1342.3,187.3z M1347.5,186c0,1-0.5,1.4-1.8,1.4
			c-1.3,0-1.8-0.4-1.8-1.4v-1.5h0.6v1.5c0,0.7,0.2,0.8,1.2,0.8c0.9,0,1.2-0.2,1.2-0.8v-1.5h0.6V186z M1348.8,187.3h-0.6v-2.9h0.6
			V187.3z M1347,181.6l-0.4,0.7h-0.6l1.2-2.3c0.2-0.4,0.4-0.6,0.9-0.6c0.5,0,0.7,0.3,0.9,0.6l1.2,2.3h-0.6l-0.4-0.7H1347z
			 M1352.7,185h-1.4v2.3h-0.6V185h-1.4v-0.5h3.5V185z M1356.6,185h-2.3c-0.6,0-0.7,0.2-0.8,0.6h3v0.5h-3c0,0.4,0.2,0.6,0.8,0.6h2.3
			v0.6h-2.3c-1,0-1.4-0.5-1.4-1.4c0-0.9,0.4-1.4,1.4-1.4h2.3V185z M1357.8,181.7c-0.2,0.4-0.4,0.6-0.9,0.6c-0.5,0-0.7-0.3-0.9-0.6
			l-1.1-2.3h0.7l1.1,2.2c0.1,0.1,0.1,0.2,0.3,0.2c0.2,0,0.2-0.1,0.3-0.2l1.1-2.2h0.7L1357.8,181.7z M1362.7,180.6v0.5h-3
			c0,0.4,0.2,0.6,0.8,0.6h2.3v0.6h-2.3c-1,0-1.4-0.5-1.4-1.4c0-0.9,0.4-1.4,1.4-1.4h2.3v0.6h-2.3c-0.6,0-0.7,0.2-0.8,0.6H1362.7z"/>
	</g>
</g>
<!--END CREATIVE SUITE-->
<!--HOME-->
<g>
	<circle fill="none" stroke="#A81E23" stroke-width="2" stroke-miterlimit="10" cx="1328.1" cy="278.7" r="38.5"/>
	<g>
		<g>
			<polyline fill="none" stroke="#A90D15" stroke-miterlimit="10" points="1303.1,260.4 1303.1,253.4 1310,253.4 			"/>
			
				<line fill="none" stroke="#A90D15" stroke-miterlimit="10" stroke-dasharray="10.4,10.4" x1="1322" y1="253.4" x2="1340" y2="253.4"/>
			<polyline fill="none" stroke="#A90D15" stroke-miterlimit="10" points="1346,253.4 1352.9,253.4 1352.9,260.4 			"/>
			
				<line fill="none" stroke="#A90D15" stroke-miterlimit="10" stroke-dasharray="10.4,10.4" x1="1352.9" y1="272.4" x2="1352.9" y2="290.4"/>
			<polyline fill="none" stroke="#A90D15" stroke-miterlimit="10" points="1352.9,296.4 1352.9,303.3 1346,303.3 			"/>
			
				<line fill="none" stroke="#A90D15" stroke-miterlimit="10" stroke-dasharray="10.4,10.4" x1="1334" y1="303.3" x2="1316" y2="303.3"/>
			<polyline fill="none" stroke="#A90D15" stroke-miterlimit="10" points="1310,303.3 1303.1,303.3 1303.1,296.4 			"/>
			
				<line fill="none" stroke="#A90D15" stroke-miterlimit="10" stroke-dasharray="10.4,10.4" x1="1303.1" y1="284.4" x2="1303.1" y2="266.4"/>
		</g>
		
			<animateTransform  type="rotate" fill="remove" from="0 1328.1 278.7" to="360 1328.1 278.7" accumulate="none" attributeName="transform" additive="replace" restart="always" calcMode="linear" dur="5s" attributeType="xml" repeatCount="indefinite">
			</animateTransform>
	</g>
	<g>
		<path fill="#A81E23" d="M1327.7,259.6c-10.1,0-18.3,8.2-18.3,18.3c0,10.1,8.2,18.3,18.3,18.3c10.1,0,18.3-8.2,18.3-18.3
			C1346,267.8,1337.8,259.6,1327.7,259.6z M1323.2,278.3h-0.6v-1.2h-2.4v1.2h-0.6v-2.9h0.6v1.2h2.4v-1.2h0.6V278.3z M1325.8,278.4
			c-1.4,0-2-0.4-2-1.5c0-1.1,0.7-1.5,2-1.5c1.4,0,2,0.4,2,1.5C1327.8,278,1327.1,278.4,1325.8,278.4z M1332.7,278.3h-0.6v-2.2
			l-1.4,1.7h-0.5l-1.4-1.7v2.2h-0.6v-2.9h0.6c0.2,0,0.3,0.1,0.4,0.2l1.2,1.5l1.2-1.5c0.1-0.1,0.2-0.2,0.4-0.2h0.6V278.3z M1337,276
			h-2.3c-0.6,0-0.7,0.2-0.8,0.6h3v0.5h-3c0,0.4,0.2,0.6,0.8,0.6h2.3v0.6h-2.3c-1,0-1.4-0.5-1.4-1.4c0-0.9,0.4-1.4,1.4-1.4h2.3V276z"
			/>
		<path fill="#A81E23" d="M1325.8,276c-0.9,0-1.4,0.1-1.4,0.9c0,0.8,0.5,0.9,1.4,0.9s1.4-0.1,1.4-0.9
			C1327.2,276.1,1326.7,276,1325.8,276z"/>
	</g>
</g>
<!--END HOME-->
<!--COMMUNICATION-->
<g>
	<circle fill="none" stroke="#A81E23" stroke-width="2" stroke-miterlimit="10" cx="1226" cy="315.8" r="41.2"/>
	<g>
		<g>
			<polyline fill="none" stroke="#A90D15" stroke-miterlimit="10" points="1199.2,296.2 1199.2,288.8 1206.7,288.8 			"/>
			
				<line fill="none" stroke="#A90D15" stroke-miterlimit="10" stroke-dasharray="10.4,10.4" x1="1219.5" y1="288.8" x2="1238.7" y2="288.8"/>
			<polyline fill="none" stroke="#A90D15" stroke-miterlimit="10" points="1245.1,288.8 1252.6,288.8 1252.6,296.2 			"/>
			
				<line fill="none" stroke="#A90D15" stroke-miterlimit="10" stroke-dasharray="10.4,10.4" x1="1252.6" y1="309" x2="1252.6" y2="328.3"/>
			<polyline fill="none" stroke="#A90D15" stroke-miterlimit="10" points="1252.6,334.7 1252.6,342.1 1245.1,342.1 			"/>
			
				<line fill="none" stroke="#A90D15" stroke-miterlimit="10" stroke-dasharray="10.4,10.4" x1="1232.3" y1="342.1" x2="1213.1" y2="342.1"/>
			<polyline fill="none" stroke="#A90D15" stroke-miterlimit="10" points="1206.7,342.1 1199.2,342.1 1199.2,334.7 			"/>
			
				<line fill="none" stroke="#A90D15" stroke-miterlimit="10" stroke-dasharray="10.4,10.4" x1="1199.2" y1="321.9" x2="1199.2" y2="302.6"/>
		</g>
		
			<animateTransform  type="rotate" fill="remove" from="0 1226 315.8" to="360 1226 315.8" accumulate="none" attributeName="transform" additive="replace" restart="always" calcMode="linear" dur="5s" attributeType="xml" repeatCount="indefinite">
			</animateTransform>
	</g>
	<g>
		<path fill="#A81E23" d="M1225.2,314.5h-1.9v1.8h1.9c0.7,0,0.8-0.3,0.8-0.9C1226,314.8,1226,314.5,1225.2,314.5z"/>
		<path fill="#A81E23" d="M1222.3,309.1h-1.9v1.8h1.9c0.7,0,0.8-0.3,0.8-0.9C1223.1,309.4,1223.1,309.1,1222.3,309.1z"/>
		<path fill="#A81E23" d="M1225.5,295.4c-10.8,0-19.6,8.8-19.6,19.6c0,10.8,8.8,19.6,19.6,19.6s19.6-8.8,19.6-19.6
			C1245.2,304.2,1236.4,295.4,1225.5,295.4z M1225.8,308.5h2.4v0.6h-2.4c-0.6,0-0.8,0.2-0.8,0.6h3.2v0.6h-3.2c0,0.4,0.2,0.6,0.8,0.6
			h2.4v0.6h-2.4c-1.1,0-1.5-0.5-1.5-1.5S1224.7,308.5,1225.8,308.5z M1221.9,317h-0.6v-3.1h0.6V317z M1219.8,311.6v-3.1h2.5
			c1.1,0,1.5,0.5,1.5,1.5s-0.4,1.5-1.5,1.5H1219.8z M1225.2,317h-2.5v-3.1h2.5c1.1,0,1.5,0.5,1.5,1.5S1226.3,317,1225.2,317z
			 M1231.1,314.5h-2.4c-0.6,0-0.8,0.2-0.8,0.6h3.2v0.6h-3.2c0,0.4,0.2,0.6,0.8,0.6h2.4v0.6h-2.4c-1.1,0-1.5-0.5-1.5-1.5
			s0.4-1.5,1.5-1.5h2.4V314.5z M1231.8,311c-0.2,0.4-0.4,0.7-1,0.7c-0.5,0-0.8-0.3-1-0.7l-1.2-2.5h0.7l1.2,2.3
			c0.1,0.1,0.2,0.2,0.3,0.2c0.2,0,0.3-0.1,0.3-0.2l1.2-2.3h0.7L1231.8,311z"/>
	</g>
</g>
<!--END COMMUNICATION-->
<line fill="none" stroke="#A90D15" stroke-miterlimit="10" x1="175.1" y1="158.6" x2="215.6" y2="200.6"/>
<line fill="none" stroke="#A90D15" stroke-miterlimit="10" x1="139" y1="255" x2="193" y2="255"/>
<line fill="none" stroke="#A90D15" stroke-miterlimit="10" x1="191" y1="352" x2="221.7" y2="316.7"/>
<line fill="none" stroke="#A90D15" stroke-miterlimit="10" x1="274.5" y1="129.2" x2="275" y2="178"/>
<line fill="none" stroke="#A90D15" stroke-miterlimit="10" x1="351" y1="177" x2="329" y2="200"/>
<line fill="none" stroke="#A90D15" stroke-miterlimit="10" x1="370.6" y1="254.9" x2="352" y2="255"/>
<line fill="none" stroke="#A90D15" stroke-miterlimit="10" x1="328.3" y1="475.3" x2="289" y2="333.3"/>
<line fill="none" stroke="#A90D15" stroke-miterlimit="10" x1="392" y1="596" x2="441" y2="640"/>
<line fill="none" stroke="#A90D15" stroke-miterlimit="10" x1="544" y1="723" x2="688" y2="831"/>
<line fill="none" stroke="#A90D15" stroke-miterlimit="10" x1="612" y1="858" x2="679" y2="874"/>
<line fill="none" stroke="#A90D15" stroke-miterlimit="10" x1="697" y1="775" x2="723" y2="809"/>
<line fill="none" stroke="#A90D15" stroke-miterlimit="10" x1="787" y1="765" x2="780" y2="805"/>
<line fill="none" stroke="#A90D15" stroke-miterlimit="10" x1="879" y1="818" x2="827" y2="848"/>
<line fill="none" stroke="#A90D15" stroke-miterlimit="10" x1="768" y1="599" x2="781" y2="664"/>
<line fill="none" stroke="#A90D15" stroke-miterlimit="10" x1="999" y1="617" x2="831" y2="550"/>
<line fill="none" stroke="#A90D15" stroke-miterlimit="10" x1="998" y1="500.2" x2="830" y2="504.8"/>
<line fill="none" stroke="#A90D15" stroke-miterlimit="10" x1="863" y1="445" x2="811" y2="473"/>
<line fill="none" stroke="#A90D15" stroke-miterlimit="10" x1="753.8" y1="429.2" x2="754" y2="463"/>
<line fill="none" stroke="#A90D15" stroke-miterlimit="10" x1="630" y1="468" x2="690" y2="502"/>
<line fill="none" stroke="#A90D15" stroke-miterlimit="10" x1="546" y1="397" x2="340" y2="300"/>
<line fill="none" stroke="#A90D15" stroke-miterlimit="10" x1="346" y1="286" x2="690" y2="373"/>
<line fill="none" stroke="#A90D15" stroke-miterlimit="10" x1="813.9" y1="347" x2="1163.1" y2="227"/>
<line fill="none" stroke="#A90D15" stroke-miterlimit="10" x1="813" y1="236" x2="1150" y2="212"/>
<line fill="none" stroke="#A90D15" stroke-miterlimit="10" x1="1125.8" y1="172.1" x2="1154" y2="173"/>
<line fill="none" stroke="#A90D15" stroke-miterlimit="10" x1="1168" y1="111" x2="1178" y2="123"/>
<line fill="none" stroke="#A90D15" stroke-miterlimit="10" x1="1238.3" y1="97.5" x2="1237" y2="114"/>
<line fill="none" stroke="#A90D15" stroke-miterlimit="10" x1="1148.5" y1="253" x2="1168.5" y2="234"/>
<line fill="none" stroke="#A90D15" stroke-miterlimit="10" x1="1225" y1="274.5" x2="1224.5" y2="251"/>
<line fill="none" stroke="#A90D15" stroke-miterlimit="10" x1="1306" y1="246.5" x2="1277" y2="228.5"/>
<line fill="none" stroke="#A90D15" stroke-miterlimit="10" x1="1310.3" y1="185" x2="1290.5" y2="184"/>
<line fill="none" stroke="#A90D15" stroke-miterlimit="10" x1="1304.5" y1="112.5" x2="1282" y2="133.5"/>
<line fill="none" stroke="#A90D15" stroke-miterlimit="10" x1="1365" y1="293" x2="1426.5" y2="322.5"/>
<line fill="none" stroke="#A90D15" stroke-miterlimit="10" x1="1426.5" y1="322.5" x2="1429.1" y2="920.6"/>
<line fill="none" stroke="#A90D15" stroke-miterlimit="10" x1="1429.1" y1="920.6" x2="806.6" y2="920.6"/>
<line fill="none" stroke="#A90D15" stroke-miterlimit="10" x1="1250.6" y1="239.6" x2="1288.1" y2="379.1"/>
<line fill="none" stroke="#A90D15" stroke-miterlimit="10" x1="1302.4" y1="515" x2="1168.1" y2="919.1"/>
<line fill="none" stroke="#A90D15" stroke-miterlimit="10" x1="1064.6" y1="692.6" x2="986.6" y2="919.1"/>
<line fill="none" stroke="#A90D15" stroke-miterlimit="10" x1="346.3" y1="227.3" x2="419" y2="198"/>
<line fill="none" stroke="#A90D15" stroke-miterlimit="10" x1="419" y1="198" x2="689.1" y2="221.3"/>
<line fill="none" stroke="#A90D15" stroke-miterlimit="10" x1="344.3" y1="209.3" x2="687" y2="98"/>
<line fill="none" stroke="#A90D15" stroke-miterlimit="10" x1="812.3" y1="70" x2="1152.3" y2="140.7"/>
<line fill="none" stroke="#A90D15" stroke-miterlimit="10" x1="641" y1="686" x2="326" y2="318"/>
</svg>
